SplineFontDB: 1.0
FontName: FreeMono
FullName: Free Monospaced
FamilyName: Free
Weight: Medium
Copyright: Copyright 2002 Free Software Foundation.
Version: 1.05
ItalicAngle: 0
UnderlinePosition: -100
UnderlineWidth: 50
Ascent: 800
Descent: 200
FSType: 0
PfmFamily: 49
TTFWeight: 400
TTFWidth: 5
Panose: 2 0 5 3 0 0 0 0 0 0LineGap: 90
VLineGap: 0

Encoding: unicode
DisplaySize: -36
AntiAlias: 1
BeginPrivate: 8
UniqueID 7 5020945
BlueValues 31 [-20 0 417 437 563 583 603 623]
BlueScale 8 0.039625
StdHW 4 [43]
StdVW 4 [41]
StemSnapH 4 [43]
StemSnapV 4 [41]
ForceBold 5 false
EndPrivate
BeginChars: 65536 1424
StartChar: exclam
Encoding: 33 33
Width: 600
Flags: MW
HStem: -15 20
Fore
338 563 m 1
 320 237 l 1
 319 217 313 209 299 209 c 0
 286 209 280 218 279 237 c 2
 261 563 l 1
 260 570 260 575 260 579 c 0
 260 601 277 618 300 618 c 0
 322 618 339 601 339 579 c 0
 339 577 339 571 338 563 c 1
293 85 m 2
 306 85 l 2
 336 85 360 63 360 35 c 0
 360 7 336 -15 306 -15 c 2
 293 -15 l 2
 263 -15 240 7 240 35 c 0
 240 63 263 85 293 85 c 2
EndSplineSet
EndChar
StartChar: quotedbl
Encoding: 34 34
Width: 600
Flags: W
Fore
146 604 m 1
 274 604 l 1
 240 351 l 1
 237 326 228 315 210 315 c 0
 192 315 183 326 180 351 c 1
 146 604 l 1
326 604 m 1
 454 604 l 1
 420 351 l 1
 417 326 408 315 390 315 c 0
 372 315 363 326 360 351 c 1
 326 604 l 1
EndSplineSet
EndChar
StartChar: numbersign
Encoding: 35 35
Width: 600
Flags: MW
HStem: 189 41<119 206 249 337 381 461> 356 41<139 217 261 349 392 481>
Fore
390 356 m 1
 381 230 l 1
 461 230 l 2
 479 230 488 223 488 210 c 0
 488 196 479 189 461 189 c 2
 378 189 l 1
 362 -36 l 1
 361 -54 354 -62 341 -62 c 0
 330 -62 320 -51 321 -41 c 1
 322 -33 l 1
 337 189 l 1
 246 189 l 1
 231 -36 l 1
 229 -54 223 -62 210 -62 c 0
 199 -62 190 -53 190 -41 c 2
 190 -33 l 1
 206 189 l 1
 119 189 l 2
 101 189 92 196 92 210 c 0
 92 223 101 230 119 230 c 2
 208 230 l 1
 217 356 l 1
 139 356 l 2
 121 356 112 363 112 377 c 0
 112 390 121 397 139 397 c 2
 220 397 l 1
 236 622 l 1
 237 639 244 647 257 647 c 0
 268 647 278 637 277 626 c 1
 276 619 l 1
 261 397 l 1
 352 397 l 1
 368 622 l 1
 369 639 375 647 388 647 c 0
 402 647 409 636 408 619 c 1
 392 397 l 1
 481 397 l 2
 499 397 508 390 508 377 c 0
 508 363 499 356 481 356 c 2
 390 356 l 1
349 356 m 1
 258 356 l 1
 249 230 l 1
 340 230 l 1
 349 356 l 1
EndSplineSet
EndChar
StartChar: dollar
Encoding: 36 36
Width: 600
Flags: W
HStem: -92 185<294 307.5> 538 117<294 307.5> 543 20<439.5 453>
VStem: 113 41<92 108> 136 41<421 462.5> 280 41<-65 54 576 628> 446 41<169.5 216>
Fore
280 576 m 1
 280 628 l 2
 280 646 287 655 301 655 c 0
 314 655 321 646 321 628 c 2
 321 576 l 1
 366 572 389 562 425 534 c 1
 426 553 433 563 446 563 c 0
 460 563 466 554 466 536 c 2
 466 476 l 2
 466 458 459 449 446 449 c 0
 433 449 427 455 425 471 c 0
 420 507 363 538 302 538 c 0
 233 538 177 491 177 434 c 0
 177 408 191 384 212 371 c 0
 232 359 253 353 312 342 c 0
 384 328 410 320 438 301 c 0
 469 280 487 244 487 201 c 0
 487 122 423 65 321 54 c 1
 321 -65 l 2
 321 -83 314 -92 301 -92 c 0
 287 -92 280 -83 280 -65 c 2
 280 54 l 1
 234 56 180 79 154 108 c 1
 154 92 l 2
 154 74 147 65 134 65 c 0
 120 65 113 74 113 92 c 2
 113 171 l 2
 113 189 120 198 134 198 c 0
 147 198 152 191 154 173 c 0
 158 130 225 93 299 93 c 0
 384 93 446 138 446 201 c 0
 446 231 432 257 408 272 c 0
 385 285 369 290 302 303 c 0
 238 315 209 325 183 341 c 1
 154 361 136 397 136 435 c 0
 136 507 196 566 280 576 c 1
EndSplineSet
EndChar
StartChar: percent
Encoding: 37 37
Width: 600
Flags: MW
HStem: -12 38<338.5 385> 198 38<338 385> 363 38<214.5 260.5> 573 38<214 261>
VStem: 115 38<463.5 510.5> 239 38<88.5 136> 322 38<463 510.5> 446 38<88 135.5>
Fore
361 236 m 0
 430 236 484 181 484 110 c 0
 484 44 428 -12 362 -12 c 0
 294 -12 239 44 239 112 c 0
 239 180 294 236 361 236 c 0
361 198 m 0
 315 198 277 160 277 112 c 0
 277 65 315 26 362 26 c 0
 408 26 446 65 446 111 c 0
 446 160 409 198 361 198 c 0
237 611 m 0
 306 611 360 556 360 486 c 0
 360 419 304 363 238 363 c 0
 170 363 115 419 115 487 c 0
 115 555 170 611 237 611 c 0
237 573 m 0
 191 573 153 534 153 487 c 0
 153 440 191 401 238 401 c 0
 283 401 322 440 322 486 c 0
 322 535 285 573 237 573 c 0
495 344 m 2
 116 222 l 2
 111 220 106 219 104 219 c 0
 96 219 87 228 87 238 c 0
 87 248 92 254 105 258 c 2
 484 380 l 2
 488 381 492 382 496 382 c 0
 505 382 513 373 513 363 c 0
 513 354 508 348 495 344 c 2
EndSplineSet
EndChar
StartChar: ampersand
Encoding: 38 38
Width: 600
Flags: W
HStem: -16 41<221.5 266.5> 0 41<413 451> 208 41<439 451 439 439> 478 41<267.5 300.5>
VStem: 105 41<110.5 169.5> 166 41<386.5 419>
Fore
393 0 m 1
 362 48 l 1
 332 5 296 -16 250 -16 c 0
 172 -16 105 57 105 142 c 0
 105 211 147 266 216 287 c 1
 171 360 166 371 166 400 c 0
 166 465 222 519 289 519 c 0
 312 519 332 513 355 499 c 1
 365 505 l 2
 371 508 377 510 381 510 c 0
 391 510 400 500 400 489 c 0
 400 480 396 475 384 468 c 2
 352 452 l 1
 331 470 312 478 289 478 c 0
 246 478 207 440 207 398 c 0
 207 375 218 350 251 298 c 2
 362 121 l 1
 382 158 398 201 408 249 c 1
 451 249 l 2
 469 249 478 242 478 229 c 0
 478 215 469 208 451 208 c 2
 439 208 l 1
 425 156 406 110 386 82 c 1
 413 41 l 1
 451 41 l 2
 469 41 478 34 478 21 c 0
 478 7 469 0 451 0 c 2
 393 0 l 1
338 86 m 1
 233 251 l 1
 180 239 146 197 146 142 c 0
 146 79 194 25 249 25 c 0
 284 25 316 47 338 86 c 1
EndSplineSet
EndChar
StartChar: quotesingle
Encoding: 39 39
Width: 600
Flags: W
Fore
236 604 m 1
 364 604 l 1
 330 351 l 1
 327 326 318 315 300 315 c 0
 282 315 273 326 270 351 c 1
 236 604 l 1
EndSplineSet
EndChar
StartChar: parenleft
Encoding: 40 40
Width: 600
Flags: MW
VStem: 294 61<191.5 293>
Fore
438 604 m 0
 449 604 458 595 458 584 c 0
 458 580 457 578 455 573 c 0
 386 451 355 347 355 240 c 0
 355 133 386 31 455 -93 c 0
 457 -98 458 -100 458 -104 c 0
 458 -115 448 -124 437 -124 c 0
 427 -124 418 -114 395 -77 c 0
 327 36 294 140 294 243 c 0
 294 343 333 460 404 570 c 0
 421 597 428 604 438 604 c 0
EndSplineSet
EndChar
StartChar: parenright
Encoding: 41 41
Width: 600
Flags: MW
VStem: 250 61<187 288.5>
Fore
168 604 m 0
 178 604 187 595 210 557 c 0
 278 445 311 340 311 237 c 0
 311 137 272 20 201 -90 c 0
 184 -117 177 -124 167 -124 c 0
 156 -124 147 -115 147 -104 c 0
 147 -100 148 -98 150 -93 c 0
 219 29 250 133 250 240 c 0
 250 348 220 448 150 573 c 0
 148 578 147 580 147 584 c 0
 147 595 157 604 168 604 c 0
EndSplineSet
EndChar
StartChar: asterisk
Encoding: 42 42
Width: 600
Flags: MW
VStem: 279 41<438 577>
Fore
279 438 m 1
 279 577 l 2
 279 595 286 604 300 604 c 0
 313 604 320 595 320 577 c 2
 320 438 l 1
 453 481 l 2
 458 483 465 484 468 484 c 0
 478 484 487 474 487 464 c 0
 487 453 481 447 466 442 c 2
 333 400 l 1
 414 288 l 1
 418 281 421 275 421 270 c 0
 421 259 412 250 401 250 c 0
 393 250 389 253 381 264 c 2
 299 376 l 1
 218 264 l 2
 210 254 205 250 197 250 c 0
 186 250 177 259 177 271 c 0
 177 276 178 278 185 288 c 2
 266 400 l 1
 133 442 l 1
 129 443 l 2
 121 444 113 453 113 463 c 0
 113 474 122 483 133 483 c 0
 137 483 139 482 146 480 c 2
 279 438 l 1
EndSplineSet
EndChar
StartChar: plus
Encoding: 43 43
Width: 600
Flags: MW
HStem: 261 41<99 279 320 500>
VStem: 279 41<59 261 302 503>
Fore
320 261 m 1
 320 59 l 2
 320 41 313 32 300 32 c 0
 286 32 279 41 279 59 c 2
 279 261 l 1
 99 261 l 2
 81 261 72 268 72 282 c 0
 72 295 81 302 99 302 c 2
 279 302 l 1
 279 503 l 2
 279 521 286 530 300 530 c 0
 313 530 320 521 320 503 c 2
 320 302 l 1
 500 302 l 2
 519 302 528 295 528 282 c 0
 528 268 519 261 500 261 c 2
 320 261 l 1
EndSplineSet
EndChar
StartChar: comma
Encoding: 44 44
Width: 600
Flags: W
Fore
207 145 m 1
 340 145 l 1
 195 -120 l 2
 185 -139 177 -145 164 -145 c 0
 148 -145 135 -132 135 -116 c 0
 135 -112 136 -109 137 -105 c 2
 207 145 l 1
EndSplineSet
EndChar
StartChar: hyphen
Encoding: 45 45
Width: 600
Flags: MW
HStem: 258 41<99 501>
Fore
501 258 m 2
 99 258 l 2
 81 258 72 265 72 279 c 0
 72 292 81 299 99 299 c 2
 501 299 l 2
 519 299 528 292 528 279 c 0
 528 265 519 258 501 258 c 2
EndSplineSet
EndChar
StartChar: period
Encoding: 46 46
Width: 600
Flags: MW
HStem: -15 20
Fore
295 116 m 2
 305 116 l 2
 344 116 374 88 374 51 c 0
 374 13 344 -15 305 -15 c 2
 295 -15 l 2
 256 -15 226 14 226 51 c 0
 226 88 256 116 295 116 c 2
EndSplineSet
EndChar
StartChar: slash
Encoding: 47 47
Width: 600
Flags: W
Fore
482 633 m 2
 155 -63 l 2
 148 -77 143 -81 133 -81 c 0
 123 -81 113 -72 113 -62 c 0
 113 -58 114 -53 118 -46 c 1
 445 650 l 2
 452 664 457 668 467 668 c 0
 477 668 487 659 487 649 c 0
 487 645 486 641 482 633 c 2
EndSplineSet
EndChar
StartChar: zero
Encoding: 48 48
Width: 600
Flags: MW
HStem: -15 41<279 321> 577 41<279 321>
VStem: 113 41<251 257 257 346> 446 41<257 346 346 351>
Fore
487 351 m 2
 487 251 l 2
 487 93 411 -15 300 -15 c 0
 189 -15 113 93 113 251 c 2
 113 351 l 2
 113 510 189 618 300 618 c 0
 411 618 487 510 487 351 c 2
154 346 m 2
 154 257 l 2
 154 193 172 125 202 79 c 0
 224 45 258 26 300 26 c 0
 342 26 376 45 398 79 c 0
 428 125 446 193 446 257 c 2
 446 346 l 2
 446 410 428 478 398 524 c 0
 376 558 342 577 300 577 c 0
 258 577 224 558 202 524 c 0
 172 478 154 410 154 346 c 2
EndSplineSet
EndChar
StartChar: one
Encoding: 49 49
Width: 600
Flags: MW
HStem: 0 41<141 280 321 460>
VStem: 280 41<41 557 557 557>
Fore
321 612 m 1
 321 41 l 1
 460 41 l 2
 478 41 487 34 487 21 c 0
 487 7 478 0 460 0 c 2
 141 0 l 2
 123 0 113 7 113 21 c 0
 113 34 122 41 141 41 c 2
 280 41 l 1
 280 557 l 1
 148 515 l 2
 144 514 136 512 134 512 c 0
 125 512 115 522 115 532 c 0
 115 543 120 549 136 554 c 2
 321 612 l 1
EndSplineSet
EndChar
StartChar: two
Encoding: 50 50
Width: 600
Flags: W
HStem: 0 41<123 437> 577 41<259.5 328>
VStem: 433 41<424.5 481.5> 437 41<41 77>
Fore
123 41 m 1
 437 41 l 1
 437 77 l 2
 437 95 444 104 458 104 c 0
 471 104 478 95 478 77 c 2
 478 0 l 1
 84 0 l 1
 84 60 l 1
 165 133 245 208 320 282 c 0
 414 374 433 402 433 447 c 0
 433 516 366 577 290 577 c 0
 222 577 160 532 144 472 c 0
 140 458 134 452 123 452 c 0
 113 452 104 461 104 470 c 0
 104 488 117 518 136 542 c 0
 173 590 229 618 290 618 c 0
 388 618 474 537 474 446 c 0
 474 387 454 358 330 237 c 0
 243 151 180 92 123 44 c 1
 123 41 l 1
EndSplineSet
EndChar
StartChar: three
Encoding: 51 51
Width: 600
Flags: W
HStem: -15 41<265.5 336.5> 577 41<275 338.5>
VStem: 436 41<442 495.5> 458 41<129.5 202>
Fore
374 328 m 1
 452 296 499 236 499 168 c 0
 499 67 405 -15 290 -15 c 0
 241 -15 194 -2 142 26 c 0
 109 43 96 56 96 69 c 0
 96 79 105 88 115 88 c 0
 121 88 125 86 132 81 c 0
 179 45 235 26 291 26 c 0
 382 26 458 91 458 168 c 0
 458 246 376 312 279 312 c 0
 261 312 252 319 252 333 c 0
 252 346 262 353 279 353 c 0
 329 353 345 354 366 364 c 0
 408 382 436 421 436 463 c 0
 436 528 377 577 300 577 c 0
 244 577 195 557 166 523 c 0
 156 511 153 509 145 509 c 0
 134 509 125 518 125 528 c 0
 125 538 139 556 160 572 c 0
 199 602 249 618 301 618 c 0
 401 618 477 551 477 464 c 0
 477 407 439 355 379 330 c 0
 378 330 376 329 374 328 c 1
EndSplineSet
EndChar
StartChar: four
Encoding: 52 52
Width: 600
Flags: MW
HStem: 0 41<300 376 417 451> 169 41<144 376 417 451> 563 41<352 376 352 352>
VStem: 376 41<41 169 210 563 563 563>
Fore
376 169 m 1
 105 169 l 1
 105 216 l 1
 333 604 l 1
 417 604 l 1
 417 210 l 1
 451 210 l 2
 469 210 478 203 478 189 c 0
 478 176 469 169 451 169 c 2
 417 169 l 1
 417 41 l 1
 451 41 l 2
 469 41 478 34 478 21 c 0
 478 7 469 0 451 0 c 2
 300 0 l 2
 282 0 273 7 273 21 c 0
 273 34 282 41 300 41 c 2
 376 41 l 1
 376 169 l 1
376 210 m 1
 376 563 l 1
 352 563 l 1
 144 210 l 1
 376 210 l 1
EndSplineSet
EndChar
StartChar: five
Encoding: 53 53
Width: 600
Flags: MW
HStem: -15 41<268.5 342> 354 41<300 358> 563 41<190 190 190 431>
VStem: 149 41<365 563> 458 41<150.5 247.5>
Fore
190 563 m 1
 190 365 l 1
 241 386 278 395 322 395 c 0
 424 395 499 313 499 201 c 0
 499 75 414 -15 295 -15 c 0
 242 -15 192 1 142 34 c 0
 110 55 96 70 96 82 c 0
 96 93 105 102 116 102 c 0
 122 102 126 100 133 93 c 0
 181 49 235 26 293 26 c 0
 391 26 458 98 458 203 c 0
 458 292 400 354 316 354 c 0
 276 354 232 343 190 321 c 0
 178 315 173 313 168 313 c 0
 157 313 149 322 149 335 c 2
 149 604 l 1
 431 604 l 2
 450 604 459 597 459 584 c 0
 459 570 450 563 431 563 c 2
 190 563 l 1
EndSplineSet
EndChar
StartChar: six
Encoding: 54 54
Width: 600
Flags: MW
HStem: -15 41<304 375> 323 41<323.5 377> 543 20<485.5 493.5> 577 41<395.5 433.5>
VStem: 136 39<280.5 317> 469 41<135 217.5>
Fore
177 242 m 1
 218 324 272 364 343 364 c 0
 434 364 510 280 510 178 c 0
 510 70 434 -15 337 -15 c 0
 219 -15 136 107 136 282 c 0
 136 398 171 484 245 547 c 0
 298 593 363 618 428 618 c 0
 471 618 507 602 507 583 c 0
 507 572 499 563 488 563 c 0
 483 563 479 564 471 569 c 0
 461 574 443 577 424 577 c 0
 348 577 269 530 220 455 c 0
 192 411 175 349 175 285 c 0
 175 276 176 261 177 242 c 1
183 188 m 1
 189 165 189 164 192 155 c 0
 219 71 270 26 338 26 c 0
 412 26 469 92 469 178 c 0
 469 257 412 323 342 323 c 0
 305 323 265 302 233 266 c 0
 218 250 207 232 183 188 c 1
EndSplineSet
EndChar
StartChar: seven
Encoding: 55 55
Width: 600
Flags: MW
HStem: -1 20 563 41<146 437 146 146>
VStem: 105 41<528 563> 437 41<545 563 563 563>
Fore
437 545 m 1
 437 563 l 1
 146 563 l 1
 146 528 l 2
 146 509 139 500 126 500 c 0
 112 500 105 509 105 528 c 2
 105 604 l 1
 478 604 l 1
 478 539 l 1
 315 20 l 2
 310 4 305 -1 295 -1 c 0
 284 -1 275 8 275 19 c 0
 275 22 276 28 277 32 c 2
 437 545 l 1
EndSplineSet
EndChar
StartChar: eight
Encoding: 56 56
Width: 600
Flags: W
HStem: -15 41<259.5 340> 293 40<262 337.5> 577 41<262 338>
VStem: 113 41<123.5 194> 123 41<422.5 486> 436 41<422.5 485.5> 446 41<123 194>
Fore
375 313 m 1
 448 280 487 227 487 161 c 0
 487 64 403 -15 300 -15 c 0
 197 -15 113 64 113 161 c 0
 113 227 152 279 225 313 c 1
 155 349 123 392 123 453 c 0
 123 543 204 618 300 618 c 0
 396 618 477 543 477 453 c 0
 477 392 446 349 375 313 c 1
300 577 m 0
 224 577 164 521 164 451 c 0
 164 385 224 333 300 333 c 0
 375 333 436 385 436 450 c 0
 436 521 376 577 300 577 c 0
300 293 m 0
 218 293 154 235 154 161 c 0
 154 86 219 26 300 26 c 0
 380 26 446 86 446 160 c 0
 446 236 383 293 300 293 c 0
EndSplineSet
EndChar
StartChar: nine
Encoding: 57 57
Width: 600
Flags: MW
HStem: -15 41<212.5 250.5> 239 41<269 322.5> 577 41<271 342>
VStem: 136 41<385.5 468> 471 39<286 322.5>
Fore
469 361 m 1
 428 279 374 239 303 239 c 0
 212 239 136 323 136 425 c 0
 136 533 212 618 309 618 c 0
 427 618 510 496 510 321 c 0
 510 205 475 119 401 56 c 0
 348 10 283 -15 218 -15 c 0
 175 -15 139 1 139 20 c 0
 139 31 147 40 158 40 c 0
 163 40 167 39 175 34 c 0
 185 29 203 26 222 26 c 0
 298 26 377 73 426 148 c 0
 454 192 471 254 471 318 c 0
 471 327 470 342 469 361 c 1
463 415 m 1
 457 438 457 439 454 448 c 0
 427 532 376 577 308 577 c 0
 234 577 177 511 177 425 c 0
 177 346 234 280 304 280 c 0
 341 280 381 301 413 337 c 0
 428 353 439 371 463 415 c 1
EndSplineSet
EndChar
StartChar: colon
Encoding: 58 58
Width: 600
Flags: MW
HStem: -15 20 397 20<295 305 305 324.5>
Fore
295 116 m 2
 305 116 l 2
 344 116 374 88 374 51 c 0
 374 13 344 -15 305 -15 c 2
 295 -15 l 2
 256 -15 226 14 226 51 c 0
 226 88 256 116 295 116 c 2
295 417 m 2
 305 417 l 2
 344 417 374 388 374 351 c 0
 374 314 344 285 305 285 c 2
 295 285 l 2
 256 285 226 314 226 351 c 0
 226 388 256 417 295 417 c 2
EndSplineSet
EndChar
StartChar: semicolon
Encoding: 59 59
Width: 600
Flags: MW
HStem: 397 20<271 281 281 300.5>
Fore
211 145 m 1
 344 145 l 1
 199 -120 l 2
 189 -139 181 -145 168 -145 c 0
 152 -145 139 -132 139 -116 c 0
 139 -112 140 -109 141 -105 c 2
 211 145 l 1
271 417 m 2
 281 417 l 2
 320 417 350 388 350 351 c 0
 350 314 320 285 281 285 c 2
 271 285 l 2
 232 285 202 314 202 351 c 0
 202 388 232 417 271 417 c 2
EndSplineSet
EndChar
StartChar: less
Encoding: 60 60
Width: 600
Flags: W
Fore
72 281 m 1
 490 513 l 2
 495 516 499 518 502 518 c 0
 508 518 514 514 518 508 c 1
 519 505 l 1
 521 502 522 499 522 496 c 0
 522 488 518 483 509 478 c 2
 154 281 l 1
 509 84 l 2
 518 79 522 73 522 67 c 0
 522 64 521 60 519 57 c 2
 517 54 l 2
 514 48 508 44 502 44 c 0
 499 44 494 46 489 49 c 2
 72 281 l 1
EndSplineSet
EndChar
StartChar: equal
Encoding: 61 61
Width: 600
Flags: MW
HStem: 190 41<78 522> 334 41<78 522>
Fore
522 334 m 2
 78 334 l 2
 60 334 51 341 51 355 c 0
 51 368 60 375 78 375 c 2
 522 375 l 2
 540 375 549 368 549 355 c 0
 549 341 540 334 522 334 c 2
522 190 m 2
 78 190 l 2
 60 190 51 197 51 211 c 0
 51 224 60 231 78 231 c 2
 522 231 l 2
 540 231 549 224 549 211 c 0
 549 197 540 190 522 190 c 2
EndSplineSet
EndChar
StartChar: greater
Encoding: 62 62
Width: 600
Flags: W
Fore
528 281 m 1
 110 49 l 2
 105 46 101 44 98 44 c 0
 92 44 85 48 82 54 c 2
 81 57 l 1
 79 60 78 63 78 67 c 0
 78 74 82 79 91 84 c 2
 446 281 l 1
 91 478 l 2
 82 483 78 489 78 496 c 0
 78 499 79 502 81 505 c 2
 83 508 l 2
 86 514 92 518 98 518 c 0
 101 518 106 516 111 513 c 2
 528 281 l 1
EndSplineSet
EndChar
StartChar: question
Encoding: 63 63
Width: 600
Flags: MW
HStem: -15 100<287 314> 414 20<148 161.5> 536 41<283.5 345.5>
VStem: 134 41<461 502> 281 41<206 247> 446 41<394.5 456>
Fore
322 247 m 1
 322 206 l 2
 322 188 315 179 302 179 c 0
 288 179 281 188 281 206 c 2
 281 274 l 1
 397 323 446 366 446 423 c 0
 446 489 387 536 304 536 c 0
 259 536 227 528 175 502 c 1
 175 461 l 2
 175 443 168 434 155 434 c 0
 141 434 134 443 134 461 c 2
 134 529 l 1
 143 532 155 538 163 541 c 0
 226 569 258 577 309 577 c 0
 415 577 487 515 487 423 c 0
 487 349 447 306 322 247 c 1
287 85 m 2
 314 85 l 2
 348 85 371 65 371 35 c 0
 371 6 348 -15 314 -15 c 2
 287 -15 l 2
 253 -15 230 5 230 35 c 0
 230 65 253 85 287 85 c 2
EndSplineSet
EndChar
StartChar: at
Encoding: 64 64
Width: 600
Flags: MW
HStem: -62 41<280 326.5> 0 20<425.5 434.5> 147 41<352 383> 583 41<255.5 335>
VStem: 105 41<198 358> 242 41<248 303> 418 41<192 376 376 376 416 463>
Fore
418 145 m 1
 418 150 l 1
 398 148 388 147 378 147 c 0
 300 147 242 201 242 272 c 0
 242 356 316 417 418 416 c 1
 418 463 l 2
 418 533 369 583 301 583 c 0
 210 583 146 490 146 358 c 2
 146 198 l 2
 146 138 163 81 193 36 c 0
 220 -3 255 -21 305 -21 c 0
 348 -21 389 -9 410 9 c 0
 421 19 422 20 429 20 c 0
 440 20 449 11 449 1 c 0
 449 -30 373 -62 299 -62 c 0
 239 -62 195 -38 159 13 c 0
 123 65 105 127 105 198 c 2
 105 361 l 2
 105 513 187 624 300 624 c 0
 391 624 459 555 459 463 c 2
 459 186 l 1
 471 184 478 177 478 166 c 0
 478 152 469 145 451 145 c 2
 418 145 l 1
418 192 m 1
 418 376 l 1
 340 376 283 333 283 273 c 0
 283 223 323 188 381 188 c 0
 392 188 406 189 418 192 c 1
EndSplineSet
EndChar
StartChar: A
Encoding: 65 65
Width: 600
Flags: MW
HStem: 0 41<36 67 108 187 408 484 527 564> 188 41<178 413> 522 41<126 246 286 286 286 301>
Fore
428 188 m 1
 162 188 l 1
 108 41 l 1
 187 41 l 2
 205 41 214 34 214 21 c 0
 214 7 205 0 187 0 c 2
 36 0 l 2
 18 0 9 7 9 21 c 0
 9 34 18 41 36 41 c 2
 67 41 l 1
 246 522 l 1
 126 522 l 2
 108 522 99 529 99 543 c 0
 99 556 108 563 126 563 c 2
 330 563 l 1
 527 41 l 1
 564 41 l 2
 582 41 591 34 591 21 c 0
 591 7 582 0 564 0 c 2
 408 0 l 2
 390 0 381 7 381 21 c 0
 381 34 390 41 408 41 c 2
 484 41 l 1
 428 188 l 1
413 229 m 1
 301 522 l 1
 286 522 l 1
 178 229 l 1
 413 229 l 1
EndSplineSet
EndChar
StartChar: B
Encoding: 66 66
Width: 600
Flags: MW
HStem: 0 41<70 124 165 373 373 376> 272 41<165 312 312 314> 522 41<70 124 165 165 165 328 328 329>
VStem: 124 41<41 272 313 522> 458 41<392.5 448> 500 41<122 171>
Fore
124 41 m 1
 124 522 l 1
 70 522 l 2
 52 522 43 529 43 543 c 0
 43 556 52 563 70 563 c 2
 328 563 l 2
 425 563 499 500 499 418 c 0
 499 367 473 330 414 298 c 1
 498 268 541 220 541 153 c 0
 541 69 467 0 376 0 c 2
 70 0 l 2
 52 0 43 7 43 21 c 0
 43 34 52 41 70 41 c 2
 124 41 l 1
165 313 m 1
 312 313 l 2
 397 313 458 357 458 419 c 0
 458 477 402 522 329 522 c 2
 165 522 l 1
 165 313 l 1
165 41 m 1
 373 41 l 2
 444 41 500 91 500 153 c 0
 500 189 478 224 441 246 c 0
 409 265 375 272 314 272 c 2
 165 272 l 1
 165 41 l 1
EndSplineSet
EndChar
StartChar: C
Encoding: 67 67
Width: 600
Flags: W
HStem: -16 41<263 354> 397 20 535 41<271.5 338> 543 20<492 505.5>
VStem: 63 41<242 248 248 319> 478 41<507 536>
Fore
478 507 m 1
 478 536 l 2
 478 554 485 563 499 563 c 0
 512 563 519 554 519 536 c 2
 519 424 l 2
 519 406 512 397 498 397 c 0
 486 397 479 405 478 421 c 0
 474 482 394 535 305 535 c 0
 194 535 104 438 104 319 c 2
 104 248 l 2
 104 128 204 25 322 25 c 0
 391 25 442 51 496 115 c 0
 503 123 507 125 514 125 c 0
 526 125 534 117 534 106 c 0
 534 96 522 79 496 55 c 0
 447 9 386 -16 322 -16 c 0
 186 -16 63 107 63 242 c 2
 63 325 l 2
 63 386 91 456 134 502 c 0
 179 550 238 576 305 576 c 0
 371 576 431 552 478 507 c 1
EndSplineSet
EndChar
StartChar: D
Encoding: 68 68
Width: 600
Flags: HMW
HStem: 0 41<70 104 145 290> 522 41<70 104 145 145 145 288>
VStem: 104 41<41 522> 479 41<245 254 254 310>
Fore
104 41 m 1
 104 522 l 1
 70 522 l 2
 52 522 43 529 43 543 c 0
 43 556 52 563 70 563 c 2
 290 563 l 2
 419 563 520 451 520 310 c 2
 520 254 l 2
 520 112 419 0 290 0 c 2
 70 0 l 2
 52 0 43 7 43 21 c 0
 43 34 52 41 70 41 c 2
 104 41 l 1
145 41 m 1
 295 41 l 2
 391 41 479 139 479 245 c 2
 479 318 l 2
 479 371 454 431 414 472 c 0
 379 507 342 522 288 522 c 6
 145 522 l 1
 145 41 l 1
EndSplineSet
EndChar
StartChar: E
Encoding: 69 69
Width: 600
Flags: W
HStem: 0 41<70 124 165 479> 272 41<165 310> 397 20 522 41<70 124 165 165 165 458>
VStem: 124 41<41 272 313 522> 310 41<227 272 272 272 313 358> 458 41<424 522 522 522> 479 41<41 160>
Fore
165 272 m 1
 165 41 l 1
 479 41 l 1
 479 160 l 2
 479 178 486 187 500 187 c 0
 513 187 520 178 520 160 c 2
 520 0 l 1
 70 0 l 2
 52 0 43 7 43 21 c 0
 43 34 52 41 70 41 c 2
 124 41 l 1
 124 522 l 1
 70 522 l 2
 52 522 43 529 43 543 c 0
 43 556 52 563 70 563 c 2
 499 563 l 1
 499 424 l 2
 499 406 492 397 478 397 c 0
 465 397 458 406 458 424 c 2
 458 522 l 1
 165 522 l 1
 165 313 l 1
 310 313 l 1
 310 358 l 2
 310 376 317 385 331 385 c 0
 344 385 351 376 351 358 c 2
 351 227 l 2
 351 209 344 200 331 200 c 0
 317 200 310 209 310 227 c 2
 310 272 l 1
 165 272 l 1
EndSplineSet
EndChar
StartChar: F
Encoding: 70 70
Width: 600
Flags: MW
HStem: 0 41<70 124 165 303> 272 41<165 310> 397 20 522 41<70 124 165 165 165 479>
VStem: 124 41<41 272 313 522> 310 41<227 272 272 272 313 358> 479 41<424 522 522 522>
Fore
165 272 m 1
 165 41 l 1
 303 41 l 2
 322 41 331 34 331 21 c 0
 331 7 321 0 303 0 c 2
 70 0 l 2
 52 0 43 7 43 21 c 0
 43 34 52 41 70 41 c 2
 124 41 l 1
 124 522 l 1
 70 522 l 2
 52 522 43 529 43 543 c 0
 43 556 52 563 70 563 c 2
 520 563 l 1
 520 424 l 2
 520 406 513 397 499 397 c 0
 486 397 479 406 479 424 c 2
 479 522 l 1
 165 522 l 1
 165 313 l 1
 310 313 l 1
 310 358 l 2
 310 376 317 385 330 385 c 0
 344 385 351 376 351 358 c 2
 351 227 l 2
 351 209 344 200 330 200 c 0
 317 200 310 209 310 227 c 2
 310 272 l 1
 165 272 l 1
EndSplineSet
EndChar
StartChar: G
Encoding: 71 71
Width: 600
Flags: W
HStem: -16 41<264 362> 209 41<340 479 520 534 520 520> 398 20<493.5 506.5> 535 41<287 346> 543 20<493 507>
VStem: 63 41<244 317> 479 41<59 209 522 536>
Fore
520 209 m 1
 520 36 l 1
 461 2 395 -16 333 -16 c 0
 169 -16 63 86 63 244 c 2
 63 318 l 2
 63 389 94 463 144 511 c 0
 189 553 247 576 313 576 c 0
 379 576 434 558 479 522 c 1
 479 536 l 2
 479 554 486 563 500 563 c 0
 514 563 520 555 520 536 c 2
 520 445 l 2
 520 427 513 418 500 418 c 0
 487 418 481 426 480 443 c 0
 476 494 404 535 315 535 c 0
 259 535 214 518 176 481 c 0
 132 440 104 376 104 317 c 2
 104 244 l 2
 104 108 192 25 336 25 c 0
 388 25 423 33 479 59 c 1
 479 209 l 1
 340 209 l 2
 322 209 313 216 313 230 c 0
 313 243 322 250 340 250 c 2
 534 250 l 2
 553 250 562 243 562 230 c 0
 562 216 553 209 534 209 c 2
 520 209 l 1
EndSplineSet
EndChar
StartChar: H
Encoding: 72 72
Width: 600
Flags: MW
HStem: 0 41<81 126 167 221 383 437 478 524> 272 41<167 437> 522 41<101 126 167 167 167 221 383 437 478 478 478 503>
VStem: 126 41<41 272 313 522> 437 41<41 272 272 272 313 522>
Fore
437 272 m 1
 167 272 l 1
 167 41 l 1
 221 41 l 2
 239 41 248 34 248 21 c 0
 248 7 239 0 221 0 c 2
 81 0 l 2
 63 0 53 7 53 21 c 0
 53 34 62 41 81 41 c 2
 126 41 l 1
 126 522 l 1
 101 522 l 2
 83 522 74 529 74 543 c 0
 74 556 83 563 101 563 c 2
 221 563 l 2
 239 563 248 556 248 543 c 0
 248 529 239 522 221 522 c 2
 167 522 l 1
 167 313 l 1
 437 313 l 1
 437 522 l 1
 383 522 l 2
 365 522 356 529 356 543 c 0
 356 556 365 563 383 563 c 2
 503 563 l 2
 521 563 530 556 530 543 c 0
 530 529 521 522 503 522 c 2
 478 522 l 1
 478 41 l 1
 524 41 l 2
 542 41 551 34 551 21 c 0
 551 7 541 0 524 0 c 2
 383 0 l 2
 365 0 356 7 356 21 c 0
 356 34 365 41 383 41 c 2
 437 41 l 1
 437 272 l 1
EndSplineSet
EndChar
StartChar: I
Encoding: 73 73
Width: 600
Flags: MW
HStem: 0 41<140 279 320 459> 522 41<140 279 320 459 320 320>
VStem: 279 41<41 522>
Fore
320 522 m 1
 320 41 l 1
 459 41 l 2
 478 41 487 34 487 21 c 0
 487 7 477 0 459 0 c 2
 140 0 l 2
 122 0 113 7 113 21 c 0
 113 34 122 41 140 41 c 2
 279 41 l 1
 279 522 l 1
 140 522 l 2
 122 522 113 529 113 543 c 0
 113 556 122 563 140 563 c 2
 459 563 l 2
 478 563 487 556 487 543 c 0
 487 529 478 522 459 522 c 2
 320 522 l 1
EndSplineSet
EndChar
StartChar: J
Encoding: 74 74
Width: 600
Flags: MW
HStem: -16 41<248 313.5> 522 41<260 419 460 556 460 460>
VStem: 84 41<93 223> 419 41<165 522>
Fore
460 522 m 1
 460 165 l 2
 460 66 375 -16 272 -16 c 0
 208 -16 156 9 84 74 c 1
 84 223 l 2
 84 241 91 250 105 250 c 0
 118 250 125 241 125 223 c 2
 125 93 l 1
 176 47 223 25 273 25 c 0
 354 25 419 87 419 165 c 2
 419 522 l 1
 260 522 l 2
 242 522 233 529 233 543 c 0
 233 556 242 563 260 563 c 2
 556 563 l 2
 574 563 583 556 583 543 c 0
 583 529 574 522 556 522 c 2
 460 522 l 1
EndSplineSet
EndChar
StartChar: K
Encoding: 75 75
Width: 600
Flags: MW
HStem: 0 41<70 124 165 240 489 545> 522 41<70 124 165 165 165 240 400 445 502 502 502 518>
VStem: 124 41<41 221 273 522>
Fore
165 221 m 1
 165 41 l 1
 240 41 l 2
 258 41 267 34 267 21 c 0
 267 7 258 0 240 0 c 2
 70 0 l 2
 52 0 43 7 43 21 c 0
 43 34 52 41 70 41 c 2
 124 41 l 1
 124 522 l 1
 70 522 l 2
 52 522 43 529 43 543 c 0
 43 556 52 563 70 563 c 2
 240 563 l 2
 258 563 267 556 267 543 c 0
 267 529 258 522 240 522 c 2
 165 522 l 1
 165 273 l 1
 445 522 l 1
 400 522 l 2
 381 522 372 529 372 543 c 0
 372 556 381 563 400 563 c 2
 518 563 l 2
 537 563 546 556 546 543 c 0
 546 529 537 522 518 522 c 2
 502 522 l 1
 280 324 l 1
 377 284 414 233 489 41 c 1
 545 41 l 2
 563 41 572 34 572 21 c 0
 572 7 563 0 545 0 c 2
 458 0 l 1
 385 203 341 263 246 294 c 1
 165 221 l 1
EndSplineSet
EndChar
StartChar: L
Encoding: 76 76
Width: 600
Flags: MW
HStem: 0 41<90 186 227 500> 522 41<90 186 227 323 227 227>
VStem: 186 41<41 522> 500 41<41 201>
Fore
227 522 m 1
 227 41 l 1
 500 41 l 1
 500 201 l 2
 500 219 507 228 521 228 c 0
 534 228 541 219 541 201 c 2
 541 0 l 1
 90 0 l 2
 72 0 63 7 63 21 c 0
 63 34 72 41 90 41 c 2
 186 41 l 1
 186 522 l 1
 90 522 l 2
 72 522 63 529 63 543 c 0
 63 556 72 563 90 563 c 2
 323 563 l 2
 341 563 350 556 350 543 c 0
 350 529 341 522 323 522 c 2
 227 522 l 1
EndSplineSet
EndChar
StartChar: M
Encoding: 77 77
Width: 600
Flags: MW
HStem: 0 41<38 72 113 187 417 491 532 566> 522 41<47 72 113 121 113 113 483 483 483 491 532 532 532 557>
VStem: 72 41<41 522> 491 41<41 522>
Fore
326 169 m 1
 280 169 l 1
 121 522 l 1
 113 522 l 1
 113 41 l 1
 187 41 l 2
 206 41 215 34 215 21 c 0
 215 7 205 0 187 0 c 2
 38 0 l 2
 20 0 11 7 11 21 c 0
 11 34 20 41 38 41 c 2
 72 41 l 1
 72 522 l 1
 47 522 l 2
 29 522 20 529 20 543 c 0
 20 556 29 563 47 563 c 2
 146 563 l 1
 303 215 l 1
 457 563 l 1
 557 563 l 2
 575 563 584 556 584 543 c 0
 584 529 575 522 557 522 c 2
 532 522 l 1
 532 41 l 1
 566 41 l 2
 584 41 593 34 593 21 c 0
 593 7 584 0 566 0 c 2
 417 0 l 2
 399 0 390 7 390 21 c 0
 390 34 399 41 417 41 c 2
 491 41 l 1
 491 522 l 1
 483 522 l 1
 326 169 l 1
EndSplineSet
EndChar
StartChar: N
Encoding: 78 78
Width: 600
Flags: MW
HStem: 0 41<69 103 144 219> 522 41<49 103 386 460 501 501 501 535>
VStem: 103 41<41 504> 460 41<59 522>
Fore
501 0 m 1
 449 0 l 1
 144 504 l 1
 144 41 l 1
 219 41 l 2
 237 41 246 34 246 21 c 0
 246 7 236 0 219 0 c 2
 69 0 l 2
 51 0 42 7 42 21 c 0
 42 34 51 41 69 41 c 2
 103 41 l 1
 103 522 l 1
 49 522 l 2
 31 522 22 529 22 543 c 0
 22 556 31 563 49 563 c 2
 155 563 l 1
 460 59 l 1
 460 522 l 1
 386 522 l 2
 367 522 358 529 358 543 c 0
 358 556 367 563 386 563 c 2
 535 563 l 2
 553 563 562 556 562 543 c 0
 562 529 553 522 535 522 c 2
 501 522 l 1
 501 0 l 1
EndSplineSet
EndChar
StartChar: O
Encoding: 79 79
Width: 600
Flags: MW
HStem: -16 41<243 356.5> 535 41<242.5 358>
VStem: 51 41<210 350> 508 41<208.5 349>
Fore
300 576 m 0
 441 576 549 446 549 276 c 0
 549 115 437 -16 300 -16 c 0
 161 -16 51 115 51 280 c 0
 51 445 161 576 300 576 c 0
300 535 m 0
 185 535 92 420 92 280 c 0
 92 140 186 25 300 25 c 0
 413 25 508 140 508 277 c 0
 508 421 416 535 300 535 c 0
EndSplineSet
EndChar
StartChar: P
Encoding: 80 80
Width: 600
Flags: MW
HStem: 0 41<70 124 165 303> 231 41<165 296> 522 41<70 124 165 165 165 310 310 314>
VStem: 124 41<41 231 272 522> 458 41<363.5 432>
Fore
165 231 m 1
 165 41 l 1
 303 41 l 2
 322 41 331 34 331 21 c 0
 331 7 321 0 303 0 c 2
 70 0 l 2
 52 0 43 7 43 21 c 0
 43 34 52 41 70 41 c 2
 124 41 l 1
 124 522 l 1
 70 522 l 2
 52 522 43 529 43 543 c 0
 43 556 52 563 70 563 c 2
 310 563 l 2
 416 563 499 491 499 398 c 0
 499 305 410 231 296 231 c 2
 165 231 l 1
165 272 m 1
 299 272 l 2
 386 272 458 329 458 398 c 0
 458 466 393 522 314 522 c 2
 165 522 l 1
 165 272 l 1
EndSplineSet
EndChar
StartChar: Q
Encoding: 81 81
Width: 600
Flags: W
HStem: -115 41<438.5 455.5> -89 41<307.5 330.5> 535 41<242.5 358>
VStem: 51 41<210 350> 508 41<208.5 349>
Fore
305 -16 m 1
 251 -56 l 1
 281 -50 297 -48 318 -48 c 0
 347 -48 370 -52 400 -63 c 0
 424 -72 432 -74 445 -74 c 0
 466 -74 483 -67 514 -47 c 0
 518 -44 522 -43 526 -43 c 0
 537 -43 546 -52 546 -64 c 0
 546 -84 484 -115 442 -115 c 0
 426 -115 415 -112 386 -102 c 0
 359 -92 343 -89 318 -89 c 0
 288 -89 221 -100 178 -112 c 0
 174 -113 171 -114 168 -114 c 0
 157 -114 148 -105 148 -93 c 0
 148 -86 152 -80 159 -75 c 2
 249 -10 l 1
 135 15 51 139 51 280 c 0
 51 445 161 576 300 576 c 0
 439 576 549 445 549 280 c 0
 549 116 443 -12 305 -16 c 1
300 535 m 0
 185 535 92 420 92 280 c 0
 92 140 186 25 300 25 c 0
 413 25 508 140 508 277 c 0
 508 421 416 535 300 535 c 0
EndSplineSet
EndChar
StartChar: R
Encoding: 82 82
Width: 600
Flags: MW
HStem: 0 41<70 124 165 240 531 562> 251 41<165 279 279 297> 522 41<70 124 165 165 165 318>
VStem: 124 41<41 251 292 522> 457 41<376 438>
Fore
165 251 m 1
 165 41 l 1
 240 41 l 2
 258 41 267 34 267 21 c 0
 267 7 258 0 240 0 c 2
 70 0 l 2
 52 0 43 7 43 21 c 0
 43 34 52 41 70 41 c 2
 124 41 l 1
 124 522 l 1
 70 522 l 2
 52 522 43 529 43 543 c 0
 43 556 52 563 70 563 c 2
 318 563 l 2
 415 563 498 491 498 407 c 0
 498 342 452 294 359 262 c 1
 422 219 450 182 531 41 c 1
 562 41 l 2
 580 41 589 34 589 21 c 0
 589 7 580 0 562 0 c 2
 505 0 l 1
 417 162 373 216 297 251 c 1
 165 251 l 1
165 292 m 1
 279 292 l 2
 377 292 457 344 457 408 c 0
 457 468 390 522 318 522 c 2
 165 522 l 1
 165 292 l 1
EndSplineSet
EndChar
StartChar: S
Encoding: 83 83
Width: 600
Flags: W
HStem: -16 41<267.5 347.5> 0 20 535 41<261 328.5> 543 20<459 472.5>
VStem: 92 41<27 56> 115 44<404.5 453> 445 41<517 536> 464 44<116 170.5>
Fore
445 517 m 1
 445 536 l 2
 445 554 452 563 466 563 c 0
 479 563 486 554 486 536 c 2
 486 433 l 2
 486 415 479 406 466 406 c 0
 453 406 446 414 445 430 c 0
 441 490 380 535 302 535 c 0
 220 535 159 486 159 420 c 0
 159 389 173 361 198 344 c 0
 224 327 249 319 311 309 c 0
 388 296 416 288 446 269 c 0
 485 245 508 202 508 151 c 0
 508 54 422 -16 302 -16 c 0
 233 -16 174 9 133 56 c 1
 133 27 l 2
 133 9 126 0 112 0 c 0
 99 0 92 9 92 27 c 2
 92 139 l 2
 92 157 99 166 113 166 c 0
 126 166 132 158 133 142 c 0
 136 76 210 25 301 25 c 0
 394 25 464 79 464 153 c 0
 464 188 447 220 419 237 c 0
 395 253 374 259 303 271 c 0
 233 283 197 295 167 317 c 0
 134 340 115 379 115 421 c 0
 115 509 194 576 299 576 c 0
 358 576 403 558 445 517 c 1
EndSplineSet
EndChar
StartChar: T
Encoding: 84 84
Width: 600
Flags: MW
HStem: 0 41<175 280 321 426> 402 20<85.5 99 502 515> 522 41<113 280 113 113 321 321 321 487>
VStem: 72 41<449 522> 280 41<41 522> 487 41<449 522 522 522>
Fore
321 41 m 1
 426 41 l 2
 444 41 453 34 453 21 c 0
 453 7 444 0 426 0 c 2
 175 0 l 2
 157 0 148 7 148 21 c 4
 148 34 157 41 175 41 c 2
 280 41 l 1
 280 522 l 1
 113 522 l 1
 113 449 l 2
 113 431 106 422 92 422 c 0
 79 422 72 431 72 449 c 2
 72 563 l 1
 528 563 l 1
 528 449 l 2
 528 430 522 422 508 422 c 0
 496 422 487 433 487 449 c 2
 487 522 l 1
 321 522 l 1
 321 41 l 1
EndSplineSet
EndChar
StartChar: U
Encoding: 85 85
Width: 600
Flags: MW
HStem: -16 41<255.5 344> 522 41<67 101 142 142 142 216 384 458 499 533 499 499>
VStem: 101 41<185 522> 458 41<185 522>
Fore
499 522 m 1
 499 185 l 2
 499 71 412 -16 300 -16 c 0
 187 -16 101 71 101 185 c 2
 101 522 l 1
 67 522 l 2
 49 522 40 529 40 543 c 0
 40 557 49 563 67 563 c 2
 216 563 l 2
 234 563 243 556 243 543 c 0
 243 529 234 522 216 522 c 2
 142 522 l 1
 142 185 l 2
 142 95 211 25 300 25 c 0
 388 25 458 95 458 185 c 2
 458 522 l 1
 384 522 l 2
 366 522 357 529 357 543 c 0
 357 557 365 563 384 563 c 2
 533 563 l 2
 552 563 560 557 560 543 c 0
 560 529 551 522 533 522 c 2
 499 522 l 1
EndSplineSet
EndChar
StartChar: V
Encoding: 86 86
Width: 600
Flags: MW
HStem: 0 20 522 41<36 67 110 110 110 187 414 492 533 533 533 564>
Fore
267 0 m 1
 67 522 l 1
 36 522 l 2
 18 522 9 529 9 543 c 0
 9 557 18 563 36 563 c 2
 187 563 l 2
 205 563 214 557 214 543 c 0
 214 529 205 522 187 522 c 2
 110 522 l 1
 296 41 l 1
 299 41 l 1
 492 522 l 1
 414 522 l 2
 396 522 387 529 387 543 c 0
 387 556 395 563 414 563 c 2
 564 563 l 2
 582 563 591 557 591 543 c 0
 591 529 582 522 564 522 c 2
 533 522 l 1
 324 0 l 1
 267 0 l 1
EndSplineSet
EndChar
StartChar: W
Encoding: 87 87
Width: 600
Flags: MW
HStem: 0 20 522 41<47 62 103 103 103 196 403 499 538 538 538 553>
Fore
122 0 m 1
 62 522 l 1
 47 522 l 2
 29 522 20 529 20 543 c 0
 20 556 29 563 47 563 c 2
 196 563 l 2
 215 563 224 556 224 543 c 0
 224 529 215 522 196 522 c 2
 103 522 l 1
 159 46 l 1
 271 438 l 1
 333 438 l 1
 442 46 l 1
 499 522 l 1
 403 522 l 2
 385 522 376 529 376 543 c 0
 376 556 385 563 403 563 c 2
 553 563 l 2
 571 563 580 556 580 543 c 0
 580 529 571 522 553 522 c 2
 538 522 l 1
 476 0 l 1
 412 0 l 1
 300 400 l 1
 185 0 l 1
 122 0 l 1
EndSplineSet
EndChar
StartChar: X
Encoding: 88 88
Width: 600
Flags: MW
HStem: 0 41<67 84 134 198 401 463 516 533> 522 41<78 93 145 145 145 188 408 453 504 504 504 519>
Fore
325 288 m 1
 516 41 l 1
 533 41 l 2
 551 41 560 34 560 21 c 0
 560 7 551 0 533 0 c 2
 401 0 l 2
 383 0 374 7 374 21 c 0
 374 34 383 41 401 41 c 2
 463 41 l 1
 298 255 l 1
 134 41 l 1
 198 41 l 2
 216 41 225 34 225 21 c 0
 225 7 216 0 198 0 c 2
 67 0 l 2
 49 0 40 7 40 21 c 0
 40 34 49 41 67 41 c 2
 84 41 l 1
 272 288 l 1
 93 522 l 1
 78 522 l 2
 60 522 51 529 51 543 c 0
 51 556 60 563 78 563 c 2
 188 563 l 2
 206 563 215 556 215 543 c 0
 215 529 206 522 188 522 c 2
 145 522 l 1
 300 321 l 1
 453 522 l 1
 408 522 l 2
 390 522 381 529 381 543 c 0
 381 556 390 563 408 563 c 2
 519 563 l 2
 537 563 546 557 546 543 c 0
 546 529 537 522 519 522 c 2
 504 522 l 1
 325 288 l 1
EndSplineSet
EndChar
StartChar: Y
Encoding: 89 89
Width: 600
Flags: MW
HStem: 0 41<176 281 322 427> 522 41<78 102 151 151 151 189 412 452 498 498 498 522>
VStem: 281 41<41 254>
Fore
322 254 m 1
 322 41 l 1
 427 41 l 2
 445 41 454 34 454 21 c 0
 454 7 445 0 427 0 c 2
 176 0 l 2
 158 0 149 7 149 21 c 4
 149 34 158 41 176 41 c 2
 281 41 l 1
 281 254 l 1
 102 522 l 1
 78 522 l 2
 60 522 51 529 51 543 c 0
 51 556 60 563 78 563 c 2
 189 563 l 2
 207 563 216 556 216 543 c 0
 216 529 207 522 189 522 c 2
 151 522 l 1
 303 295 l 1
 452 522 l 1
 412 522 l 2
 393 522 384 529 384 543 c 0
 384 556 393 563 412 563 c 2
 522 563 l 2
 539 563 549 555 549 543 c 0
 549 530 538 522 522 522 c 2
 498 522 l 1
 322 254 l 1
EndSplineSet
EndChar
StartChar: Z
Encoding: 90 90
Width: 600
Flags: MW
HStem: 0 41<142 456> 522 41<162 431 162 162>
VStem: 121 41<404 522> 456 41<41 182>
Fore
497 0 m 1
 103 0 l 1
 103 59 l 1
 431 519 l 1
 431 522 l 1
 162 522 l 1
 162 404 l 2
 162 385 155 376 142 376 c 0
 128 376 121 385 121 404 c 2
 121 563 l 1
 470 563 l 1
 470 505 l 1
 142 45 l 1
 142 41 l 1
 456 41 l 1
 456 182 l 2
 456 200 462 209 476 209 c 0
 490 209 497 200 497 182 c 2
 497 0 l 1
EndSplineSet
EndChar
StartChar: bracketleft
Encoding: 91 91
Width: 600
Flags: MW
HStem: -124 41<321 418> 563 41<321 321 321 418>
VStem: 280 41<-83 563>
Fore
321 563 m 1
 321 -83 l 1
 418 -83 l 2
 436 -83 445 -90 445 -103 c 0
 445 -117 436 -124 418 -124 c 2
 280 -124 l 1
 280 604 l 1
 418 604 l 2
 436 604 445 597 445 584 c 0
 445 570 436 563 418 563 c 2
 321 563 l 1
EndSplineSet
EndChar
StartChar: backslash
Encoding: 92 92
Width: 600
Flags: W
Fore
155 650 m 2
 482 -46 l 1
 486 -53 487 -58 487 -62 c 0
 487 -72 477 -81 467 -81 c 0
 457 -81 452 -77 445 -63 c 2
 118 633 l 2
 114 641 113 645 113 649 c 0
 113 659 123 668 134 668 c 0
 143 668 148 664 155 650 c 2
EndSplineSet
EndChar
StartChar: bracketright
Encoding: 93 93
Width: 600
Flags: MW
HStem: -124 41<182 279> 563 41<182 279>
VStem: 279 41<-83 563 563 563>
Fore
279 -83 m 1
 279 563 l 1
 182 563 l 2
 164 563 155 570 155 583 c 0
 155 597 164 604 182 604 c 2
 320 604 l 1
 320 -124 l 1
 182 -124 l 2
 164 -124 155 -117 155 -104 c 0
 155 -90 164 -83 182 -83 c 2
 279 -83 l 1
EndSplineSet
EndChar
StartChar: asciicircum
Encoding: 94 94
Width: 600
Flags: W
Fore
300 615 m 1
 478 392 l 2
 484 385 487 379 487 374 c 0
 487 363 478 354 467 354 c 0
 459 354 454 357 447 367 c 1
 300 552 l 1
 153 367 l 1
 146 357 141 354 133 354 c 0
 122 354 113 363 113 374 c 0
 113 380 115 384 122 392 c 2
 300 615 l 1
EndSplineSet
EndChar
StartChar: underscore
Encoding: 95 95
Width: 600
Flags: MW
HStem: -125 50<-12 612>
Fore
612 -75 m 1
 612 -125 l 1
 -12 -125 l 1
 -12 -75 l 1
 612 -75 l 1
EndSplineSet
EndChar
StartChar: grave
Encoding: 96 96
Width: 600
Flags: W
Fore
194 630 m 2
 308 530 l 1
 315 522 l 2
 320 517 320 517 320 511 c 0
 320 499 311 490 299 490 c 0
 294 490 288 493 281 499 c 2
 167 599 l 2
 158 607 155 611 155 619 c 0
 155 630 164 639 175 639 c 0
 181 639 186 636 194 630 c 2
EndSplineSet
EndChar
StartChar: a
Encoding: 97 97
Width: 600
Flags: W
HStem: -16 41<192.5 262.5> 0 41<460 514> 217 41<238 306> 390 41<280.5 332.5>
VStem: 72 41<85 142.5> 419 41<41 67 67 67 112 202 202 202 237 308> 419 122<14 27.5> 419 41
Fore
419 0 m 1
 419 67 l 1
 358 10 298 -16 228 -16 c 0
 135 -16 72 36 72 112 c 0
 72 199 158 258 283 258 c 0
 329 258 360 253 419 237 c 1
 419 308 l 2
 419 357 369 390 296 390 c 0
 260 390 232 384 154 360 c 0
 150 359 146 358 144 358 c 0
 134 358 125 367 125 378 c 0
 125 388 131 395 142 399 c 0
 197 418 262 431 299 431 c 0
 392 431 460 379 460 308 c 2
 460 41 l 1
 514 41 l 2
 532 41 541 34 541 21 c 0
 541 7 532 0 514 0 c 2
 419 0 l 1
419 112 m 1
 419 202 l 1
 383 211 335 217 291 217 c 0
 185 217 113 174 113 111 c 0
 113 59 158 25 227 25 c 0
 298 25 352 49 419 112 c 1
EndSplineSet
EndChar
StartChar: b
Encoding: 98 98
Width: 600
Flags: W
HStem: -16 41<287.5 370.5> 0 41<49 103> 390 41<287 372> 563 41<49 103>
VStem: 22 122<14 27.5 577 590.5> 103 41<41 88 157.5 258.5 328 563 563 563> 500 41<156 257>
Fore
144 604 m 1
 144 328 l 1
 194 399 250 431 324 431 c 0
 446 431 541 334 541 210 c 0
 541 85 444 -16 324 -16 c 0
 251 -16 191 18 144 88 c 1
 144 0 l 1
 49 0 l 2
 31 0 22 7 22 21 c 4
 22 34 31 41 49 41 c 2
 103 41 l 1
 103 563 l 1
 49 563 l 2
 31 563 22 570 22 584 c 0
 22 597 31 604 49 604 c 2
 144 604 l 1
322 390 m 0
 223 390 144 309 144 208 c 0
 144 107 223 25 322 25 c 0
 419 25 500 107 500 205 c 0
 500 309 422 390 322 390 c 0
EndSplineSet
EndChar
StartChar: c
Encoding: 99 99
Width: 600
Flags: W
HStem: -16 41<256.5 342> 390 41<256 344.5> 397 20<484 497.5>
VStem: 84 41<152.5 260> 470 41<376 389>
Fore
470 376 m 1
 470 389 l 2
 470 408 477 417 491 417 c 0
 504 417 511 408 511 389 c 2
 511 298 l 2
 511 280 504 271 491 271 c 0
 478 271 472 278 470 295 c 0
 466 348 395 390 311 390 c 0
 201 390 125 315 125 205 c 0
 125 100 202 25 311 25 c 0
 384 25 446 49 498 97 c 0
 506 105 509 107 516 107 c 0
 526 107 535 98 535 88 c 0
 535 76 520 58 492 39 c 0
 441 4 375 -16 309 -16 c 0
 178 -16 84 76 84 204 c 0
 84 336 180 431 314 431 c 0
 375 431 429 412 470 376 c 1
EndSplineSet
EndChar
StartChar: d
Encoding: 100 100
Width: 600
Flags: W
HStem: -16 41<233 316.5> 0 41<502 556> 390 41<232.5 316.5> 563 41<407 461>
VStem: 63 41<157 258.5> 461 41<41 89 89 89 156 258 327 563 563 563> 461 122<14 27.5> 461 41
Fore
502 604 m 1
 502 41 l 1
 556 41 l 2
 574 41 583 34 583 21 c 0
 583 7 574 0 556 0 c 2
 461 0 l 1
 461 89 l 1
 414 19 354 -16 279 -16 c 0
 160 -16 63 85 63 208 c 0
 63 331 160 431 279 431 c 0
 354 431 412 398 461 327 c 1
 461 563 l 1
 407 563 l 2
 389 563 380 570 380 584 c 0
 380 597 389 604 407 604 c 2
 502 604 l 1
282 390 m 0
 183 390 104 309 104 208 c 0
 104 106 183 25 283 25 c 0
 381 25 461 106 461 206 c 0
 461 310 383 390 282 390 c 0
EndSplineSet
EndChar
StartChar: e
Encoding: 101 101
Width: 600
Flags: MW
HStem: -16 41<252 337> 199 41<104 478> 390 41<242.5 339>
Fore
520 199 m 1
 104 199 l 1
 118 94 198 25 306 25 c 0
 368 25 441 47 481 79 c 0
 488 84 492 86 497 86 c 0
 507 86 516 77 516 66 c 0
 516 31 396 -16 305 -16 c 0
 170 -16 63 87 63 217 c 0
 63 338 163 431 291 431 c 0
 387 431 467 380 503 297 c 0
 517 264 520 245 520 199 c 1
104 240 m 1
 478 240 l 1
 462 331 388 390 291 390 c 0
 194 390 122 332 104 240 c 1
EndSplineSet
EndChar
StartChar: f
Encoding: 102 102
Width: 600
Flags: MW
HStem: 0 41<132 230 271 449> 376 41<142 230 271 460> 563 41<349 393>
VStem: 230 41<41 376 417 478>
Fore
271 376 m 1
 271 41 l 1
 449 41 l 2
 467 41 476 34 476 21 c 0
 476 7 466 0 449 0 c 2
 132 0 l 2
 114 0 105 7 105 21 c 0
 105 34 114 41 132 41 c 2
 230 41 l 1
 230 376 l 1
 142 376 l 2
 124 376 115 383 115 397 c 0
 115 410 124 417 142 417 c 2
 230 417 l 1
 230 478 l 2
 230 551 294 604 384 604 c 0
 422 604 491 597 523 591 c 0
 535 588 541 581 541 571 c 0
 541 559 532 551 520 551 c 0
 518 551 518 551 470 557 c 0
 443 560 404 563 382 563 c 0
 316 563 271 528 271 478 c 2
 271 417 l 1
 460 417 l 2
 478 417 487 410 487 397 c 0
 487 383 478 376 460 376 c 2
 271 376 l 1
EndSplineSet
EndChar
StartChar: g
Encoding: 103 103
Width: 600
Flags: W
HStem: -186 41<202 316> 10 41<225.5 305> 376 41<481 535 481 481> 390 41<225 305.5>
VStem: 63 41<173.5 268> 440 41<-22 107 107 107 172.5 267.5 334 376> 440 122<390 403.5> 440 41
Fore
440 334 m 1
 440 417 l 1
 535 417 l 2
 553 417 562 410 562 397 c 0
 562 383 553 376 535 376 c 2
 481 376 l 1
 481 -28 l 2
 481 -69 468 -100 438 -132 c 0
 403 -169 366 -186 316 -186 c 2
 202 -186 l 2
 184 -186 175 -179 175 -165 c 0
 175 -152 184 -145 202 -145 c 2
 318 -145 l 2
 386 -145 440 -90 440 -22 c 2
 440 107 l 1
 395 41 341 10 269 10 c 0
 156 10 63 105 63 221 c 0
 63 337 156 431 269 431 c 0
 342 431 395 401 440 334 c 1
272 390 m 0
 178 390 104 315 104 221 c 0
 104 126 179 51 272 51 c 0
 365 51 440 126 440 219 c 0
 440 316 367 390 272 390 c 0
EndSplineSet
EndChar
StartChar: h
Encoding: 104 104
Width: 600
Flags: MW
HStem: 0 41<78 124 165 210 392 437 478 523> 390 41<288.5 334> 563 41<70 124>
VStem: 124 41<41 296 347 563 563 563> 437 41<41 288 288 291>
Fore
165 604 m 1
 165 347 l 1
 216 408 258 431 319 431 c 0
 412 431 478 372 478 291 c 2
 478 41 l 1
 523 41 l 2
 542 41 551 34 551 21 c 0
 551 7 542 0 523 0 c 2
 392 0 l 2
 374 0 365 7 365 21 c 0
 365 34 374 41 392 41 c 2
 437 41 l 1
 437 288 l 2
 437 318 424 344 399 364 c 0
 376 383 354 390 314 390 c 0
 258 390 230 373 176 309 c 2
 165 296 l 1
 165 41 l 1
 210 41 l 2
 229 41 238 34 238 21 c 0
 238 7 228 0 210 0 c 2
 78 0 l 2
 61 0 51 7 51 21 c 0
 51 34 60 41 78 41 c 2
 124 41 l 5
 124 563 l 1
 70 563 l 2
 52 563 43 570 43 584 c 0
 43 597 52 604 70 604 c 2
 165 604 l 1
EndSplineSet
EndChar
StartChar: i
Encoding: 105 105
Width: 600
Flags: W
HStem: 0 41<119 279 320 480> 376 41<161 279> 520 104<259 318>
VStem: 259 59<520 624> 279 41<41 376 376 376>
Fore
320 417 m 1
 320 41 l 1
 480 41 l 2
 499 41 508 34 508 21 c 0
 508 7 498 0 480 0 c 2
 119 0 l 2
 101 0 92 7 92 21 c 0
 92 34 101 41 119 41 c 2
 279 41 l 1
 279 376 l 1
 161 376 l 2
 143 376 134 383 134 397 c 0
 134 410 143 417 161 417 c 2
 320 417 l 1
318 624 m 1
 318 520 l 1
 259 520 l 1
 259 624 l 1
 318 624 l 1
EndSplineSet
EndChar
StartChar: j
Encoding: 106 106
Width: 600
Flags: MW
HStem: -186 41<174 302 302 303> 376 41<176 417> 520 104<355 414>
VStem: 355 59<520 624> 417 41<-28 376 376 376>
Fore
417 376 m 1
 176 376 l 2
 158 376 149 383 149 397 c 0
 149 410 158 417 176 417 c 2
 458 417 l 1
 458 -28 l 2
 458 -121 394 -186 303 -186 c 2
 174 -186 l 2
 156 -186 147 -179 147 -165 c 0
 147 -152 156 -145 174 -145 c 2
 302 -145 l 2
 368 -145 417 -96 417 -28 c 2
 417 376 l 1
414 624 m 1
 414 520 l 1
 355 520 l 1
 355 624 l 1
 414 624 l 1
EndSplineSet
EndChar
StartChar: k
Encoding: 107 107
Width: 600
Flags: W
HStem: 0 41<90 144 383 411 469 514> 376 41<336 358 419 419 419 466> 563 41<90 144>
VStem: 63 122<14 27.5 577 590.5> 144 41<41 180 229 563 563 563>
Fore
185 180 m 1
 185 0 l 1
 90 0 l 2
 72 0 63 7 63 21 c 0
 63 34 72 41 90 41 c 2
 144 41 l 1
 144 563 l 1
 90 563 l 2
 72 563 63 570 63 584 c 0
 63 597 72 604 90 604 c 2
 185 604 l 1
 185 229 l 1
 358 376 l 1
 336 376 l 2
 318 376 309 383 309 397 c 0
 309 410 318 417 336 417 c 2
 466 417 l 2
 484 417 493 410 493 397 c 0
 493 383 484 376 466 376 c 2
 419 376 l 1
 262 245 l 1
 469 41 l 1
 514 41 l 2
 532 41 541 34 541 21 c 0
 541 7 532 0 514 0 c 2
 383 0 l 2
 365 0 356 7 356 21 c 0
 356 34 365 41 383 41 c 2
 411 41 l 1
 231 219 l 1
 185 180 l 1
EndSplineSet
EndChar
StartChar: l
Encoding: 108 108
Width: 600
Flags: MW
HStem: 0 41<119 279 320 480> 563 41<162 279>
VStem: 279 41<41 563 563 563>
Fore
320 604 m 1
 320 41 l 1
 480 41 l 2
 499 41 508 34 508 21 c 0
 508 7 498 0 480 0 c 2
 119 0 l 2
 101 0 92 7 92 21 c 0
 92 34 101 41 119 41 c 2
 279 41 l 1
 279 563 l 1
 162 563 l 2
 144 563 135 570 135 584 c 0
 135 597 144 604 162 604 c 2
 320 604 l 1
EndSplineSet
EndChar
StartChar: m
Encoding: 109 109
Width: 600
Flags: W
HStem: 0 41<38 72 112 146 322 356 532 566> 376 41<38 72> 390 41<199.5 234 408 443.5>
VStem: 11 101<390 403.5> 72 40<41 308 365 376 376 376> 282 40<41 308> 492 40<41 319 319 323>
Fore
112 417 m 1
 112 365 l 1
 146 413 175 431 217 431 c 0
 260 431 292 408 314 360 c 1
 353 410 386 431 427 431 c 0
 485 431 532 382 532 323 c 2
 532 41 l 1
 566 41 l 2
 584 41 593 34 593 21 c 0
 593 7 584 0 566 0 c 2
 492 0 l 1
 492 319 l 2
 492 357 461 390 426 390 c 0
 390 390 360 366 322 308 c 1
 322 41 l 1
 356 41 l 2
 374 41 383 34 383 21 c 0
 383 7 374 0 356 0 c 2
 282 0 l 1
 282 316 l 2
 282 355 251 390 217 390 c 0
 182 390 150 365 112 308 c 1
 112 41 l 1
 146 41 l 2
 164 41 173 34 173 21 c 0
 173 7 163 0 146 0 c 2
 37 0 l 2
 20 0 11 7 11 21 c 0
 11 34 20 41 38 41 c 2
 72 41 l 1
 72 376 l 1
 38 376 l 2
 20 376 11 383 11 397 c 0
 11 410 20 417 38 417 c 2
 112 417 l 1
EndSplineSet
EndChar
StartChar: n
Encoding: 110 110
Width: 600
Flags: W
HStem: 0 41<81 126 167 212 405 439 480 514> 376 41<92 126> 390 41<300 338.5>
VStem: 65 102<390 403.5> 126 41<41 294 348 376 376 376> 439 41<41 288 288 295>
Fore
167 417 m 1
 167 348 l 1
 225 412 261 431 323 431 c 0
 412 431 480 372 480 295 c 2
 480 41 l 1
 514 41 l 2
 532 41 541 34 541 21 c 0
 541 7 532 0 514 0 c 2
 405 0 l 2
 387 0 378 7 378 21 c 0
 378 34 387 41 405 41 c 2
 439 41 l 1
 439 288 l 2
 439 318 426 343 401 364 c 0
 377 384 358 390 319 390 c 0
 281 390 252 380 224 357 c 0
 209 346 199 335 167 294 c 1
 167 41 l 1
 212 41 l 2
 230 41 239 34 239 21 c 0
 239 7 230 0 212 0 c 2
 81 0 l 2
 62 0 53 7 53 21 c 0
 53 34 62 41 81 41 c 2
 126 41 l 1
 126 376 l 1
 92 376 l 2
 74 376 65 383 65 397 c 0
 65 410 74 417 92 417 c 2
 167 417 l 1
EndSplineSet
EndChar
StartChar: o
Encoding: 111 111
Width: 600
Flags: MW
HStem: -16 41<248 351.5> 390 41<248 352.5>
VStem: 72 41<157 258.5> 487 41<155.5 257.5>
Fore
300 431 m 0
 428 431 528 332 528 205 c 0
 528 83 426 -16 300 -16 c 0
 173 -16 72 83 72 208 c 0
 72 331 173 431 300 431 c 0
300 390 m 0
 196 390 113 309 113 208 c 0
 113 106 196 25 300 25 c 0
 403 25 487 106 487 205 c 0
 487 310 405 390 300 390 c 0
EndSplineSet
EndChar
StartChar: p
Encoding: 112 112
Width: 600
Flags: W
HStem: -186 41<49 103 144 242> 10 41<284.5 371> 376 41<49 103> 390 41<285 372.5>
VStem: 22 122<390 403.5> 103 41<-145 106 173.5 268 335 376 376 376> 500 41<172.5 267.5>
Fore
144 417 m 1
 144 335 l 1
 197 404 247 431 323 431 c 0
 447 431 541 340 541 221 c 0
 541 102 446 10 323 10 c 0
 246 10 190 40 144 106 c 1
 144 -145 l 1
 242 -145 l 2
 260 -145 269 -152 269 -165 c 0
 269 -179 260 -186 242 -186 c 2
 49 -186 l 2
 31 -186 22 -179 22 -165 c 0
 22 -152 31 -145 49 -145 c 2
 103 -145 l 1
 103 376 l 1
 49 376 l 2
 31 376 22 383 22 397 c 0
 22 410 31 417 49 417 c 2
 144 417 l 1
322 390 m 0
 223 390 144 315 144 221 c 0
 144 126 223 51 322 51 c 0
 420 51 500 126 500 219 c 0
 500 316 423 390 322 390 c 0
EndSplineSet
EndChar
StartChar: q
Encoding: 113 113
Width: 600
Flags: W
HStem: -186 41<363 461 502 556> 10 41<232 320> 376 41<502 556 502 502> 390 41<232 320.5>
VStem: 63 41<173.5 268.5> 461 41<-145 106 106 106 172.5 267.5 335 376> 461 122<390 403.5> 461 41 461 122 461 41
Fore
461 335 m 1
 461 417 l 1
 556 417 l 2
 574 417 583 410 583 397 c 0
 583 383 574 376 556 376 c 2
 502 376 l 1
 502 -145 l 1
 556 -145 l 2
 574 -145 583 -152 583 -165 c 0
 583 -179 574 -186 556 -186 c 2
 363 -186 l 2
 345 -186 336 -179 336 -165 c 0
 336 -152 345 -145 363 -145 c 2
 461 -145 l 1
 461 106 l 1
 415 40 359 10 281 10 c 0
 158 10 63 102 63 221 c 0
 63 340 158 431 282 431 c 0
 359 431 414 401 461 335 c 1
282 390 m 0
 182 390 104 316 104 221 c 0
 104 126 182 51 282 51 c 0
 381 51 461 126 461 219 c 0
 461 316 383 390 282 390 c 0
EndSplineSet
EndChar
StartChar: r
Encoding: 114 114
Width: 600
Flags: W
HStem: 0 41<111 207 248 427> 376 41<132 207> 386 41<415.5 449>
VStem: 207 41<41 262 315 376 376 376>
Fore
248 417 m 1
 248 315 l 1
 341 399 390 427 441 427 c 0
 470 427 492 418 518 396 c 0
 535 382 541 374 541 365 c 0
 541 353 532 344 520 344 c 0
 513 344 511 345 504 352 c 0
 480 375 460 386 438 386 c 0
 393 386 358 363 248 262 c 1
 248 41 l 1
 427 41 l 2
 444 41 454 33 454 20 c 4
 454 8 444 0 427 0 c 2
 111 0 l 2
 94 0 84 8 84 21 c 0
 84 33 94 41 111 41 c 2
 207 41 l 1
 207 376 l 1
 132 376 l 2
 115 376 105 384 105 397 c 0
 105 409 115 417 132 417 c 2
 248 417 l 1
EndSplineSet
EndChar
StartChar: s
Encoding: 115 115
Width: 600
Flags: W
HStem: -16 41<268.5 342> 0 20 390 41<262 323.5> 397 20<446.5 459.5>
VStem: 103 41<27 38 85 108 108 110 110 115> 124 45<307 336.5> 432 41<385 389> 452 45<90.5 128.5>
Fore
432 385 m 1
 432 389 l 2
 432 406 440 417 453 417 c 0
 466 417 473 408 473 389 c 2
 473 320 l 2
 473 302 466 293 453 293 c 0
 441 293 434 300 432 316 c 0
 427 361 375 390 299 390 c 0
 225 390 169 358 169 315 c 0
 169 299 180 282 201 270 c 0
 223 256 229 254 317 245 c 0
 378 238 415 227 447 206 c 0
 478 185 497 151 497 116 c 0
 497 40 414 -16 301 -16 c 0
 236 -16 186 1 144 38 c 1
 144 27 l 2
 144 9 137 0 124 0 c 0
 110 0 103 9 103 27 c 2
 103 110 l 2
 103 128 110 137 124 137 c 0
 136 137 144 128 144 115 c 2
 144 108 l 2
 144 62 213 25 298 25 c 0
 386 25 452 64 452 117 c 0
 452 140 435 165 408 180 c 0
 382 194 355 201 300 207 c 0
 226 215 198 222 170 239 c 0
 142 257 124 287 124 318 c 0
 124 383 197 431 295 431 c 0
 352 431 397 416 432 385 c 1
EndSplineSet
EndChar
StartChar: t
Encoding: 116 116
Width: 600
Flags: MW
HStem: -16 41<263.5 326> 376 41<71 145 186 406> 543 20<159 173>
VStem: 145 41<107 109 109 376 417 536>
Fore
186 417 m 1
 406 417 l 2
 424 417 433 410 433 397 c 0
 433 383 424 376 406 376 c 2
 186 376 l 1
 186 109 l 2
 186 58 229 25 298 25 c 0
 354 25 425 42 464 65 c 0
 472 70 475 71 480 71 c 0
 490 71 499 61 499 51 c 0
 499 22 385 -16 300 -16 c 0
 206 -16 145 32 145 107 c 2
 145 376 l 1
 71 376 l 2
 52 376 43 383 43 397 c 0
 43 410 52 417 71 417 c 2
 145 417 l 1
 145 536 l 2
 145 554 152 563 166 563 c 0
 180 563 186 555 186 536 c 2
 186 417 l 1
EndSplineSet
EndChar
StartChar: u
Encoding: 117 117
Width: 600
Flags: W
HStem: -16 41<230.5 289.5> 0 41<480 514> 376 41<70 124 365 439>
VStem: 124 41<115 376 376 376> 439 41<41 66 66 66 115 376 376 376> 439 102<14 27.5> 439 41 439 102
Fore
439 0 m 1
 439 66 l 1
 384 12 323 -16 257 -16 c 0
 177 -16 124 36 124 115 c 2
 124 376 l 1
 70 376 l 2
 52 376 43 383 43 397 c 0
 43 410 52 417 70 417 c 2
 165 417 l 1
 165 115 l 2
 165 65 205 25 256 25 c 0
 323 25 384 55 439 115 c 1
 439 376 l 1
 365 376 l 2
 346 376 337 383 337 397 c 0
 337 410 346 417 365 417 c 2
 480 417 l 1
 480 41 l 1
 514 41 l 2
 532 41 541 34 541 21 c 0
 541 7 532 0 514 0 c 2
 439 0 l 1
EndSplineSet
EndChar
StartChar: v
Encoding: 118 118
Width: 600
Flags: MW
HStem: 0 41<293 312> 376 41<57 98 143 143 143 208 391 459 502 502 502 543>
Fore
336 0 m 1
 266 0 l 1
 98 376 l 1
 57 376 l 2
 39 376 30 383 30 397 c 0
 30 410 39 417 57 417 c 2
 208 417 l 2
 227 417 236 410 236 397 c 0
 236 383 227 376 208 376 c 2
 143 376 l 1
 293 41 l 1
 312 41 l 1
 459 376 l 1
 391 376 l 2
 373 376 364 383 364 397 c 0
 364 410 373 417 391 417 c 2
 543 417 l 2
 561 417 570 410 570 397 c 0
 570 383 561 376 543 376 c 2
 502 376 l 1
 336 0 l 1
EndSplineSet
EndChar
StartChar: w
Encoding: 119 119
Width: 600
Flags: MW
HStem: 0 20 376 41<57 76 115 115 115 168 432 482 524 524 524 543>
Fore
441 0 m 1
 391 0 l 1
 300 259 l 1
 211 0 l 1
 160 0 l 1
 76 376 l 1
 57 376 l 2
 39 376 30 383 30 397 c 0
 30 410 39 417 57 417 c 2
 168 417 l 2
 186 417 195 410 195 397 c 0
 195 383 186 376 168 376 c 2
 115 376 l 1
 187 56 l 1
 273 311 l 1
 324 311 l 1
 413 56 l 1
 482 376 l 1
 432 376 l 2
 414 376 405 383 405 397 c 0
 405 410 414 417 432 417 c 2
 543 417 l 2
 561 417 570 410 570 397 c 0
 570 383 561 376 543 376 c 2
 524 376 l 1
 441 0 l 1
EndSplineSet
EndChar
StartChar: x
Encoding: 120 120
Width: 600
Flags: MW
HStem: 0 41<78 87 143 211 390 455 513 522> 376 41<101 108 166 166 166 212 389 437 492 492 492 499>
Fore
329 219 m 1
 513 41 l 1
 522 41 l 2
 540 41 549 34 549 21 c 0
 549 7 540 0 522 0 c 2
 390 0 l 2
 372 0 363 7 363 21 c 0
 363 34 372 41 390 41 c 2
 455 41 l 1
 300 190 l 1
 143 41 l 1
 211 41 l 2
 229 41 238 34 238 21 c 0
 238 7 229 0 211 0 c 2
 78 0 l 2
 60 0 51 7 51 21 c 0
 51 34 60 41 78 41 c 2
 87 41 l 1
 271 219 l 1
 108 376 l 1
 101 376 l 2
 83 376 74 383 74 397 c 0
 74 410 83 417 101 417 c 2
 212 417 l 2
 230 417 239 411 239 397 c 0
 239 383 230 376 212 376 c 2
 166 376 l 1
 300 246 l 1
 437 376 l 1
 389 376 l 2
 371 376 362 383 362 397 c 0
 362 410 371 417 389 417 c 2
 499 417 l 2
 517 417 526 410 526 397 c 0
 526 383 517 376 499 376 c 2
 492 376 l 1
 329 219 l 1
EndSplineSet
EndChar
StartChar: y
Encoding: 121 121
Width: 600
Flags: W
HStem: -186 186 -186 41<84 211 252 317> 376 41<78 94 141 141 141 193 412 466 508 508 508 522>
Fore
282 0 m 1
 94 376 l 1
 78 376 l 2
 60 376 51 383 51 397 c 0
 51 410 60 417 78 417 c 2
 193 417 l 2
 211 417 220 410 220 397 c 0
 220 383 211 376 193 376 c 2
 141 376 l 1
 305 45 l 1
 466 376 l 1
 412 376 l 2
 394 376 385 383 385 397 c 0
 385 410 394 417 412 417 c 2
 522 417 l 2
 540 417 549 410 549 397 c 0
 549 383 540 376 522 376 c 2
 508 376 l 1
 252 -145 l 1
 317 -145 l 2
 335 -145 344 -152 344 -165 c 0
 344 -179 335 -186 317 -186 c 2
 84 -186 l 2
 66 -186 57 -179 57 -165 c 0
 57 -152 66 -145 84 -145 c 2
 211 -145 l 1
 282 0 l 1
EndSplineSet
EndChar
StartChar: z
Encoding: 122 122
Width: 600
Flags: MW
HStem: 0 41<171 448> 376 41<165 416 165 165>
VStem: 124 41<321 376> 448 41<41 97>
Fore
474 417 m 1
 474 381 l 1
 171 41 l 1
 448 41 l 1
 448 97 l 2
 448 115 455 124 469 124 c 0
 482 124 489 115 489 97 c 2
 489 0 l 1
 115 0 l 1
 115 36 l 1
 416 376 l 1
 165 376 l 1
 165 321 l 2
 165 303 158 294 145 294 c 0
 131 294 124 303 124 321 c 2
 124 417 l 1
 474 417 l 1
EndSplineSet
EndChar
StartChar: braceleft
Encoding: 123 123
Width: 600
Flags: MW
VStem: 281 41<-19 154 326 499>
Fore
322 499 m 2
 322 326 l 2
 322 285 311 264 278 240 c 1
 311 216 322 195 322 154 c 2
 322 -19 l 2
 322 -53 345 -80 377 -83 c 0
 396 -85 403 -90 403 -104 c 0
 403 -116 394 -124 379 -124 c 0
 324 -124 281 -78 281 -19 c 2
 281 154 l 2
 281 190 257 216 221 219 c 0
 205 220 197 226 197 240 c 0
 197 253 205 260 221 261 c 0
 257 264 281 289 281 326 c 2
 281 499 l 2
 281 558 324 604 379 604 c 0
 394 604 403 596 403 584 c 0
 403 570 396 565 377 563 c 0
 345 560 322 533 322 499 c 2
EndSplineSet
EndChar
StartChar: bar
Encoding: 124 124
Width: 600
Flags: MW
VStem: 280 40<-97 577>
Fore
320 577 m 2
 320 -97 l 2
 320 -115 313 -124 300 -124 c 0
 287 -124 280 -115 280 -97 c 2
 280 577 l 2
 280 595 287 604 300 604 c 0
 313 604 320 595 320 577 c 2
EndSplineSet
EndChar
StartChar: braceright
Encoding: 125 125
Width: 600
Flags: MW
VStem: 278 41<-19 154 326 499>
Fore
278 -19 m 2
 278 154 l 2
 278 195 289 216 322 240 c 1
 289 264 278 285 278 326 c 2
 278 499 l 2
 278 533 255 560 223 563 c 0
 204 565 197 570 197 584 c 0
 197 596 206 604 221 604 c 0
 276 604 319 558 319 499 c 2
 319 326 l 2
 319 290 343 264 379 261 c 0
 395 260 403 254 403 240 c 0
 403 227 395 220 379 219 c 0
 343 216 319 191 319 154 c 2
 319 -19 l 2
 319 -78 276 -124 221 -124 c 0
 206 -124 197 -116 197 -104 c 0
 197 -90 204 -85 223 -83 c 0
 255 -80 278 -53 278 -19 c 2
EndSplineSet
EndChar
StartChar: asciitilde
Encoding: 126 126
Width: 600
Flags: MW
HStem: 212 41<378 398> 307 41<199 220.5>
Fore
488 330 m 0
 499 330 508 321 508 311 c 0
 508 303 500 291 483 271 c 0
 449 230 420 212 389 212 c 0
 357 212 336 224 273 277 c 0
 248 297 229 307 212 307 c 0
 186 307 175 298 131 242 c 0
 124 233 119 230 111 230 c 0
 101 230 92 239 92 249 c 0
 92 257 100 271 120 294 c 0
 154 333 179 348 212 348 c 0
 244 348 259 340 313 297 c 0
 357 261 370 253 386 253 c 0
 410 253 434 270 459 305 c 0
 474 327 478 330 488 330 c 0
EndSplineSet
EndChar
StartChar: exclamdown
Encoding: 161 161
Width: 600
Flags: MW
HStem: 397 20<294 307 307 322>
Fore
262 -161 m 1
 280 165 l 1
 281 185 287 193 301 193 c 0
 314 193 320 184 321 165 c 2
 339 -161 l 1
 340 -168 340 -173 340 -177 c 0
 340 -199 323 -216 300 -216 c 0
 278 -216 261 -199 261 -177 c 0
 261 -175 261 -169 262 -161 c 1
307 317 m 2
 294 317 l 2
 264 317 240 339 240 367 c 0
 240 395 264 417 294 417 c 2
 307 417 l 2
 337 417 360 395 360 367 c 0
 360 339 337 317 307 317 c 2
EndSplineSet
EndChar
StartChar: cent
Encoding: 162 162
Width: 600
Flags: MW
HStem: -13 178<294 307.5> 458 172<294 307.5>
VStem: 113 41<269 342> 280 41<14 127 497 603>
Fore
280 496 m 1
 280 603 l 2
 280 621 287 630 301 630 c 0
 314 630 321 621 321 603 c 2
 321 497 l 1
 359 497 400 483 425 461 c 1
 428 472 435 478 445 478 c 0
 458 478 466 469 466 453 c 2
 466 392 l 2
 466 373 459 364 446 364 c 0
 434 364 428 371 426 387 c 0
 420 430 375 458 311 458 c 0
 220 458 154 397 154 311 c 0
 154 227 219 165 307 165 c 0
 353 165 399 180 432 207 c 0
 441 214 444 215 450 215 c 0
 461 215 469 207 469 195 c 0
 469 168 388 130 321 127 c 1
 321 14 l 2
 321 -4 314 -13 301 -13 c 0
 287 -13 280 -4 280 14 c 2
 280 127 l 1
 183 138 113 216 113 311 c 0
 113 373 143 429 194 463 c 0
 217 478 238 487 280 496 c 1
EndSplineSet
EndChar
StartChar: sterling
Encoding: 163 163
Width: 600
Flags: MW
HStem: 0 41<182 434 434 436> 273 41<90 184 234 234 234 324> 537 41<272 316>
VStem: 157 41<423.5 462.5> 198 41<182 225>
Fore
182 41 m 1
 434 41 l 2
 459 41 477 60 479 92 c 0
 481 108 487 115 500 115 c 0
 512 115 520 106 520 93 c 0
 520 42 482 0 436 0 c 2
 113 0 l 2
 95 0 86 7 86 21 c 0
 86 32 94 40 108 40 c 0
 155 42 198 128 198 220 c 0
 198 237 196 260 194 273 c 1
 90 273 l 2
 72 273 63 280 63 294 c 0
 63 307 72 314 90 314 c 2
 184 314 l 1
 163 380 157 409 157 435 c 0
 157 514 220 578 298 578 c 0
 334 578 367 565 396 539 c 0
 415 522 427 505 427 495 c 0
 427 486 416 476 407 476 c 0
 401 476 396 479 389 488 c 0
 361 522 334 537 299 537 c 0
 245 537 198 490 198 435 c 0
 198 412 201 397 221 328 c 0
 222 327 223 321 225 314 c 1
 324 314 l 2
 342 314 351 307 351 293 c 0
 351 280 342 273 324 273 c 2
 234 273 l 1
 237 252 239 234 239 216 c 0
 239 148 219 87 182 41 c 1
EndSplineSet
EndChar
StartChar: currency
Encoding: 164 164
Width: 600
Flags: W
HStem: 127 41<281.5 318.5> 403 20<198 198 402 402> 417 41<281.5 318.5>
VStem: 135 41<274 310.5> 424 42<274.5 311>
Fore
199 162 m 1
 142 106 l 1
 134 97 130 95 124 95 c 0
 112 95 103 104 103 115 c 0
 103 122 106 127 114 135 c 2
 170 191 l 1
 146 223 135 256 135 292 c 0
 135 329 147 366 169 394 c 1
 114 450 l 1
 105 458 103 462 103 469 c 0
 103 480 112 489 123 489 c 0
 130 489 134 486 142 478 c 2
 198 423 l 1
 227 446 263 458 300 458 c 0
 337 458 374 445 402 423 c 1
 457 478 l 2
 466 487 470 489 477 489 c 0
 488 489 497 480 497 468 c 0
 497 461 496 459 487 450 c 2
 432 394 l 1
 455 362 466 329 466 293 c 0
 466 256 454 220 431 191 c 1
 486 135 l 2
 492 129 496 121 496 115 c 0
 496 104 487 95 476 95 c 0
 470 95 464 98 457 106 c 2
 401 162 l 1
 369 138 337 127 300 127 c 0
 263 127 229 139 199 162 c 1
300 417 m 0
 232 417 176 361 176 293 c 0
 176 224 232 168 300 168 c 0
 367 168 424 224 424 291 c 0
 424 361 369 417 300 417 c 0
EndSplineSet
EndChar
StartChar: yen
Encoding: 165 165
Width: 600
Flags: MW
HStem: 0 41<194 280 321 407> 141 37<150 280 321 452> 238 37<150 266 334 452> 522 41<78 102 149 149 149 188 412 451 498 498 498 522>
VStem: 280 41<41 141 178 238>
Fore
321 238 m 1
 321 178 l 1
 452 178 l 2
 467 178 473 173 473 160 c 0
 473 146 467 141 452 141 c 2
 321 141 l 1
 321 41 l 1
 407 41 l 2
 425 41 434 34 434 21 c 0
 434 7 425 0 407 0 c 2
 194 0 l 2
 176 0 167 7 167 21 c 0
 167 34 176 41 194 41 c 2
 280 41 l 1
 280 141 l 1
 150 141 l 2
 134 141 128 146 128 160 c 0
 128 173 134 178 150 178 c 2
 280 178 l 1
 280 238 l 1
 150 238 l 2
 134 238 128 243 128 257 c 0
 128 270 133 275 150 275 c 2
 266 275 l 1
 102 522 l 1
 78 522 l 2
 60 522 51 529 51 543 c 0
 51 556 60 563 78 563 c 2
 188 563 l 2
 206 563 215 556 215 543 c 0
 215 529 206 522 188 522 c 2
 149 522 l 1
 300 295 l 1
 451 522 l 1
 412 522 l 2
 394 522 385 529 385 543 c 0
 385 556 394 563 412 563 c 2
 522 563 l 2
 540 563 549 556 549 543 c 0
 549 529 540 522 522 522 c 2
 498 522 l 1
 334 275 l 1
 452 275 l 2
 468 275 473 270 473 257 c 0
 473 243 468 238 452 238 c 2
 321 238 l 1
EndSplineSet
EndChar
StartChar: brokenbar
Encoding: 166 166
Width: 600
Flags: MW
VStem: 280 40<-97 170 310 577>
Fore
320 577 m 2
 320 310 l 2
 320 292 313 283 300 283 c 0
 287 283 280 292 280 310 c 2
 280 577 l 2
 280 595 287 604 300 604 c 0
 313 604 320 595 320 577 c 2
320 170 m 2
 320 -97 l 2
 320 -115 313 -124 300 -124 c 0
 287 -124 280 -115 280 -97 c 2
 280 170 l 2
 280 188 287 197 300 197 c 0
 313 197 320 188 320 170 c 2
EndSplineSet
EndChar
StartChar: section
Encoding: 167 167
Width: 600
Flags: W
HStem: -62 40<146 311 311 312> 563 40<284 287 287 455>
VStem: 66 43<342.5 370> 105 41<-22 49> 156 40<478 507.5> 404 41<32 61.5> 455 41<494 563 563 563> 491 43<172 198.5>
Fore
496 603 m 1
 496 494 l 2
 496 479 489 470 476 470 c 0
 463 470 455 479 455 494 c 2
 455 563 l 1
 287 563 l 2
 238 563 196 528 196 487 c 0
 196 450 226 424 345 358 c 2
 401 327 l 2
 495 276 534 234 534 185 c 0
 534 159 521 137 498 121 c 0
 481 110 466 105 432 101 c 1
 441 86 445 71 445 52 c 0
 445 -13 388 -62 312 -62 c 2
 105 -62 l 1
 105 49 l 2
 105 64 112 73 126 73 c 0
 139 73 146 64 146 49 c 2
 146 -22 l 1
 311 -22 l 2
 364 -22 404 11 404 53 c 0
 404 88 369 121 273 175 c 2
 208 211 l 2
 110 266 66 312 66 358 c 0
 66 403 107 436 169 441 c 1
 160 456 156 469 156 487 c 0
 156 550 215 603 284 603 c 2
 496 603 l 1
384 290 m 2
 320 326 l 2
 256 361 228 379 201 403 c 1
 195 402 195 402 183 402 c 0
 141 402 109 383 109 357 c 0
 109 328 151 290 234 243 c 2
 296 208 l 2
 351 177 382 157 400 139 c 1
 404 141 404 141 418 142 c 0
 463 143 491 159 491 184 c 0
 491 213 449 255 384 290 c 2
EndSplineSet
EndChar
StartChar: dieresis
Encoding: 168 168
Width: 600
Flags: MW
VStem: 140 100<547.5 574> 361 100<547.5 574>
Fore
190 611 m 0
 218 611 240 588 240 560 c 0
 240 534 217 511 190 511 c 0
 163 511 140 534 140 561 c 0
 140 588 163 611 190 611 c 0
411 611 m 0
 439 611 461 588 461 560 c 0
 461 534 438 511 411 511 c 0
 384 511 361 534 361 561 c 0
 361 588 384 611 411 611 c 0
EndSplineSet
EndChar
StartChar: copyright
Encoding: 169 169
Width: 600
Flags: W
HStem: -15 41<227.5 368.5> 111 36<271 320> 401 20 414 36<264 308> 537 41<229.5 370>
VStem: 3 41<212 352.5> 153 36<260 263 263 302> 555 41<210.5 352>
Fore
153 260 m 2
 153 305 l 2
 153 385 216 450 292 450 c 0
 324 450 346 443 381 421 c 1
 381 435 388 443 399 443 c 0
 410 443 417 435 417 423 c 2
 417 358 l 2
 417 346 410 338 399 338 c 0
 389 338 383 345 381 357 c 0
 378 388 338 414 293 414 c 0
 235 414 189 364 189 302 c 2
 189 263 l 2
 189 200 240 147 302 147 c 0
 338 147 363 160 392 194 c 0
 397 200 401 202 408 202 c 0
 417 202 425 194 425 185 c 0
 425 177 418 166 402 152 c 0
 373 125 338 111 302 111 c 0
 223 111 153 181 153 260 c 2
300 578 m 0
 463 578 596 445 596 282 c 0
 596 116 464 -15 296 -15 c 0
 136 -15 3 120 3 282 c 0
 3 445 136 578 300 578 c 0
300 537 m 0
 159 537 44 423 44 282 c 0
 44 142 159 26 296 26 c 0
 441 26 555 139 555 282 c 0
 555 422 440 537 300 537 c 0
EndSplineSet
EndChar
StartChar: ordfeminine
Encoding: 170 170
Width: 600
Flags: W
HStem: 279 37<235.5 273> 282 37<398 424> 420 35<261.5 299.5> 537 37<287 315.5>
VStem: 155 37<344 374.5> 361 37<350 409 409 409 446 490> 361 86<294.5 306> 361 37
Fore
361 282 m 1
 361 308 l 1
 320 286 293 279 254 279 c 0
 195 279 155 311 155 358 c 0
 155 415 211 455 288 455 c 0
 311 455 331 452 361 446 c 1
 361 490 l 2
 361 518 335 537 296 537 c 0
 278 537 250 530 220 518 c 0
 212 514 210 514 206 514 c 0
 197 514 189 523 189 533 c 0
 189 542 193 547 203 552 c 0
 233 564 274 574 298 574 c 0
 356 574 398 539 398 490 c 2
 398 319 l 1
 424 319 l 2
 439 319 447 312 447 300 c 0
 447 289 438 282 424 282 c 2
 361 282 l 1
361 350 m 1
 361 409 l 1
 345 415 313 420 290 420 c 0
 233 420 192 393 192 356 c 0
 192 332 217 316 254 316 c 0
 292 316 326 327 361 350 c 1
EndSplineSet
EndChar
StartChar: guillemotleft
Encoding: 171 171
Width: 600
Flags: MW
HStem: 0 20 397 20<288.5 297.5 517.5 526.5>
Fore
63 209 m 1
 271 406 l 2
 279 414 285 417 292 417 c 0
 303 417 312 408 312 397 c 0
 312 390 311 388 301 377 c 2
 158 209 l 1
 301 40 l 2
 311 29 312 27 312 20 c 0
 312 9 303 0 292 0 c 0
 286 0 279 4 271 11 c 2
 63 209 l 1
292 209 m 1
 500 406 l 2
 508 414 514 417 521 417 c 0
 532 417 541 408 541 397 c 0
 541 390 540 388 530 377 c 2
 387 209 l 1
 530 40 l 2
 540 29 541 27 541 20 c 0
 541 9 532 0 521 0 c 0
 515 0 508 4 500 11 c 2
 292 209 l 1
EndSplineSet
EndChar
StartChar: logicalnot
Encoding: 172 172
Width: 600
Flags: MW
HStem: 397 41<99 487>
VStem: 487 41<195 397 397 397>
Fore
487 397 m 1
 99 397 l 2
 81 397 72 404 72 418 c 0
 72 431 81 438 99 438 c 2
 528 438 l 1
 528 195 l 2
 528 177 521 168 507 168 c 0
 494 168 487 177 487 195 c 2
 487 397 l 1
EndSplineSet
EndChar
StartChar: registered
Encoding: 174 174
Width: 600
Flags: MW
HStem: -15 41<227.5 368.5> 120 36<173 197 233 269 431 446> 258 36<233 289 289 296> 407 36<173 197 233 233 233 310> 537 41<229.5 370>
VStem: 3 41<212 352.5> 197 36<156 258 294 407> 380 36<334 368> 555 41<210.5 352>
Fore
233 258 m 1
 233 156 l 1
 269 156 l 2
 281 156 289 149 289 138 c 0
 289 127 281 120 269 120 c 2
 173 120 l 2
 160 120 152 127 152 138 c 0
 152 149 160 156 173 156 c 2
 197 156 l 1
 197 407 l 1
 173 407 l 2
 160 407 152 414 152 425 c 0
 152 436 160 443 173 443 c 2
 311 443 l 2
 372 443 416 404 416 350 c 0
 416 312 389 281 346 269 c 1
 379 243 390 228 431 156 c 1
 446 156 l 2
 458 156 466 149 466 138 c 0
 466 127 458 120 446 120 c 2
 407 120 l 1
 370 198 331 246 296 258 c 1
 233 258 l 1
233 294 m 1
 289 294 l 2
 345 294 380 316 380 352 c 0
 380 384 351 407 310 407 c 2
 233 407 l 1
 233 294 l 1
300 578 m 0
 463 578 596 445 596 282 c 0
 596 116 464 -15 296 -15 c 0
 136 -15 3 120 3 282 c 0
 3 445 136 578 300 578 c 0
300 537 m 0
 159 537 44 423 44 282 c 0
 44 142 159 26 296 26 c 0
 441 26 555 139 555 282 c 0
 555 422 440 537 300 537 c 0
EndSplineSet
EndChar
StartChar: macron
Encoding: 175 175
Width: 600
Flags: MW
HStem: 536 40<182 418>
Fore
418 536 m 2
 182 536 l 2
 164 536 155 543 155 556 c 0
 155 569 164 576 182 576 c 6
 418 576 l 6
 436 576 445 569 445 556 c 0
 445 543 436 536 418 536 c 2
EndSplineSet
EndChar
StartChar: degree
Encoding: 176 176
Width: 600
Flags: MW
HStem: 346 41<271 328.5> 595 41<271.5 328.5>
VStem: 155 41<463 520> 404 41<462.5 519.5>
Fore
300 636 m 0
 380 636 445 571 445 491 c 0
 445 411 380 346 300 346 c 0
 219 346 155 411 155 493 c 0
 155 571 221 636 300 636 c 0
300 595 m 0
 243 595 196 548 196 492 c 0
 196 434 242 387 300 387 c 0
 357 387 404 434 404 491 c 0
 404 548 357 595 300 595 c 0
EndSplineSet
EndChar
StartChar: plusminus
Encoding: 177 177
Width: 600
Flags: MW
HStem: 0 40<99 501> 301 40<99 279 320 500>
VStem: 279 41<139 301 341 502>
Fore
320 301 m 1
 320 139 l 2
 320 121 313 112 300 112 c 0
 286 112 279 121 279 139 c 2
 279 301 l 1
 99 301 l 2
 81 301 72 308 72 321 c 0
 72 334 81 341 99 341 c 2
 279 341 l 1
 279 502 l 2
 279 520 286 529 300 529 c 0
 313 529 320 520 320 502 c 2
 320 341 l 1
 500 341 l 2
 519 341 528 335 528 321 c 0
 528 308 519 301 500 301 c 2
 320 301 l 1
99 40 m 2
 501 40 l 2
 519 40 528 33 528 20 c 0
 528 7 519 0 501 0 c 2
 99 0 l 2
 81 0 72 7 72 20 c 0
 72 33 81 40 99 40 c 2
EndSplineSet
EndChar
StartChar: twosuperior
Encoding: 178 178
Width: 600
Flags: W
HStem: 259 36<219 369> 576 36<278 314>
VStem: 175 230<259 298> 367 36<500 528.5>
Fore
219 295 m 1
 369 295 l 1
 369 298 l 2
 369 310 376 318 387 318 c 0
 398 318 405 310 405 298 c 2
 405 259 l 1
 175 259 l 1
 175 302 l 1
 223 345 264 384 307 425 c 1
 357 475 367 489 367 511 c 0
 367 546 333 576 295 576 c 0
 261 576 230 555 221 524 c 0
 218 513 212 508 203 508 c 0
 194 508 186 516 186 525 c 0
 186 536 194 554 205 568 c 0
 227 596 260 612 295 612 c 0
 353 612 403 565 403 511 c 0
 403 468 386 448 219 295 c 1
EndSplineSet
EndChar
StartChar: threesuperior
Encoding: 179 179
Width: 600
Flags: W
HStem: 251 36<280 318> 576 36<285.5 319.5>
VStem: 368 36<505 536> 380 36<339 376>
Fore
358 446 m 1
 397 422 416 394 416 358 c 0
 416 299 361 251 295 251 c 0
 245 251 181 281 181 304 c 0
 181 313 189 321 198 321 c 0
 203 321 206 320 211 316 c 0
 241 295 265 287 295 287 c 0
 341 287 380 320 380 358 c 0
 380 398 341 430 288 431 c 0
 275 432 267 438 267 449 c 0
 267 455 270 461 276 465 c 0
 279 467 279 467 304 467 c 0
 341 467 368 490 368 520 c 0
 368 552 339 576 300 576 c 0
 271 576 246 566 231 549 c 0
 225 541 221 539 215 539 c 0
 205 539 197 547 197 556 c 0
 197 581 254 612 300 612 c 0
 359 612 404 572 404 520 c 0
 404 490 391 468 358 446 c 1
EndSplineSet
EndChar
StartChar: acute
Encoding: 180 180
Width: 600
Flags: W
Fore
433 599 m 2
 319 499 l 2
 310 492 306 490 300 490 c 0
 289 490 280 499 280 511 c 0
 280 518 282 521 292 530 c 2
 406 630 l 2
 415 637 419 639 425 639 c 0
 436 639 445 630 445 618 c 0
 445 611 442 607 433 599 c 2
EndSplineSet
EndChar
StartChar: mu
Encoding: 181 181
Width: 600
Flags: W
HStem: -200 20 -16 40<237.5 290> 0 40<480 514> 377 40<70 124 365 439>
VStem: 43 122<390.5 404> 124 41<-173 16 88 115 115 377 377 377> 439 41<40 59 59 59 115 377 377 377> 439 102<13.5 27> 439 41 439 102
Fore
165 16 m 1
 165 -173 l 2
 165 -191 158 -200 144 -200 c 0
 131 -200 124 -191 124 -173 c 2
 124 377 l 1
 70 377 l 2
 52 377 43 384 43 397 c 0
 43 411 52 417 70 417 c 2
 165 417 l 1
 165 115 l 2
 165 61 202 24 256 24 c 0
 324 24 384 54 439 115 c 1
 439 377 l 1
 365 377 l 2
 346 377 337 384 337 397 c 0
 337 411 346 417 365 417 c 2
 480 417 l 1
 480 40 l 1
 514 40 l 2
 532 40 541 34 541 20 c 0
 541 7 532 0 514 0 c 2
 439 0 l 1
 439 59 l 1
 387 10 323 -16 258 -16 c 0
 217 -16 192 -8 165 16 c 1
EndSplineSet
EndChar
StartChar: paragraph
Encoding: 182 182
Width: 600
Flags: MW
HStem: -62 41<187 284 437 499> 563 41<325 397 325 325 437 498 437 437>
VStem: 79 70<406 414 414 451> 284 41<-21 260 260 260 307 558 558 558> 397 40<-21 563>
Fore
437 563 m 1
 437 -21 l 1
 499 -21 l 2
 516 -21 525 -28 525 -41 c 0
 525 -55 516 -62 499 -62 c 2
 401 -62 l 2
 386 -62 376 -54 376 -41 c 0
 376 -30 384 -22 397 -21 c 1
 397 563 l 1
 325 563 l 1
 325 -21 l 1
 338 -22 346 -30 346 -41 c 0
 346 -55 337 -62 321 -62 c 2
 187 -62 l 2
 171 -62 161 -54 161 -41 c 0
 161 -28 170 -21 187 -21 c 2
 284 -21 l 1
 284 260 l 1
 237 263 203 271 173 284 c 0
 115 310 79 357 79 406 c 2
 79 453 l 2
 79 543 168 604 298 604 c 2
 498 604 l 2
 514 604 523 596 523 584 c 0
 523 571 514 563 498 563 c 2
 437 563 l 1
284 307 m 1
 284 558 l 1
 207 550 149 504 149 451 c 2
 149 414 l 2
 149 361 207 315 284 307 c 1
EndSplineSet
EndChar
StartChar: periodcentered
Encoding: 183 183
Width: 600
Flags: W
Fore
295 348 m 2
 305 348 l 2
 344 348 374 320 374 283 c 0
 374 245 344 217 305 217 c 2
 295 217 l 2
 256 217 226 246 226 283 c 0
 226 320 256 348 295 348 c 2
EndSplineSet
EndChar
StartChar: cedilla
Encoding: 184 184
Width: 600
Flags: MW
HStem: -173 38<288.5 309> -81 81<274 294>
VStem: 274 38<-47 0> 340 37<-114.5 -97.5>
Fore
274 0 m 1
 312 0 l 1
 312 -47 l 1
 353 -48 377 -70 377 -108 c 0
 377 -147 345 -173 298 -173 c 0
 278 -173 247 -165 228 -155 c 0
 214 -148 210 -143 210 -133 c 0
 210 -122 219 -114 230 -114 c 0
 234 -114 237 -115 245 -119 c 0
 267 -131 281 -135 296 -135 c 0
 322 -135 340 -123 340 -106 c 0
 340 -89 325 -81 294 -81 c 2
 274 -81 l 1
 274 0 l 1
EndSplineSet
EndChar
StartChar: onesuperior
Encoding: 185 185
Width: 600
Flags: MW
HStem: 259 36<319 390>
VStem: 283 36<295 563 563 563>
Fore
319 612 m 1
 319 295 l 1
 390 295 l 2
 402 295 410 288 410 277 c 0
 410 266 402 259 390 259 c 2
 212 259 l 2
 199 259 191 266 191 277 c 0
 191 290 201 296 222 296 c 0
 230 296 261 296 283 295 c 1
 283 563 l 1
 218 542 l 2
 214 541 211 540 209 540 c 0
 201 540 192 549 192 558 c 0
 192 573 192 573 319 612 c 1
EndSplineSet
EndChar
StartChar: ordmasculine
Encoding: 186 186
Width: 600
Flags: MW
HStem: 284 37<271 331> 540 37<270.5 332>
VStem: 154 37<400.5 461> 411 37<399.5 460>
Fore
301 577 m 0
 383 577 448 512 448 429 c 0
 448 350 381 284 301 284 c 0
 220 284 154 350 154 431 c 0
 154 511 220 577 301 577 c 0
301 540 m 0
 240 540 191 491 191 431 c 0
 191 370 241 321 301 321 c 0
 361 321 411 370 411 429 c 0
 411 491 363 540 301 540 c 0
EndSplineSet
EndChar
StartChar: guillemotright
Encoding: 187 187
Width: 600
Flags: MW
HStem: 0 20 397 20<77.5 86 307.5 316>
Fore
311 208 m 1
 104 11 l 2
 96 3 90 0 83 0 c 0
 72 0 63 9 63 20 c 0
 63 27 64 29 74 40 c 2
 216 208 l 1
 74 377 l 2
 64 388 63 390 63 397 c 0
 63 408 72 417 83 417 c 0
 89 417 96 413 104 406 c 2
 311 208 l 1
541 208 m 1
 334 11 l 2
 326 3 320 0 313 0 c 0
 302 0 293 9 293 20 c 0
 293 27 294 29 304 40 c 2
 446 208 l 1
 304 377 l 2
 294 388 293 390 293 397 c 0
 293 408 302 417 313 417 c 0
 319 417 326 413 334 406 c 2
 541 208 l 1
EndSplineSet
EndChar
StartChar: onequarter
Encoding: 188 188
Width: 600
Flags: W
HStem: 0 36<489.5 510 546 559> 93 36<401 510 546 555> 259 36<144 215>
VStem: 108 36<295 563 563 563> 361 219<105 116.5> 510 36<36 93 129 309 309 309>
Fore
144 612 m 1
 144 295 l 1
 215 295 l 2
 228 295 236 288 236 277 c 0
 236 266 227 259 215 259 c 2
 37 259 l 2
 24 259 16 266 16 277 c 0
 16 290 26 296 47 296 c 0
 55 296 86 296 108 295 c 1
 108 563 l 1
 43 542 l 2
 39 541 36 540 34 540 c 0
 26 540 17 549 17 558 c 0
 17 573 17 573 144 612 c 1
492 477 m 1
 141 63 l 2
 133 53 129 51 123 51 c 0
 112 51 103 60 103 71 c 0
 103 75 106 81 112 88 c 2
 462 502 l 2
 471 512 474 514 480 514 c 0
 491 514 500 505 500 494 c 0
 500 490 496 483 492 477 c 1
510 93 m 1
 361 93 l 1
 361 127 l 1
 489 345 l 1
 546 345 l 1
 546 129 l 1
 559 129 l 2
 572 129 580 122 580 111 c 0
 580 99 571 93 555 93 c 2
 546 93 l 1
 546 36 l 1
 559 36 l 2
 572 36 580 29 580 18 c 0
 580 7 572 0 559 0 c 2
 474 0 l 2
 461 0 453 7 453 18 c 0
 453 25 458 32 464 35 c 0
 469 36 469 36 510 36 c 1
 510 93 l 1
510 129 m 1
 510 309 l 1
 508 309 l 1
 401 129 l 1
 510 129 l 1
EndSplineSet
EndChar
StartChar: onehalf
Encoding: 189 189
Width: 600
Flags: W
HStem: 0 36<387 537> 259 36<151 222> 317 36<446 482>
VStem: 115 36<295 563 563 563> 343 230<0 39> 535 36<241 269.5>
Fore
485 477 m 1
 134 63 l 2
 126 53 122 51 116 51 c 0
 105 51 96 60 96 71 c 0
 96 75 99 81 105 88 c 2
 455 502 l 2
 464 512 467 514 473 514 c 0
 484 514 493 505 493 494 c 0
 493 490 489 483 485 477 c 1
151 612 m 1
 151 295 l 1
 222 295 l 2
 234 295 242 288 242 277 c 0
 242 266 234 259 222 259 c 2
 44 259 l 2
 31 259 23 266 23 277 c 0
 23 290 33 296 54 296 c 0
 62 296 93 296 115 295 c 1
 115 563 l 1
 50 542 l 2
 46 541 43 540 41 540 c 0
 33 540 24 549 24 558 c 0
 24 573 24 573 151 612 c 1
387 36 m 1
 537 36 l 1
 537 39 l 2
 537 51 544 59 555 59 c 0
 566 59 573 51 573 39 c 2
 573 0 l 1
 343 0 l 1
 343 43 l 1
 391 86 432 125 475 166 c 1
 525 216 535 230 535 252 c 0
 535 287 501 317 463 317 c 0
 429 317 398 296 389 265 c 0
 386 254 380 249 371 249 c 0
 362 249 354 257 354 266 c 0
 354 277 362 295 373 309 c 0
 395 337 428 353 463 353 c 0
 521 353 571 306 571 252 c 0
 571 209 554 189 387 36 c 1
EndSplineSet
EndChar
StartChar: threequarters
Encoding: 190 190
Width: 600
Flags: W
HStem: 0 36<489.5 510 546 559> 93 36<401 510 546 555> 251 36<105 143> 576 36<110.5 144.5>
VStem: 193 36<505 536> 205 36<339 376> 361 219<105 116.5> 510 36<36 93 129 309 309 309>
Fore
183 446 m 1
 222 422 241 394 241 358 c 0
 241 299 186 251 120 251 c 0
 70 251 6 281 6 304 c 0
 6 313 14 321 23 321 c 0
 28 321 31 320 36 316 c 0
 66 295 90 287 120 287 c 0
 166 287 205 320 205 358 c 0
 205 398 166 430 113 431 c 0
 100 432 92 438 92 449 c 0
 92 455 95 461 101 465 c 0
 104 467 104 467 129 467 c 0
 166 467 193 490 193 520 c 0
 193 552 164 576 125 576 c 0
 96 576 71 566 56 549 c 0
 50 541 46 539 40 539 c 0
 30 539 22 547 22 556 c 0
 22 581 79 612 125 612 c 0
 184 612 229 572 229 520 c 0
 229 490 216 468 183 446 c 1
491 477 m 1
 140 63 l 2
 132 53 128 51 122 51 c 0
 111 51 102 60 102 71 c 0
 102 76 104 80 111 88 c 2
 461 502 l 2
 470 512 473 514 479 514 c 0
 490 514 499 505 499 494 c 0
 499 490 495 483 491 477 c 1
510 93 m 1
 361 93 l 1
 361 127 l 1
 489 345 l 1
 546 345 l 1
 546 129 l 1
 559 129 l 2
 572 129 580 122 580 111 c 0
 580 99 571 93 555 93 c 2
 546 93 l 1
 546 36 l 1
 559 36 l 2
 572 36 580 29 580 18 c 0
 580 7 572 0 559 0 c 2
 474 0 l 2
 461 0 453 7 453 18 c 0
 453 25 458 32 464 35 c 0
 469 36 469 36 510 36 c 1
 510 93 l 1
510 129 m 1
 510 309 l 1
 508 309 l 1
 401 129 l 1
 510 129 l 1
EndSplineSet
EndChar
StartChar: questiondown
Encoding: 191 191
Width: 600
Flags: MW
HStem: -175 41<254.5 316.5> 317 100<286 313>
VStem: 113 41<-54 7.5> 278 41<155 196> 425 41<-100 -59>
Fore
278 155 m 1
 278 196 l 2
 278 214 285 223 298 223 c 0
 312 223 319 214 319 196 c 2
 319 128 l 1
 203 80 154 36 154 -21 c 0
 154 -87 213 -134 296 -134 c 0
 341 -134 372 -126 425 -100 c 1
 425 -59 l 2
 425 -41 432 -32 445 -32 c 0
 459 -32 466 -41 466 -59 c 2
 466 -126 l 1
 456 -131 448 -134 437 -139 c 0
 374 -167 342 -175 291 -175 c 0
 185 -175 113 -113 113 -21 c 0
 113 53 153 96 278 155 c 1
313 317 m 2
 286 317 l 2
 252 317 229 338 229 367 c 0
 229 396 252 417 286 417 c 2
 313 417 l 2
 347 417 370 397 370 367 c 0
 370 337 347 317 313 317 c 2
EndSplineSet
EndChar
StartChar: Agrave
Encoding: 192 192
Width: 600
Flags: MW
HStem: 0 41<36 67 108 187 408 484 527 564> 188 41<178 413> 522 41<126 246 286 286 286 301>
Fore
428 188 m 1
 162 188 l 1
 108 41 l 1
 187 41 l 2
 205 41 214 34 214 21 c 0
 214 7 205 0 187 0 c 2
 36 0 l 2
 18 0 9 7 9 21 c 0
 9 34 18 41 36 41 c 2
 67 41 l 1
 246 522 l 1
 126 522 l 2
 108 522 99 529 99 543 c 0
 99 556 108 563 126 563 c 2
 330 563 l 1
 527 41 l 1
 564 41 l 2
 582 41 591 34 591 21 c 0
 591 7 582 0 564 0 c 2
 408 0 l 2
 390 0 381 7 381 21 c 0
 381 34 390 41 408 41 c 2
 484 41 l 1
 428 188 l 1
413 229 m 1
 301 522 l 1
 286 522 l 1
 178 229 l 1
 413 229 l 1
204 780 m 2
 318 680 l 1
 325 672 l 2
 330 667 330 667 330 661 c 0
 330 649 321 640 309 640 c 0
 304 640 298 643 291 649 c 2
 177 749 l 2
 168 757 165 761 165 769 c 0
 165 780 174 789 185 789 c 0
 191 789 196 786 204 780 c 2
EndSplineSet
EndChar
StartChar: Aacute
Encoding: 193 193
Width: 600
Flags: MW
HStem: 0 41<36 67 108 187 408 484 527 564> 188 41<178 413> 522 41<126 246 286 286 286 301>
Fore
428 188 m 1
 162 188 l 1
 108 41 l 1
 187 41 l 2
 205 41 214 34 214 21 c 0
 214 7 205 0 187 0 c 2
 36 0 l 2
 18 0 9 7 9 21 c 0
 9 34 18 41 36 41 c 2
 67 41 l 1
 246 522 l 1
 126 522 l 2
 108 522 99 529 99 543 c 0
 99 556 108 563 126 563 c 2
 330 563 l 1
 527 41 l 1
 564 41 l 2
 582 41 591 34 591 21 c 0
 591 7 582 0 564 0 c 2
 408 0 l 2
 390 0 381 7 381 21 c 0
 381 34 390 41 408 41 c 2
 484 41 l 1
 428 188 l 1
413 229 m 1
 301 522 l 1
 286 522 l 1
 178 229 l 1
 413 229 l 1
371 749 m 2
 257 649 l 2
 248 642 244 640 238 640 c 0
 227 640 218 649 218 661 c 0
 218 668 220 671 230 680 c 2
 344 780 l 2
 353 787 357 789 363 789 c 0
 374 789 383 780 383 768 c 0
 383 761 380 757 371 749 c 2
EndSplineSet
EndChar
StartChar: Acircumflex
Encoding: 194 194
Width: 600
Flags: MW
HStem: 0 41<36 67 108 187 408 484 527 564> 188 41<178 413> 522 41<126 246 286 286 286 301>
Fore
428 188 m 1
 162 188 l 1
 108 41 l 1
 187 41 l 2
 205 41 214 34 214 21 c 0
 214 7 205 0 187 0 c 2
 36 0 l 2
 18 0 9 7 9 21 c 0
 9 34 18 41 36 41 c 2
 67 41 l 1
 246 522 l 1
 126 522 l 2
 108 522 99 529 99 543 c 0
 99 556 108 563 126 563 c 2
 330 563 l 1
 527 41 l 1
 564 41 l 2
 582 41 591 34 591 21 c 0
 591 7 582 0 564 0 c 2
 408 0 l 2
 390 0 381 7 381 21 c 0
 381 34 390 41 408 41 c 2
 484 41 l 1
 428 188 l 1
413 229 m 1
 301 522 l 1
 286 522 l 1
 178 229 l 1
 413 229 l 1
273 789 m 1
 405 681 l 2
 416 672 418 668 418 660 c 0
 418 649 409 640 398 640 c 0
 393 640 387 643 380 648 c 2
 273 736 l 1
 166 648 l 2
 159 643 153 640 148 640 c 0
 137 640 128 649 128 660 c 0
 128 668 131 673 141 680 c 1
 273 789 l 1
EndSplineSet
EndChar
StartChar: Atilde
Encoding: 195 195
Width: 600
Flags: W
HStem: 0 41<36 67 108 187 408 484 527 564> 188 41<178 413> 522 41<126 246 286 286 286 301> 666 41<328.5 343.5> 714 41<203 219>
Fore
428 188 m 1
 162 188 l 1
 108 41 l 1
 187 41 l 2
 205 41 214 34 214 21 c 0
 214 7 205 0 187 0 c 2
 36 0 l 2
 18 0 9 7 9 21 c 0
 9 34 18 41 36 41 c 2
 67 41 l 1
 246 522 l 1
 126 522 l 2
 108 522 99 529 99 543 c 0
 99 556 108 563 126 563 c 2
 330 563 l 1
 527 41 l 1
 564 41 l 2
 582 41 591 34 591 21 c 0
 591 7 582 0 564 0 c 2
 408 0 l 2
 390 0 381 7 381 21 c 0
 381 34 390 41 408 41 c 2
 484 41 l 1
 428 188 l 1
413 229 m 1
 301 522 l 1
 286 522 l 1
 178 229 l 1
 413 229 l 1
408 753 m 0
 418 753 428 744 428 733 c 0
 428 725 424 719 406 702 c 0
 380 676 360 666 337 666 c 0
 315 666 296 673 256 697 c 0
 236 710 225 714 213 714 c 0
 193 714 184 708 155 677 c 0
 151 672 144 669 138 669 c 0
 127 669 118 677 118 688 c 0
 118 696 124 705 137 718 c 0
 166 745 187 755 212 755 c 0
 232 755 244 751 276 732 c 0
 314 711 322 707 335 707 c 0
 352 707 362 714 392 745 c 0
 398 751 402 753 408 753 c 0
EndSplineSet
EndChar
StartChar: Adieresis
Encoding: 196 196
Width: 600
Flags: W
HStem: 0 41<36 67 108 187 408 484 527 564> 188 41<178 413> 522 41<126 246 286 286 286 301>
VStem: 9 100 230 100
Fore
428 188 m 1
 162 188 l 1
 108 41 l 1
 187 41 l 2
 205 41 214 34 214 21 c 0
 214 7 205 0 187 0 c 2
 36 0 l 2
 18 0 9 7 9 21 c 0
 9 34 18 41 36 41 c 2
 67 41 l 1
 246 522 l 1
 126 522 l 2
 108 522 99 529 99 543 c 0
 99 556 108 563 126 563 c 2
 330 563 l 1
 527 41 l 1
 564 41 l 2
 582 41 591 34 591 21 c 0
 591 7 582 0 564 0 c 2
 408 0 l 2
 390 0 381 7 381 21 c 0
 381 34 390 41 408 41 c 2
 484 41 l 1
 428 188 l 1
413 229 m 1
 301 522 l 1
 286 522 l 1
 178 229 l 1
 413 229 l 1
162 761 m 0
 190 761 212 738 212 710 c 0
 212 684 189 661 162 661 c 0
 135 661 112 684 112 711 c 0
 112 738 135 761 162 761 c 0
383 761 m 0
 411 761 433 738 433 710 c 0
 433 684 410 661 383 661 c 0
 356 661 333 684 333 711 c 0
 333 738 356 761 383 761 c 0
EndSplineSet
EndChar
StartChar: Aring
Encoding: 197 197
Width: 600
Flags: W
HStem: 0 41<36 67 108 187 408 484 527 564> 188 41<178 413> 522 41<126 246 286 286 286 301> 630 33<260.5 293.5> 778 33<260.5 293.5>
VStem: 9 33 162 33
Fore
428 188 m 1
 162 188 l 1
 108 41 l 1
 187 41 l 2
 205 41 214 34 214 21 c 0
 214 7 205 0 187 0 c 2
 36 0 l 2
 18 0 9 7 9 21 c 0
 9 34 18 41 36 41 c 2
 67 41 l 1
 246 522 l 1
 126 522 l 2
 108 522 99 529 99 543 c 0
 99 556 108 563 126 563 c 2
 330 563 l 1
 527 41 l 1
 564 41 l 2
 582 41 591 34 591 21 c 0
 591 7 582 0 564 0 c 2
 408 0 l 2
 390 0 381 7 381 21 c 0
 381 34 390 41 408 41 c 2
 484 41 l 1
 428 188 l 1
413 229 m 1
 301 522 l 1
 286 522 l 1
 178 229 l 1
 413 229 l 1
277 811 m 4
 329 811 370 771 370 719 c 4
 370 671 328 630 277 630 c 4
 226 630 184 671 184 721 c 4
 184 770 226 811 277 811 c 4
277 778 m 4
 244 778 217 752 217 721 c 4
 217 689 244 663 277 663 c 4
 310 663 337 689 337 720 c 4
 337 752 310 778 277 778 c 4
EndSplineSet
EndChar
StartChar: AE
Encoding: 198 198
Width: 600
Flags: W
HStem: 0 41<37 74 115 141 245 297 338 549> 189 41<167 297> 273 41<338 416> 522 41<144 207 247 247 247 297 338 338 338 529>
VStem: 297 41<41 189 189 189 230 273 314 522> 416 40<246 273 273 273 314 342> 529 41<411 522 522 522> 549 41<41 134>
Fore
297 189 m 1
 156 189 l 1
 115 41 l 1
 141 41 l 2
 159 41 168 34 168 21 c 0
 168 7 159 0 141 0 c 2
 37 0 l 2
 19 0 10 7 10 21 c 0
 10 34 19 41 37 41 c 2
 74 41 l 1
 207 522 l 1
 144 522 l 2
 126 522 117 529 117 543 c 0
 117 556 126 563 144 563 c 2
 570 563 l 1
 570 411 l 2
 570 393 563 384 549 384 c 0
 536 384 529 393 529 411 c 2
 529 522 l 1
 338 522 l 1
 338 314 l 1
 416 314 l 1
 416 342 l 2
 416 360 423 369 436 369 c 0
 450 369 456 360 456 342 c 2
 456 246 l 2
 456 228 449 219 436 219 c 0
 423 219 416 229 416 246 c 2
 416 273 l 1
 338 273 l 1
 338 41 l 1
 549 41 l 1
 549 134 l 2
 549 153 555 160 569 160 c 0
 582 160 590 149 590 134 c 2
 590 0 l 1
 245 0 l 2
 227 0 218 7 218 21 c 0
 218 34 227 41 245 41 c 2
 297 41 l 1
 297 189 l 1
297 230 m 1
 297 522 l 1
 247 522 l 1
 167 230 l 1
 297 230 l 1
EndSplineSet
EndChar
StartChar: Ccedilla
Encoding: 199 199
Width: 600
Flags: W
HStem: -173 38<293.5 314> -16 41<317 317 317 330> 397 20 535 41<271.5 338> 543 20<492 505.5>
VStem: 63 41<242 248 248 319> 279 38<-47 -16> 345 37<-114.5 -97.5> 478 41<507 536>
Fore
317 -16 m 1
 317 -47 l 1
 358 -48 382 -70 382 -108 c 0
 382 -147 350 -173 303 -173 c 0
 283 -173 252 -165 233 -155 c 0
 219 -148 215 -143 215 -133 c 0
 215 -122 224 -114 235 -114 c 0
 238 -114 242 -115 250 -119 c 0
 273 -131 286 -135 301 -135 c 0
 327 -135 345 -123 345 -106 c 0
 345 -89 330 -81 299 -81 c 2
 279 -81 l 1
 279 -12 l 1
 235 -1 211 8 183 28 c 0
 110 78 63 161 63 242 c 2
 63 325 l 2
 63 386 91 456 134 502 c 0
 179 550 238 576 305 576 c 0
 371 576 431 552 478 507 c 1
 478 536 l 2
 478 554 485 563 499 563 c 0
 512 563 519 554 519 536 c 2
 519 424 l 2
 519 406 512 397 498 397 c 0
 486 397 479 405 478 421 c 0
 474 482 394 535 305 535 c 0
 194 535 104 438 104 319 c 2
 104 248 l 2
 104 128 204 25 322 25 c 0
 391 25 442 51 496 115 c 0
 503 123 507 125 514 125 c 0
 526 125 534 117 534 106 c 0
 534 96 522 79 496 55 c 0
 450 12 385 -16 330 -16 c 2
 317 -16 l 1
EndSplineSet
EndChar
StartChar: Egrave
Encoding: 200 200
Width: 600
Flags: W
HStem: 0 41<70 124 165 479> 272 41<165 310> 397 20 522 41<70 124 165 165 165 458>
VStem: 124 41<41 272 313 522> 310 41<227 272 272 272 313 358> 458 41<424 522 522 522> 479 41<41 160>
Fore
165 272 m 1
 165 41 l 1
 479 41 l 1
 479 160 l 2
 479 178 486 187 500 187 c 0
 513 187 520 178 520 160 c 2
 520 0 l 1
 70 0 l 2
 52 0 43 7 43 21 c 0
 43 34 52 41 70 41 c 2
 124 41 l 1
 124 522 l 1
 70 522 l 2
 52 522 43 529 43 543 c 0
 43 556 52 563 70 563 c 2
 499 563 l 1
 499 424 l 2
 499 406 492 397 478 397 c 0
 465 397 458 406 458 424 c 2
 458 522 l 1
 165 522 l 1
 165 313 l 1
 310 313 l 1
 310 358 l 2
 310 376 317 385 331 385 c 0
 344 385 351 376 351 358 c 2
 351 227 l 2
 351 209 344 200 331 200 c 0
 317 200 310 209 310 227 c 2
 310 272 l 1
 165 272 l 1
215 780 m 2
 329 680 l 1
 336 672 l 2
 341 667 341 667 341 661 c 0
 341 649 332 640 320 640 c 0
 315 640 309 643 302 649 c 2
 188 749 l 2
 179 757 176 761 176 769 c 0
 176 780 185 789 196 789 c 0
 202 789 207 786 215 780 c 2
EndSplineSet
EndChar
StartChar: Eacute
Encoding: 201 201
Width: 600
Flags: W
HStem: 0 41<70 124 165 479> 272 41<165 310> 397 20 522 41<70 124 165 165 165 458>
VStem: 124 41<41 272 313 522> 310 41<227 272 272 272 313 358> 458 41<424 522 522 522> 479 41<41 160>
Fore
165 272 m 1
 165 41 l 1
 479 41 l 1
 479 160 l 2
 479 178 486 187 500 187 c 0
 513 187 520 178 520 160 c 2
 520 0 l 1
 70 0 l 2
 52 0 43 7 43 21 c 0
 43 34 52 41 70 41 c 2
 124 41 l 1
 124 522 l 1
 70 522 l 2
 52 522 43 529 43 543 c 0
 43 556 52 563 70 563 c 2
 499 563 l 1
 499 424 l 2
 499 406 492 397 478 397 c 0
 465 397 458 406 458 424 c 2
 458 522 l 1
 165 522 l 1
 165 313 l 1
 310 313 l 1
 310 358 l 2
 310 376 317 385 331 385 c 0
 344 385 351 376 351 358 c 2
 351 227 l 2
 351 209 344 200 331 200 c 0
 317 200 310 209 310 227 c 2
 310 272 l 1
 165 272 l 1
389 749 m 2
 275 649 l 2
 266 642 262 640 256 640 c 0
 245 640 236 649 236 661 c 0
 236 668 238 671 248 680 c 2
 362 780 l 2
 371 787 375 789 381 789 c 0
 392 789 401 780 401 768 c 0
 401 761 398 757 389 749 c 2
EndSplineSet
EndChar
StartChar: Ecircumflex
Encoding: 202 202
Width: 600
Flags: W
HStem: 0 41<70 124 165 479> 272 41<165 310> 397 20 522 41<70 124 165 165 165 458>
VStem: 124 41<41 272 313 522> 310 41<227 272 272 272 313 358> 458 41<424 522 522 522> 479 41<41 160>
Fore
165 272 m 1
 165 41 l 1
 479 41 l 1
 479 160 l 2
 479 178 486 187 500 187 c 0
 513 187 520 178 520 160 c 2
 520 0 l 1
 70 0 l 2
 52 0 43 7 43 21 c 0
 43 34 52 41 70 41 c 2
 124 41 l 1
 124 522 l 1
 70 522 l 2
 52 522 43 529 43 543 c 0
 43 556 52 563 70 563 c 2
 499 563 l 1
 499 424 l 2
 499 406 492 397 478 397 c 0
 465 397 458 406 458 424 c 2
 458 522 l 1
 165 522 l 1
 165 313 l 1
 310 313 l 1
 310 358 l 2
 310 376 317 385 331 385 c 0
 344 385 351 376 351 358 c 2
 351 227 l 2
 351 209 344 200 331 200 c 0
 317 200 310 209 310 227 c 2
 310 272 l 1
 165 272 l 1
291 789 m 1
 423 681 l 2
 434 672 436 668 436 660 c 0
 436 649 427 640 416 640 c 0
 411 640 405 643 398 648 c 2
 291 736 l 1
 184 648 l 2
 177 643 171 640 166 640 c 0
 155 640 146 649 146 660 c 0
 146 668 149 673 159 680 c 1
 291 789 l 1
EndSplineSet
EndChar
StartChar: Edieresis
Encoding: 203 203
Width: 600
Flags: W
HStem: 0 41<70 124 165 479> 272 41<165 310> 397 20 522 41<70 124 165 165 165 458>
VStem: 43 100 124 41<41 272 313 522> 264 100 310 41<227 272 272 272 313 358> 458 41<424 522 522 522> 479 41<41 160>
Fore
165 272 m 1
 165 41 l 1
 479 41 l 1
 479 160 l 2
 479 178 486 187 500 187 c 0
 513 187 520 178 520 160 c 2
 520 0 l 1
 70 0 l 2
 52 0 43 7 43 21 c 0
 43 34 52 41 70 41 c 2
 124 41 l 1
 124 522 l 1
 70 522 l 2
 52 522 43 529 43 543 c 0
 43 556 52 563 70 563 c 2
 499 563 l 1
 499 424 l 2
 499 406 492 397 478 397 c 0
 465 397 458 406 458 424 c 2
 458 522 l 1
 165 522 l 1
 165 313 l 1
 310 313 l 1
 310 358 l 2
 310 376 317 385 331 385 c 0
 344 385 351 376 351 358 c 2
 351 227 l 2
 351 209 344 200 331 200 c 0
 317 200 310 209 310 227 c 2
 310 272 l 1
 165 272 l 1
181 761 m 0
 209 761 231 738 231 710 c 0
 231 684 208 661 181 661 c 0
 154 661 131 684 131 711 c 0
 131 738 154 761 181 761 c 0
402 761 m 0
 430 761 452 738 452 710 c 0
 452 684 429 661 402 661 c 0
 375 661 352 684 352 711 c 0
 352 738 375 761 402 761 c 0
EndSplineSet
EndChar
StartChar: Igrave
Encoding: 204 204
Width: 600
Flags: MW
HStem: 0 41<140 279 320 459> 522 41<140 279 320 459 320 320>
VStem: 279 41<41 522>
Fore
320 522 m 1
 320 41 l 1
 459 41 l 2
 478 41 487 34 487 21 c 0
 487 7 477 0 459 0 c 2
 140 0 l 2
 122 0 113 7 113 21 c 0
 113 34 122 41 140 41 c 2
 279 41 l 1
 279 522 l 1
 140 522 l 2
 122 522 113 529 113 543 c 0
 113 556 122 563 140 563 c 2
 459 563 l 2
 478 563 487 556 487 543 c 0
 487 529 478 522 459 522 c 2
 320 522 l 1
230 780 m 2
 344 680 l 1
 351 672 l 2
 356 667 356 667 356 661 c 0
 356 649 347 640 335 640 c 0
 330 640 324 643 317 649 c 2
 203 749 l 2
 194 757 191 761 191 769 c 0
 191 780 200 789 211 789 c 0
 217 789 222 786 230 780 c 2
EndSplineSet
EndChar
StartChar: Iacute
Encoding: 205 205
Width: 600
Flags: MW
HStem: 0 41<140 279 320 459> 522 41<140 279 320 459 320 320>
VStem: 279 41<41 522>
Fore
320 522 m 1
 320 41 l 1
 459 41 l 2
 478 41 487 34 487 21 c 0
 487 7 477 0 459 0 c 2
 140 0 l 2
 122 0 113 7 113 21 c 0
 113 34 122 41 140 41 c 2
 279 41 l 1
 279 522 l 1
 140 522 l 2
 122 522 113 529 113 543 c 0
 113 556 122 563 140 563 c 2
 459 563 l 2
 478 563 487 556 487 543 c 0
 487 529 478 522 459 522 c 2
 320 522 l 1
433 749 m 2
 319 649 l 2
 310 642 306 640 300 640 c 0
 289 640 280 649 280 661 c 0
 280 668 282 671 292 680 c 2
 406 780 l 2
 415 787 419 789 425 789 c 0
 436 789 445 780 445 768 c 0
 445 761 442 757 433 749 c 2
EndSplineSet
EndChar
StartChar: Icircumflex
Encoding: 206 206
Width: 600
Flags: MW
HStem: 0 41<140 279 320 459> 522 41<140 279 320 459 320 320>
VStem: 279 41<41 522>
Fore
320 522 m 1
 320 41 l 1
 459 41 l 2
 478 41 487 34 487 21 c 0
 487 7 477 0 459 0 c 2
 140 0 l 2
 122 0 113 7 113 21 c 0
 113 34 122 41 140 41 c 2
 279 41 l 1
 279 522 l 1
 140 522 l 2
 122 522 113 529 113 543 c 0
 113 556 122 563 140 563 c 2
 459 563 l 2
 478 563 487 556 487 543 c 0
 487 529 478 522 459 522 c 2
 320 522 l 1
300 789 m 1
 432 681 l 2
 443 672 445 668 445 660 c 0
 445 649 436 640 425 640 c 0
 420 640 414 643 407 648 c 2
 300 736 l 1
 193 648 l 2
 186 643 180 640 175 640 c 0
 164 640 155 649 155 660 c 0
 155 668 158 673 168 680 c 1
 300 789 l 1
EndSplineSet
EndChar
StartChar: Idieresis
Encoding: 207 207
Width: 600
Flags: MW
HStem: 0 41<140 279 320 459> 522 41<140 279 320 459 320 320> 661 100<175.5 202.5 397.5 424.5>
VStem: 139 100<697.5 724> 279 41<41 522> 361 100<697.5 724>
Fore
320 522 m 1
 320 41 l 1
 459 41 l 2
 478 41 487 34 487 21 c 0
 487 7 477 0 459 0 c 2
 140 0 l 2
 122 0 113 7 113 21 c 0
 113 34 122 41 140 41 c 2
 279 41 l 1
 279 522 l 1
 140 522 l 2
 122 522 113 529 113 543 c 0
 113 556 122 563 140 563 c 2
 459 563 l 2
 478 563 487 556 487 543 c 0
 487 529 478 522 459 522 c 2
 320 522 l 1
189 761 m 0
 217 761 239 738 239 710 c 0
 239 684 216 661 189 661 c 0
 162 661 139 684 139 711 c 0
 139 738 162 761 189 761 c 0
411 761 m 0
 439 761 461 738 461 710 c 0
 461 684 438 661 411 661 c 0
 384 661 361 684 361 711 c 0
 361 738 384 761 411 761 c 0
EndSplineSet
EndChar
StartChar: Eth
Encoding: 208 208
Width: 600
Flags: MW
HStem: 0 41<70 104 145 290> 272 41<27 104 145 307> 522 41<70 104 145 288 145 145>
VStem: 104 41<41 272 313 522> 479 41<245 254 254 310>
Fore
104 272 m 1
 27 272 l 2
 9 272 0 279 0 293 c 0
 0 306 9 313 27 313 c 2
 104 313 l 1
 104 522 l 1
 70 522 l 2
 52 522 43 529 43 543 c 0
 43 556 52 563 70 563 c 2
 290 563 l 2
 416 563 520 448 520 310 c 2
 520 254 l 2
 520 115 416 0 290 0 c 2
 70 0 l 2
 52 0 43 7 43 21 c 0
 43 34 52 41 70 41 c 2
 104 41 l 1
 104 272 l 1
145 522 m 1
 145 313 l 1
 307 313 l 2
 325 313 334 306 334 293 c 0
 334 279 325 272 307 272 c 2
 145 272 l 1
 145 41 l 1
 295 41 l 2
 389 41 479 140 479 245 c 2
 479 319 l 2
 479 371 454 431 414 472 c 0
 379 507 342 522 288 522 c 2
 145 522 l 1
EndSplineSet
EndChar
StartChar: Ntilde
Encoding: 209 209
Width: 600
Flags: W
HStem: 0 41<69 103 144 219> 522 41<49 103 386 460 501 501 501 535> 666 41<353.5 368.5> 714 41<228 244>
VStem: 103 41<41 504> 460 41<59 522>
Fore
501 0 m 1
 449 0 l 1
 144 504 l 1
 144 41 l 1
 219 41 l 2
 237 41 246 34 246 21 c 0
 246 7 236 0 219 0 c 2
 69 0 l 2
 51 0 42 7 42 21 c 0
 42 34 51 41 69 41 c 2
 103 41 l 1
 103 522 l 1
 49 522 l 2
 31 522 22 529 22 543 c 0
 22 556 31 563 49 563 c 2
 155 563 l 1
 460 59 l 1
 460 522 l 1
 386 522 l 2
 367 522 358 529 358 543 c 0
 358 556 367 563 386 563 c 2
 535 563 l 2
 553 563 562 556 562 543 c 0
 562 529 553 522 535 522 c 2
 501 522 l 1
 501 0 l 1
433 753 m 0
 443 753 453 744 453 733 c 0
 453 725 449 719 431 702 c 0
 405 676 385 666 362 666 c 0
 340 666 321 673 281 697 c 0
 261 710 250 714 238 714 c 0
 218 714 209 708 180 677 c 0
 176 672 169 669 163 669 c 0
 152 669 143 677 143 688 c 0
 143 696 149 705 162 718 c 0
 191 745 212 755 237 755 c 0
 257 755 269 751 301 732 c 0
 339 711 347 707 360 707 c 0
 377 707 387 714 417 745 c 0
 423 751 427 753 433 753 c 0
EndSplineSet
EndChar
StartChar: Ograve
Encoding: 210 210
Width: 600
Flags: MW
HStem: -16 41<243 356.5> 535 41<242.5 358>
VStem: 51 41<210 350> 508 41<208.5 349>
Fore
300 576 m 0
 441 576 549 446 549 276 c 0
 549 115 437 -16 300 -16 c 0
 161 -16 51 115 51 280 c 0
 51 445 161 576 300 576 c 0
300 535 m 0
 185 535 92 420 92 280 c 0
 92 140 186 25 300 25 c 0
 413 25 508 140 508 277 c 0
 508 421 416 535 300 535 c 0
224 780 m 2
 338 680 l 1
 345 672 l 2
 350 667 350 667 350 661 c 0
 350 649 341 640 329 640 c 0
 324 640 318 643 311 649 c 2
 197 749 l 2
 188 757 185 761 185 769 c 0
 185 780 194 789 205 789 c 0
 211 789 216 786 224 780 c 2
EndSplineSet
EndChar
StartChar: Oacute
Encoding: 211 211
Width: 600
Flags: MW
HStem: -16 41<243 356.5> 535 41<242.5 358>
VStem: 51 41<210 350> 508 41<208.5 349>
Fore
300 576 m 0
 441 576 549 446 549 276 c 0
 549 115 437 -16 300 -16 c 0
 161 -16 51 115 51 280 c 0
 51 445 161 576 300 576 c 0
300 535 m 0
 185 535 92 420 92 280 c 0
 92 140 186 25 300 25 c 0
 413 25 508 140 508 277 c 0
 508 421 416 535 300 535 c 0
404 749 m 2
 290 649 l 2
 281 642 277 640 271 640 c 0
 260 640 251 649 251 661 c 0
 251 668 253 671 263 680 c 2
 377 780 l 2
 386 787 390 789 396 789 c 0
 407 789 416 780 416 768 c 0
 416 761 413 757 404 749 c 2
EndSplineSet
EndChar
StartChar: Ocircumflex
Encoding: 212 212
Width: 600
Flags: MW
HStem: -16 41<243 356.5> 535 41<242.5 358>
VStem: 51 41<210 350> 508 41<208.5 349>
Fore
300 576 m 0
 441 576 549 446 549 276 c 0
 549 115 437 -16 300 -16 c 0
 161 -16 51 115 51 280 c 0
 51 445 161 576 300 576 c 0
300 535 m 0
 185 535 92 420 92 280 c 0
 92 140 186 25 300 25 c 0
 413 25 508 140 508 277 c 0
 508 421 416 535 300 535 c 0
300 789 m 1
 432 681 l 2
 443 672 445 668 445 660 c 0
 445 649 436 640 425 640 c 0
 420 640 414 643 407 648 c 2
 300 736 l 1
 193 648 l 2
 186 643 180 640 175 640 c 0
 164 640 155 649 155 660 c 0
 155 668 158 673 168 680 c 1
 300 789 l 1
EndSplineSet
EndChar
StartChar: Otilde
Encoding: 213 213
Width: 600
Flags: W
HStem: -16 41<243 356.5> 535 41<242.5 358> 666 41<361.5 376.5> 714 41<236 252>
VStem: 51 41<210 350> 508 41<208.5 349>
Fore
300 576 m 0
 441 576 549 446 549 276 c 0
 549 115 437 -16 300 -16 c 0
 161 -16 51 115 51 280 c 0
 51 445 161 576 300 576 c 0
300 535 m 0
 185 535 92 420 92 280 c 0
 92 140 186 25 300 25 c 0
 413 25 508 140 508 277 c 0
 508 421 416 535 300 535 c 0
441 753 m 0
 451 753 461 744 461 733 c 0
 461 725 457 719 439 702 c 0
 413 676 393 666 370 666 c 0
 348 666 329 673 289 697 c 0
 269 710 258 714 246 714 c 0
 226 714 217 708 188 677 c 0
 184 672 177 669 171 669 c 0
 160 669 151 677 151 688 c 0
 151 696 157 705 170 718 c 0
 199 745 220 755 245 755 c 0
 265 755 277 751 309 732 c 0
 347 711 355 707 368 707 c 0
 385 707 395 714 425 745 c 0
 431 751 435 753 441 753 c 0
EndSplineSet
EndChar
StartChar: Odieresis
Encoding: 214 214
Width: 600
Flags: W
HStem: -16 41<243 356.5> 535 41<242.5 358>
VStem: 51 41<210 350> 51 100 272 100 508 41<208.5 349>
Fore
300 576 m 0
 441 576 549 446 549 276 c 0
 549 115 437 -16 300 -16 c 0
 161 -16 51 115 51 280 c 0
 51 445 161 576 300 576 c 0
300 535 m 0
 185 535 92 420 92 280 c 0
 92 140 186 25 300 25 c 0
 413 25 508 140 508 277 c 0
 508 421 416 535 300 535 c 0
189 761 m 0
 217 761 239 738 239 710 c 0
 239 684 216 661 189 661 c 0
 162 661 139 684 139 711 c 0
 139 738 162 761 189 761 c 0
410 761 m 0
 438 761 460 738 460 710 c 0
 460 684 437 661 410 661 c 0
 383 661 360 684 360 711 c 0
 360 738 383 761 410 761 c 0
EndSplineSet
EndChar
StartChar: multiply
Encoding: 215 215
Width: 600
Flags: W
Fore
300 311 m 1
 442 453 l 2
 451 462 455 464 461 464 c 0
 472 464 482 455 482 443 c 0
 482 437 479 432 471 424 c 2
 329 282 l 1
 471 139 l 1
 480 131 482 127 482 120 c 0
 482 109 473 100 461 100 c 0
 455 100 450 102 442 110 c 2
 300 253 l 1
 158 110 l 1
 150 103 145 100 139 100 c 0
 127 100 118 109 118 120 c 0
 118 127 121 132 128 139 c 2
 271 282 l 1
 128 424 l 1
 121 432 118 437 118 443 c 0
 118 455 127 464 139 464 c 0
 145 464 149 461 157 453 c 2
 300 311 l 1
EndSplineSet
EndChar
StartChar: Oslash
Encoding: 216 216
Width: 600
Flags: MW
HStem: -16 41<275.5 357> 535 41<242.5 324.5>
VStem: 51 41<249 350> 508 41<210 311.5>
Fore
141 51 m 1
 76 -31 l 2
 69 -40 64 -43 58 -43 c 0
 48 -43 40 -35 40 -25 c 0
 40 -21 41 -18 48 -9 c 2
 117 78 l 1
 72 138 51 204 51 280 c 0
 51 446 161 576 300 576 c 0
 360 576 409 555 458 510 c 1
 524 593 l 2
 531 602 535 605 542 605 c 0
 552 605 560 597 560 587 c 0
 560 582 558 579 552 571 c 2
 482 483 l 1
 525 430 549 356 549 280 c 0
 549 115 439 -16 300 -16 c 0
 240 -16 186 7 141 51 c 1
144 112 m 1
 432 476 l 1
 392 516 349 535 300 535 c 0
 185 535 92 420 92 280 c 0
 92 218 109 164 144 112 c 1
456 449 m 1
 167 84 l 1
 206 45 251 25 300 25 c 0
 414 25 508 140 508 280 c 0
 508 343 490 400 456 449 c 1
EndSplineSet
EndChar
StartChar: Ugrave
Encoding: 217 217
Width: 600
Flags: MW
HStem: -16 41<255.5 344> 522 41<67 101 142 142 142 216 384 458 499 533 499 499>
VStem: 101 41<185 522> 458 41<185 522>
Fore
499 522 m 1
 499 185 l 2
 499 71 412 -16 300 -16 c 0
 187 -16 101 71 101 185 c 2
 101 522 l 1
 67 522 l 2
 49 522 40 529 40 543 c 0
 40 557 49 563 67 563 c 2
 216 563 l 2
 234 563 243 556 243 543 c 0
 243 529 234 522 216 522 c 2
 142 522 l 1
 142 185 l 2
 142 95 211 25 300 25 c 0
 388 25 458 95 458 185 c 2
 458 522 l 1
 384 522 l 2
 366 522 357 529 357 543 c 0
 357 557 365 563 384 563 c 2
 533 563 l 2
 552 563 560 557 560 543 c 0
 560 529 551 522 533 522 c 2
 499 522 l 1
227 780 m 2
 341 680 l 1
 348 672 l 2
 353 667 353 667 353 661 c 0
 353 649 344 640 332 640 c 0
 327 640 321 643 314 649 c 2
 200 749 l 2
 191 757 188 761 188 769 c 0
 188 780 197 789 208 789 c 0
 214 789 219 786 227 780 c 2
EndSplineSet
EndChar
StartChar: Uacute
Encoding: 218 218
Width: 600
Flags: MW
HStem: -16 41<255.5 344> 522 41<67 101 142 142 142 216 384 458 499 533 499 499>
VStem: 101 41<185 522> 458 41<185 522>
Fore
499 522 m 1
 499 185 l 2
 499 71 412 -16 300 -16 c 0
 187 -16 101 71 101 185 c 2
 101 522 l 1
 67 522 l 2
 49 522 40 529 40 543 c 0
 40 557 49 563 67 563 c 2
 216 563 l 2
 234 563 243 556 243 543 c 0
 243 529 234 522 216 522 c 2
 142 522 l 1
 142 185 l 2
 142 95 211 25 300 25 c 0
 388 25 458 95 458 185 c 2
 458 522 l 1
 384 522 l 2
 366 522 357 529 357 543 c 0
 357 557 365 563 384 563 c 2
 533 563 l 2
 552 563 560 557 560 543 c 0
 560 529 551 522 533 522 c 2
 499 522 l 1
401 749 m 2
 287 649 l 2
 278 642 274 640 268 640 c 0
 257 640 248 649 248 661 c 0
 248 668 250 671 260 680 c 2
 374 780 l 2
 383 787 387 789 393 789 c 0
 404 789 413 780 413 768 c 0
 413 761 410 757 401 749 c 2
EndSplineSet
EndChar
StartChar: Ucircumflex
Encoding: 219 219
Width: 600
Flags: MW
HStem: -16 41<255.5 344> 522 41<67 101 142 142 142 216 384 458 499 533 499 499>
VStem: 101 41<185 522> 458 41<185 522>
Fore
499 522 m 1
 499 185 l 2
 499 71 412 -16 300 -16 c 0
 187 -16 101 71 101 185 c 2
 101 522 l 1
 67 522 l 2
 49 522 40 529 40 543 c 0
 40 557 49 563 67 563 c 2
 216 563 l 2
 234 563 243 556 243 543 c 0
 243 529 234 522 216 522 c 2
 142 522 l 1
 142 185 l 2
 142 95 211 25 300 25 c 0
 388 25 458 95 458 185 c 2
 458 522 l 1
 384 522 l 2
 366 522 357 529 357 543 c 0
 357 557 365 563 384 563 c 2
 533 563 l 2
 552 563 560 557 560 543 c 0
 560 529 551 522 533 522 c 2
 499 522 l 1
300 789 m 1
 432 681 l 2
 443 672 445 668 445 660 c 0
 445 649 436 640 425 640 c 0
 420 640 414 643 407 648 c 2
 300 736 l 1
 193 648 l 2
 186 643 180 640 175 640 c 0
 164 640 155 649 155 660 c 0
 155 668 158 673 168 680 c 1
 300 789 l 1
EndSplineSet
EndChar
StartChar: Udieresis
Encoding: 220 220
Width: 600
Flags: W
HStem: -16 41<255.5 344> 522 41<67 101 142 142 142 216 384 458 499 533 499 499>
VStem: 40 100 101 41<185 522> 261 100 458 41<185 522>
Fore
499 522 m 1
 499 185 l 2
 499 71 412 -16 300 -16 c 0
 187 -16 101 71 101 185 c 2
 101 522 l 1
 67 522 l 2
 49 522 40 529 40 543 c 0
 40 557 49 563 67 563 c 2
 216 563 l 2
 234 563 243 556 243 543 c 0
 243 529 234 522 216 522 c 2
 142 522 l 1
 142 185 l 2
 142 95 211 25 300 25 c 0
 388 25 458 95 458 185 c 2
 458 522 l 1
 384 522 l 2
 366 522 357 529 357 543 c 0
 357 557 365 563 384 563 c 2
 533 563 l 2
 552 563 560 557 560 543 c 0
 560 529 551 522 533 522 c 2
 499 522 l 1
189 761 m 0
 217 761 239 738 239 710 c 0
 239 684 216 661 189 661 c 0
 162 661 139 684 139 711 c 0
 139 738 162 761 189 761 c 0
410 761 m 0
 438 761 460 738 460 710 c 0
 460 684 437 661 410 661 c 0
 383 661 360 684 360 711 c 0
 360 738 383 761 410 761 c 0
EndSplineSet
EndChar
StartChar: Yacute
Encoding: 221 221
Width: 600
Flags: MW
HStem: 0 41<176 281 322 427> 522 41<78 102 151 151 151 189 412 452 498 498 498 522>
VStem: 281 41<41 254>
Fore
322 254 m 1
 322 41 l 1
 427 41 l 2
 445 41 454 34 454 21 c 0
 454 7 445 0 427 0 c 2
 176 0 l 2
 158 0 149 7 149 21 c 0
 149 34 158 41 176 41 c 2
 281 41 l 1
 281 254 l 1
 102 522 l 1
 78 522 l 2
 60 522 51 529 51 543 c 0
 51 556 60 563 78 563 c 2
 189 563 l 2
 207 563 216 556 216 543 c 0
 216 529 207 522 189 522 c 2
 151 522 l 1
 303 295 l 1
 452 522 l 1
 412 522 l 2
 393 522 384 529 384 543 c 0
 384 556 393 563 412 563 c 2
 522 563 l 2
 539 563 549 555 549 543 c 0
 549 530 538 522 522 522 c 2
 498 522 l 1
 322 254 l 1
401 749 m 2
 287 649 l 2
 278 642 274 640 268 640 c 0
 257 640 248 649 248 661 c 0
 248 668 250 671 260 680 c 2
 374 780 l 2
 383 787 387 789 393 789 c 0
 404 789 413 780 413 768 c 0
 413 761 410 757 401 749 c 2
EndSplineSet
EndChar
StartChar: Thorn
Encoding: 222 222
Width: 600
Flags: MW
HStem: 0 41<70 124 165 303> 131 41<165 296> 422 41<165 310 310 314> 522 41<70 124 165 165 165 303>
VStem: 124 41<41 131 172 422 463 522> 458 41<263.5 332>
Fore
165 131 m 1
 165 41 l 1
 303 41 l 2
 322 41 331 34 331 21 c 0
 331 7 321 0 303 0 c 2
 70 0 l 2
 52 0 43 7 43 21 c 0
 43 34 52 41 70 41 c 2
 124 41 l 1
 124 522 l 1
 70 522 l 2
 52 522 43 529 43 543 c 0
 43 556 52 563 70 563 c 2
 303 563 l 2
 322 563 331 556 331 543 c 0
 331 529 322 522 303 522 c 2
 165 522 l 1
 165 463 l 1
 310 463 l 2
 416 463 499 391 499 298 c 0
 499 205 410 131 296 131 c 2
 165 131 l 1
165 172 m 1
 299 172 l 2
 386 172 458 229 458 298 c 0
 458 366 393 422 314 422 c 2
 165 422 l 1
 165 172 l 1
EndSplineSet
EndChar
StartChar: germandbls
Encoding: 223 223
Width: 600
Flags: W
HStem: -16 41<346 391> 0 41<70 124 165 180> 563 41<238 295>
VStem: 124 41<41 476> 371 41<437.5 487.5> 458 41<123.5 187>
Fore
124 41 m 1
 124 476 l 2
 124 547 188 604 266 604 c 0
 347 604 412 539 412 458 c 0
 412 417 394 386 354 359 c 1
 450 320 499 253 499 161 c 0
 499 60 441 -16 365 -16 c 0
 305 -16 259 35 259 101 c 0
 259 115 267 124 279 124 c 0
 292 124 299 116 300 100 c 0
 303 54 327 25 365 25 c 0
 417 25 458 85 458 162 c 0
 458 212 436 258 397 290 c 0
 365 316 317 334 279 334 c 2
 274 334 l 2
 256 334 247 341 247 355 c 0
 247 367 256 375 270 375 c 2
 275 375 l 2
 326 375 371 415 371 459 c 0
 371 516 324 563 266 563 c 0
 210 563 165 525 165 476 c 2
 165 41 l 1
 180 41 l 2
 198 41 207 34 207 21 c 0
 207 7 198 0 180 0 c 2
 70 0 l 2
 52 0 43 7 43 21 c 0
 43 34 52 41 70 41 c 2
 124 41 l 1
EndSplineSet
EndChar
StartChar: agrave
Encoding: 224 224
Width: 600
Flags: W
HStem: -16 41<192.5 262.5> 0 41<460 514> 217 41<238 306> 390 41<280.5 332.5>
VStem: 72 41<85 142.5> 419 41<41 67 67 67 112 202 202 202 237 308> 419 122<14 27.5> 419 41
Fore
419 0 m 1
 419 67 l 1
 358 10 298 -16 228 -16 c 0
 135 -16 72 36 72 112 c 0
 72 199 158 258 283 258 c 0
 329 258 360 253 419 237 c 1
 419 308 l 2
 419 357 369 390 296 390 c 0
 260 390 232 384 154 360 c 0
 150 359 146 358 144 358 c 0
 134 358 125 367 125 378 c 0
 125 388 131 395 142 399 c 0
 197 418 262 431 299 431 c 0
 392 431 460 379 460 308 c 2
 460 41 l 1
 514 41 l 2
 532 41 541 34 541 21 c 0
 541 7 532 0 514 0 c 2
 419 0 l 1
419 112 m 1
 419 202 l 1
 383 211 335 217 291 217 c 0
 185 217 113 174 113 111 c 0
 113 59 158 25 227 25 c 0
 298 25 352 49 419 112 c 1
213 630 m 2
 327 530 l 1
 334 522 l 2
 339 517 339 517 339 511 c 0
 339 499 330 490 318 490 c 0
 313 490 307 493 300 499 c 2
 186 599 l 2
 177 607 174 611 174 619 c 0
 174 630 183 639 194 639 c 0
 200 639 205 636 213 630 c 2
EndSplineSet
EndChar
StartChar: aacute
Encoding: 225 225
Width: 600
Flags: W
HStem: -16 41<192.5 262.5> 0 41<460 514> 217 41<238 306> 390 41<280.5 332.5>
VStem: 72 41<85 142.5> 419 41<41 67 67 67 112 202 202 202 237 308> 419 122<14 27.5> 419 41
Fore
419 0 m 1
 419 67 l 1
 358 10 298 -16 228 -16 c 0
 135 -16 72 36 72 112 c 0
 72 199 158 258 283 258 c 0
 329 258 360 253 419 237 c 1
 419 308 l 2
 419 357 369 390 296 390 c 0
 260 390 232 384 154 360 c 0
 150 359 146 358 144 358 c 0
 134 358 125 367 125 378 c 0
 125 388 131 395 142 399 c 0
 197 418 262 431 299 431 c 0
 392 431 460 379 460 308 c 2
 460 41 l 1
 514 41 l 2
 532 41 541 34 541 21 c 0
 541 7 532 0 514 0 c 2
 419 0 l 1
419 112 m 1
 419 202 l 1
 383 211 335 217 291 217 c 0
 185 217 113 174 113 111 c 0
 113 59 158 25 227 25 c 0
 298 25 352 49 419 112 c 1
387 599 m 2
 273 499 l 2
 264 492 260 490 254 490 c 0
 243 490 234 499 234 511 c 0
 234 518 236 521 246 530 c 2
 360 630 l 2
 369 637 373 639 379 639 c 0
 390 639 399 630 399 618 c 0
 399 611 396 607 387 599 c 2
EndSplineSet
EndChar
StartChar: acircumflex
Encoding: 226 226
Width: 600
Flags: W
HStem: -16 41<192.5 262.5> 0 41<460 514> 217 41<238 306> 390 41<280.5 332.5>
VStem: 72 41<85 142.5> 419 41<41 67 67 67 112 202 202 202 237 308> 419 122<14 27.5> 419 41
Fore
419 0 m 1
 419 67 l 1
 358 10 298 -16 228 -16 c 0
 135 -16 72 36 72 112 c 0
 72 199 158 258 283 258 c 0
 329 258 360 253 419 237 c 1
 419 308 l 2
 419 357 369 390 296 390 c 0
 260 390 232 384 154 360 c 0
 150 359 146 358 144 358 c 0
 134 358 125 367 125 378 c 0
 125 388 131 395 142 399 c 0
 197 418 262 431 299 431 c 0
 392 431 460 379 460 308 c 2
 460 41 l 1
 514 41 l 2
 532 41 541 34 541 21 c 0
 541 7 532 0 514 0 c 2
 419 0 l 1
419 112 m 1
 419 202 l 1
 383 211 335 217 291 217 c 0
 185 217 113 174 113 111 c 0
 113 59 158 25 227 25 c 0
 298 25 352 49 419 112 c 1
290 639 m 1
 422 531 l 2
 433 522 435 518 435 510 c 0
 435 499 426 490 415 490 c 0
 410 490 404 493 397 498 c 2
 290 586 l 1
 183 498 l 2
 176 493 170 490 165 490 c 0
 154 490 145 499 145 510 c 0
 145 518 148 523 158 530 c 1
 290 639 l 1
EndSplineSet
EndChar
StartChar: atilde
Encoding: 227 227
Width: 600
Flags: W
HStem: -16 41<192.5 262.5> 0 41<460 514> 217 41<238 306> 390 41<280.5 332.5> 516 41<345.5 360.5> 564 41<220 236>
VStem: 72 41<85 142.5> 419 41<41 67 67 67 112 202 202 202 237 308> 419 122<14 27.5> 419 41
Fore
419 0 m 1
 419 67 l 1
 358 10 298 -16 228 -16 c 0
 135 -16 72 36 72 112 c 0
 72 199 158 258 283 258 c 0
 329 258 360 253 419 237 c 1
 419 308 l 2
 419 357 369 390 296 390 c 0
 260 390 232 384 154 360 c 0
 150 359 146 358 144 358 c 0
 134 358 125 367 125 378 c 0
 125 388 131 395 142 399 c 0
 197 418 262 431 299 431 c 0
 392 431 460 379 460 308 c 2
 460 41 l 1
 514 41 l 2
 532 41 541 34 541 21 c 0
 541 7 532 0 514 0 c 2
 419 0 l 1
419 112 m 1
 419 202 l 1
 383 211 335 217 291 217 c 0
 185 217 113 174 113 111 c 0
 113 59 158 25 227 25 c 0
 298 25 352 49 419 112 c 1
425 603 m 0
 435 603 445 594 445 583 c 0
 445 575 441 569 423 552 c 0
 397 526 377 516 354 516 c 0
 332 516 313 523 273 547 c 0
 253 560 242 564 230 564 c 0
 210 564 201 558 172 527 c 0
 168 522 161 519 155 519 c 0
 144 519 135 527 135 538 c 0
 135 546 141 555 154 568 c 0
 183 595 204 605 229 605 c 0
 249 605 261 601 293 582 c 0
 331 561 339 557 352 557 c 0
 369 557 379 564 409 595 c 0
 415 601 419 603 425 603 c 0
EndSplineSet
EndChar
StartChar: adieresis
Encoding: 228 228
Width: 600
Flags: W
HStem: -16 41<192.5 262.5> 0 41<460 514> 217 41<238 306> 390 41<280.5 332.5>
VStem: 72 41<85 142.5> 72 100 293 100 419 122<14 27.5> 419 41<41 67 67 67 112 202 202 202 237 308> 419 122
Fore
419 0 m 1
 419 67 l 1
 358 10 298 -16 228 -16 c 0
 135 -16 72 36 72 112 c 0
 72 199 158 258 283 258 c 0
 329 258 360 253 419 237 c 1
 419 308 l 2
 419 357 369 390 296 390 c 0
 260 390 232 384 154 360 c 0
 150 359 146 358 144 358 c 0
 134 358 125 367 125 378 c 0
 125 388 131 395 142 399 c 0
 197 418 262 431 299 431 c 0
 392 431 460 379 460 308 c 2
 460 41 l 1
 514 41 l 2
 532 41 541 34 541 21 c 0
 541 7 532 0 514 0 c 2
 419 0 l 1
419 112 m 1
 419 202 l 1
 383 211 335 217 291 217 c 0
 185 217 113 174 113 111 c 0
 113 59 158 25 227 25 c 0
 298 25 352 49 419 112 c 1
179 611 m 0
 207 611 229 588 229 560 c 0
 229 534 206 511 179 511 c 0
 152 511 129 534 129 561 c 0
 129 588 152 611 179 611 c 0
400 611 m 0
 428 611 450 588 450 560 c 0
 450 534 427 511 400 511 c 0
 373 511 350 534 350 561 c 0
 350 588 373 611 400 611 c 0
EndSplineSet
EndChar
StartChar: aring
Encoding: 229 229
Width: 600
Flags: W
HStem: -16 41<192.5 262.5> 0 41<460 514> 217 41<238 306> 390 41<280.5 332.5> 480 33<273.5 306.5> 628 33<273.5 306.5>
VStem: 72 41<85 142.5> 72 33 225 33 419 122<14 27.5> 419 41<41 67 67 67 112 202 202 202 237 308> 419 122
Fore
419 0 m 1
 419 67 l 1
 358 10 298 -16 228 -16 c 0
 135 -16 72 36 72 112 c 0
 72 199 158 258 283 258 c 0
 329 258 360 253 419 237 c 1
 419 308 l 2
 419 357 369 390 296 390 c 0
 260 390 232 384 154 360 c 0
 150 359 146 358 144 358 c 0
 134 358 125 367 125 378 c 0
 125 388 131 395 142 399 c 0
 197 418 262 431 299 431 c 0
 392 431 460 379 460 308 c 2
 460 41 l 1
 514 41 l 2
 532 41 541 34 541 21 c 0
 541 7 532 0 514 0 c 2
 419 0 l 1
419 112 m 1
 419 202 l 1
 383 211 335 217 291 217 c 0
 185 217 113 174 113 111 c 0
 113 59 158 25 227 25 c 0
 298 25 352 49 419 112 c 1
290 661 m 4
 342 661 383 621 383 569 c 4
 383 521 341 480 290 480 c 4
 239 480 197 521 197 571 c 4
 197 620 239 661 290 661 c 4
290 628 m 4
 257 628 230 602 230 571 c 4
 230 539 257 513 290 513 c 4
 323 513 350 539 350 570 c 4
 350 602 323 628 290 628 c 4
EndSplineSet
EndChar
StartChar: ae
Encoding: 230 230
Width: 600
Flags: W
HStem: -16 41<131.5 180.5 421 460> 0 20 199 41<320 535> 216 41<179.5 209> 390 41<184 216.5 406 446.5>
VStem: 12 45<93 133> 280 40<27 52 52 52>
Fore
320 61 m 1
 320 27 l 2
 320 9 313 0 300 0 c 0
 287 0 280 9 280 27 c 2
 280 52 l 1
 241 5 204 -16 160 -16 c 0
 75 -16 12 47 12 132 c 0
 12 166 27 193 57 217 c 0
 88 240 146 257 195 257 c 0
 223 257 251 253 280 245 c 1
 280 305 l 2
 280 352 241 390 192 390 c 0
 165 390 133 381 108 365 c 0
 101 361 94 358 90 358 c 0
 81 358 71 369 71 378 c 0
 71 389 79 397 100 406 c 0
 138 423 169 431 199 431 c 0
 248 431 293 398 312 347 c 1
 336 399 382 431 430 431 c 0
 490 431 538 392 559 325 c 0
 571 288 576 252 577 199 c 1
 319 199 l 1
 326 97 379 25 446 25 c 0
 475 25 497 38 545 82 c 0
 549 85 554 87 558 87 c 0
 569 87 578 77 578 67 c 0
 578 57 570 48 547 29 c 1
 506 -2 476 -16 444 -16 c 0
 398 -16 352 12 320 61 c 1
280 110 m 1
 280 203 l 1
 253 211 224 216 201 216 c 0
 158 216 100 197 78 176 c 0
 64 162 57 145 57 121 c 0
 57 65 101 25 162 25 c 0
 199 25 233 50 280 110 c 1
320 240 m 1
 535 240 l 1
 529 288 523 313 512 335 c 0
 495 370 464 390 429 390 c 0
 369 390 333 340 320 240 c 1
EndSplineSet
EndChar
StartChar: ccedilla
Encoding: 231 231
Width: 600
Flags: W
HStem: -173 38<291.5 312> 390 41<256 345> 397 20<484 497.5>
VStem: 84 41<167.5 260> 277 38<-47 -16> 343 37<-114.5 -97.5> 470 41<376 389>
Fore
315 -16 m 1
 315 -47 l 1
 356 -48 380 -70 380 -108 c 0
 380 -147 348 -173 301 -173 c 0
 281 -173 250 -165 231 -155 c 0
 217 -148 213 -143 213 -134 c 0
 213 -123 222 -114 233 -114 c 0
 237 -114 240 -115 248 -119 c 0
 271 -131 284 -135 299 -135 c 0
 325 -135 343 -123 343 -106 c 0
 343 -89 328 -81 298 -81 c 2
 277 -81 l 1
 277 -14 l 1
 228 -7 202 3 172 25 c 0
 116 66 84 131 84 204 c 0
 84 336 180 431 314 431 c 0
 376 431 429 412 470 376 c 1
 470 389 l 2
 470 408 477 417 491 417 c 0
 504 417 511 408 511 389 c 2
 511 298 l 2
 511 280 504 271 491 271 c 0
 478 271 471 278 470 295 c 0
 465 348 395 390 311 390 c 0
 201 390 125 315 125 205 c 0
 125 100 202 25 311 25 c 0
 384 25 446 49 498 97 c 0
 506 105 509 107 516 107 c 0
 526 107 535 98 535 88 c 0
 535 71 503 42 459 19 c 0
 416 -3 373 -13 315 -16 c 1
EndSplineSet
EndChar
StartChar: egrave
Encoding: 232 232
Width: 600
Flags: MW
HStem: -16 41<252 337> 199 41<104 478> 390 41<242.5 339>
Fore
520 199 m 1
 104 199 l 1
 118 94 198 25 306 25 c 0
 368 25 441 47 481 79 c 0
 488 84 492 86 497 86 c 0
 507 86 516 77 516 66 c 0
 516 31 396 -16 305 -16 c 0
 170 -16 63 87 63 217 c 0
 63 338 163 431 291 431 c 0
 387 431 467 380 503 297 c 0
 517 264 520 245 520 199 c 1
104 240 m 1
 478 240 l 1
 462 331 388 390 291 390 c 0
 194 390 122 332 104 240 c 1
228 630 m 2
 342 530 l 1
 349 522 l 2
 354 517 354 517 354 511 c 0
 354 499 345 490 333 490 c 0
 328 490 322 493 315 499 c 2
 201 599 l 2
 192 607 189 611 189 619 c 0
 189 630 198 639 209 639 c 0
 215 639 220 636 228 630 c 2
EndSplineSet
EndChar
StartChar: eacute
Encoding: 233 233
Width: 600
Flags: MW
HStem: -16 41<252 337> 199 41<104 478> 390 41<242.5 339>
Fore
520 199 m 1
 104 199 l 1
 118 94 198 25 306 25 c 0
 368 25 441 47 481 79 c 0
 488 84 492 86 497 86 c 0
 507 86 516 77 516 66 c 0
 516 31 396 -16 305 -16 c 0
 170 -16 63 87 63 217 c 0
 63 338 163 431 291 431 c 0
 387 431 467 380 503 297 c 0
 517 264 520 245 520 199 c 1
104 240 m 1
 478 240 l 1
 462 331 388 390 291 390 c 0
 194 390 122 332 104 240 c 1
402 599 m 2
 288 499 l 2
 279 492 275 490 269 490 c 0
 258 490 249 499 249 511 c 0
 249 518 251 521 261 530 c 2
 375 630 l 2
 384 637 388 639 394 639 c 0
 405 639 414 630 414 618 c 0
 414 611 411 607 402 599 c 2
EndSplineSet
EndChar
StartChar: ecircumflex
Encoding: 234 234
Width: 600
Flags: MW
HStem: -16 41<252 337> 199 41<104 478> 390 41<242.5 339>
Fore
520 199 m 1
 104 199 l 1
 118 94 198 25 306 25 c 0
 368 25 441 47 481 79 c 0
 488 84 492 86 497 86 c 0
 507 86 516 77 516 66 c 0
 516 31 396 -16 305 -16 c 0
 170 -16 63 87 63 217 c 0
 63 338 163 431 291 431 c 0
 387 431 467 380 503 297 c 0
 517 264 520 245 520 199 c 1
104 240 m 1
 478 240 l 1
 462 331 388 390 291 390 c 0
 194 390 122 332 104 240 c 1
305 639 m 1
 437 531 l 2
 448 522 450 518 450 510 c 0
 450 499 441 490 430 490 c 0
 425 490 419 493 412 498 c 2
 305 586 l 1
 198 498 l 2
 191 493 185 490 180 490 c 0
 169 490 160 499 160 510 c 0
 160 518 163 523 173 530 c 1
 305 639 l 1
EndSplineSet
EndChar
StartChar: edieresis
Encoding: 235 235
Width: 600
Flags: W
HStem: -16 41<252 337> 199 41<104 478> 390 41<242.5 339>
VStem: 63 100 284 100
Fore
520 199 m 1
 104 199 l 1
 118 94 198 25 306 25 c 0
 368 25 441 47 481 79 c 0
 488 84 492 86 497 86 c 0
 507 86 516 77 516 66 c 0
 516 31 396 -16 305 -16 c 0
 170 -16 63 87 63 217 c 0
 63 338 163 431 291 431 c 0
 387 431 467 380 503 297 c 0
 517 264 520 245 520 199 c 1
104 240 m 1
 478 240 l 1
 462 331 388 390 291 390 c 0
 194 390 122 332 104 240 c 1
194 611 m 0
 222 611 244 588 244 560 c 0
 244 534 221 511 194 511 c 0
 167 511 144 534 144 561 c 0
 144 588 167 611 194 611 c 0
415 611 m 0
 443 611 465 588 465 560 c 0
 465 534 442 511 415 511 c 0
 388 511 365 534 365 561 c 0
 365 588 388 611 415 611 c 0
EndSplineSet
EndChar
StartChar: igrave
Encoding: 236 236
Width: 600
Flags: MW
HStem: 0 41<119 279 320 480> 376 41<161 279>
VStem: 279 41<41 376 376 376>
Fore
320 417 m 1
 320 41 l 1
 480 41 l 2
 499 41 508 34 508 21 c 0
 508 7 498 0 480 0 c 2
 119 0 l 2
 101 0 92 7 92 21 c 0
 92 34 101 41 119 41 c 2
 279 41 l 1
 279 376 l 1
 161 376 l 2
 143 376 134 383 134 397 c 0
 134 410 143 417 161 417 c 2
 320 417 l 1
217 630 m 2
 331 530 l 1
 338 522 l 2
 343 517 343 517 343 511 c 0
 343 499 334 490 322 490 c 0
 317 490 311 493 304 499 c 2
 190 599 l 2
 181 607 178 611 178 619 c 0
 178 630 187 639 198 639 c 0
 204 639 209 636 217 630 c 2
EndSplineSet
EndChar
StartChar: iacute
Encoding: 237 237
Width: 600
Flags: MW
HStem: 0 41<119 279 320 480> 376 41<161 279>
VStem: 279 41<41 376 376 376>
Fore
320 417 m 1
 320 41 l 1
 480 41 l 2
 499 41 508 34 508 21 c 0
 508 7 498 0 480 0 c 2
 119 0 l 2
 101 0 92 7 92 21 c 0
 92 34 101 41 119 41 c 2
 279 41 l 1
 279 376 l 1
 161 376 l 2
 143 376 134 383 134 397 c 0
 134 410 143 417 161 417 c 2
 320 417 l 1
391 599 m 2
 277 499 l 2
 268 492 264 490 258 490 c 0
 247 490 238 499 238 511 c 0
 238 518 240 521 250 530 c 2
 364 630 l 2
 373 637 377 639 383 639 c 0
 394 639 403 630 403 618 c 0
 403 611 400 607 391 599 c 2
EndSplineSet
EndChar
StartChar: icircumflex
Encoding: 238 238
Width: 600
Flags: MW
HStem: 0 41<119 279 320 480> 376 41<161 279>
VStem: 279 41<41 376 376 376>
Fore
320 417 m 1
 320 41 l 1
 480 41 l 2
 499 41 508 34 508 21 c 0
 508 7 498 0 480 0 c 2
 119 0 l 2
 101 0 92 7 92 21 c 0
 92 34 101 41 119 41 c 2
 279 41 l 1
 279 376 l 1
 161 376 l 2
 143 376 134 383 134 397 c 0
 134 410 143 417 161 417 c 2
 320 417 l 1
283 639 m 1
 415 531 l 2
 426 522 428 518 428 510 c 0
 428 499 419 490 408 490 c 0
 403 490 397 493 390 498 c 2
 283 586 l 1
 176 498 l 2
 169 493 163 490 158 490 c 0
 147 490 138 499 138 510 c 0
 138 518 141 523 151 530 c 1
 283 639 l 1
EndSplineSet
EndChar
StartChar: idieresis
Encoding: 239 239
Width: 600
Flags: MW
HStem: 0 41<119 279 320 480> 376 41<161 279> 511 100<162.5 189.5 384.5 411.5>
VStem: 126 100<547.5 574> 279 41<41 376 376 376> 348 100<547.5 574>
Fore
320 417 m 1
 320 41 l 1
 480 41 l 2
 499 41 508 34 508 21 c 0
 508 7 498 0 480 0 c 2
 119 0 l 2
 101 0 92 7 92 21 c 0
 92 34 101 41 119 41 c 2
 279 41 l 1
 279 376 l 1
 161 376 l 2
 143 376 134 383 134 397 c 0
 134 410 143 417 161 417 c 2
 320 417 l 1
176 611 m 0
 204 611 226 588 226 560 c 0
 226 534 203 511 176 511 c 0
 149 511 126 534 126 561 c 0
 126 588 149 611 176 611 c 0
398 611 m 0
 426 611 448 588 448 560 c 0
 448 534 425 511 398 511 c 0
 371 511 348 534 348 561 c 0
 348 588 371 611 398 611 c 0
EndSplineSet
EndChar
StartChar: eth
Encoding: 240 240
Width: 600
Flags: MW
HStem: -17 42<249 331> 390 40<249 325.5> 552 20<328 328>
VStem: 72 42<157 258.5> 488 40<184.5 257.5>
Fore
440 577 m 2
 365 543 l 1
 465 457 528 331 528 221 c 0
 528 148 507 93 462 48 c 0
 419 6 362 -17 300 -17 c 0
 173 -17 72 82 72 207 c 0
 72 330 173 430 298 430 c 0
 353 430 390 416 444 377 c 1
 410 441 365 495 323 525 c 1
 232 483 l 2
 230 482 228 482 225 482 c 0
 215 482 205 493 205 505 c 0
 205 512 208 519 214 521 c 2
 277 549 l 1
 239 565 219 572 179 580 c 0
 165 583 159 588 159 598 c 0
 159 611 168 620 180 620 c 0
 207 620 269 600 328 572 c 1
 423 614 l 1
 430 615 l 2
 440 615 449 606 449 594 c 0
 449 586 445 579 440 577 c 2
301 390 m 0
 197 390 114 309 114 208 c 0
 114 106 197 25 301 25 c 0
 404 25 488 106 488 205 c 0
 488 310 406 390 301 390 c 0
EndSplineSet
EndChar
StartChar: ntilde
Encoding: 241 241
Width: 600
Flags: W
HStem: 0 41<81 126 167 212 405 439 480 514> 376 41<92 126> 390 41<300 338.5> 516 41<345.5 360.5> 564 41<220 236>
VStem: 65 102<390 403.5> 126 41<41 294 348 376 376 376> 439 41<41 288 288 295>
Fore
167 417 m 1
 167 348 l 1
 225 412 261 431 323 431 c 0
 412 431 480 372 480 295 c 2
 480 41 l 1
 514 41 l 2
 532 41 541 34 541 21 c 0
 541 7 532 0 514 0 c 2
 405 0 l 2
 387 0 378 7 378 21 c 0
 378 34 387 41 405 41 c 2
 439 41 l 1
 439 288 l 2
 439 318 426 343 401 364 c 0
 377 384 358 390 319 390 c 0
 281 390 252 380 224 357 c 0
 209 346 199 335 167 294 c 1
 167 41 l 1
 212 41 l 2
 230 41 239 34 239 21 c 0
 239 7 230 0 212 0 c 2
 81 0 l 2
 62 0 53 7 53 21 c 0
 53 34 62 41 81 41 c 2
 126 41 l 1
 126 376 l 1
 92 376 l 2
 74 376 65 383 65 397 c 0
 65 410 74 417 92 417 c 2
 167 417 l 1
425 603 m 0
 435 603 445 594 445 583 c 0
 445 575 441 569 423 552 c 0
 397 526 377 516 354 516 c 0
 332 516 313 523 273 547 c 0
 253 560 242 564 230 564 c 0
 210 564 201 558 172 527 c 0
 168 522 161 519 155 519 c 0
 144 519 135 527 135 538 c 0
 135 546 141 555 154 568 c 0
 183 595 204 605 229 605 c 0
 249 605 261 601 293 582 c 0
 331 561 339 557 352 557 c 0
 369 557 379 564 409 595 c 0
 415 601 419 603 425 603 c 0
EndSplineSet
EndChar
StartChar: ograve
Encoding: 242 242
Width: 600
Flags: MW
HStem: -16 41<248 351.5> 390 41<248 352.5>
VStem: 72 41<157 258.5> 487 41<155.5 257.5>
Fore
300 431 m 0
 428 431 528 332 528 205 c 0
 528 83 426 -16 300 -16 c 0
 173 -16 72 83 72 208 c 0
 72 331 173 431 300 431 c 0
300 390 m 0
 196 390 113 309 113 208 c 0
 113 106 196 25 300 25 c 0
 403 25 487 106 487 205 c 0
 487 310 405 390 300 390 c 0
230 630 m 2
 344 530 l 1
 351 522 l 2
 356 517 356 517 356 511 c 0
 356 499 347 490 335 490 c 0
 330 490 324 493 317 499 c 2
 203 599 l 2
 194 607 191 611 191 619 c 0
 191 630 200 639 211 639 c 0
 217 639 222 636 230 630 c 2
EndSplineSet
EndChar
StartChar: oacute
Encoding: 243 243
Width: 600
Flags: MW
HStem: -16 41<248 351.5> 390 41<248 352.5>
VStem: 72 41<157 258.5> 487 41<155.5 257.5>
Fore
300 431 m 0
 428 431 528 332 528 205 c 0
 528 83 426 -16 300 -16 c 0
 173 -16 72 83 72 208 c 0
 72 331 173 431 300 431 c 0
300 390 m 0
 196 390 113 309 113 208 c 0
 113 106 196 25 300 25 c 0
 403 25 487 106 487 205 c 0
 487 310 405 390 300 390 c 0
398 599 m 2
 284 499 l 2
 275 492 271 490 265 490 c 0
 254 490 245 499 245 511 c 0
 245 518 247 521 257 530 c 2
 371 630 l 2
 380 637 384 639 390 639 c 0
 401 639 410 630 410 618 c 0
 410 611 407 607 398 599 c 2
EndSplineSet
EndChar
StartChar: ocircumflex
Encoding: 244 244
Width: 600
Flags: MW
HStem: -16 41<248 351.5> 390 41<248 352.5>
VStem: 72 41<157 258.5> 487 41<155.5 257.5>
Fore
300 431 m 0
 428 431 528 332 528 205 c 0
 528 83 426 -16 300 -16 c 0
 173 -16 72 83 72 208 c 0
 72 331 173 431 300 431 c 0
300 390 m 0
 196 390 113 309 113 208 c 0
 113 106 196 25 300 25 c 0
 403 25 487 106 487 205 c 0
 487 310 405 390 300 390 c 0
300 639 m 1
 432 531 l 2
 443 522 445 518 445 510 c 0
 445 499 436 490 425 490 c 0
 420 490 414 493 407 498 c 2
 300 586 l 1
 193 498 l 2
 186 493 180 490 175 490 c 0
 164 490 155 499 155 510 c 0
 155 518 158 523 168 530 c 1
 300 639 l 1
EndSplineSet
EndChar
StartChar: otilde
Encoding: 245 245
Width: 600
Flags: W
HStem: -16 41<248 351.5> 390 41<248 352.5> 516 41<361.5 376.5> 564 41<236 252>
VStem: 72 41<157 258.5> 487 41<155.5 257.5>
Fore
300 431 m 0
 428 431 528 332 528 205 c 0
 528 83 426 -16 300 -16 c 0
 173 -16 72 83 72 208 c 0
 72 331 173 431 300 431 c 0
300 390 m 0
 196 390 113 309 113 208 c 0
 113 106 196 25 300 25 c 0
 403 25 487 106 487 205 c 0
 487 310 405 390 300 390 c 0
441 603 m 0
 451 603 461 594 461 583 c 0
 461 575 457 569 439 552 c 0
 413 526 393 516 370 516 c 0
 348 516 329 523 289 547 c 0
 269 560 258 564 246 564 c 0
 226 564 217 558 188 527 c 0
 184 522 177 519 171 519 c 0
 160 519 151 527 151 538 c 0
 151 546 157 555 170 568 c 0
 199 595 220 605 245 605 c 0
 265 605 277 601 309 582 c 0
 347 561 355 557 368 557 c 0
 385 557 395 564 425 595 c 0
 431 601 435 603 441 603 c 0
EndSplineSet
EndChar
StartChar: odieresis
Encoding: 246 246
Width: 600
Flags: W
HStem: -16 41<248 351.5> 390 41<248 352.5>
VStem: 72 41<157 258.5> 72 100 293 100 487 41<155.5 257.5>
Fore
300 431 m 0
 428 431 528 332 528 205 c 0
 528 83 426 -16 300 -16 c 0
 173 -16 72 83 72 208 c 0
 72 331 173 431 300 431 c 0
300 390 m 0
 196 390 113 309 113 208 c 0
 113 106 196 25 300 25 c 0
 403 25 487 106 487 205 c 0
 487 310 405 390 300 390 c 0
189 611 m 0
 217 611 239 588 239 560 c 0
 239 534 216 511 189 511 c 0
 162 511 139 534 139 561 c 0
 139 588 162 611 189 611 c 0
410 611 m 0
 438 611 460 588 460 560 c 0
 460 534 437 511 410 511 c 0
 383 511 360 534 360 561 c 0
 360 588 383 611 410 611 c 0
EndSplineSet
EndChar
StartChar: divide
Encoding: 247 247
Width: 600
Flags: MW
HStem: 25 99<286.5 313.5> 262 40<99 501> 441 99<286.5 313.5>
VStem: 251 99<61 88 477 504>
Fore
501 262 m 2
 99 262 l 2
 81 262 72 269 72 282 c 0
 72 295 81 302 99 302 c 2
 501 302 l 2
 519 302 528 295 528 282 c 0
 528 269 519 262 501 262 c 2
300 124 m 0
 328 124 350 102 350 74 c 0
 350 47 327 25 300 25 c 0
 273 25 251 47 251 75 c 0
 251 101 273 124 300 124 c 0
300 540 m 4
 328 540 350 518 350 490 c 4
 350 463 327 441 300 441 c 4
 273 441 251 463 251 491 c 4
 251 517 273 540 300 540 c 4
EndSplineSet
EndChar
StartChar: oslash
Encoding: 248 248
Width: 600
Flags: MW
HStem: -16 41<278 352> 390 41<248 321.5>
VStem: 72 41<186 258.5> 487 41<156.5 230>
Fore
154 35 m 1
 88 -33 l 2
 80 -41 76 -43 71 -43 c 0
 61 -43 53 -35 53 -25 c 0
 53 -20 55 -16 63 -8 c 2
 129 59 l 1
 92 102 72 153 72 208 c 0
 72 332 173 431 300 431 c 0
 354 431 402 415 444 382 c 1
 508 448 l 1
 517 456 520 458 526 458 c 0
 535 458 543 450 543 440 c 0
 543 435 541 431 533 423 c 2
 469 358 l 1
 508 315 528 264 528 207 c 0
 528 83 427 -16 300 -16 c 0
 245 -16 198 1 154 35 c 1
441 329 m 1
 183 65 l 1
 216 39 256 25 300 25 c 0
 404 25 487 106 487 207 c 0
 487 253 471 294 441 329 c 1
158 89 m 1
 415 352 l 1
 382 377 343 390 300 390 c 0
 196 390 113 309 113 208 c 0
 113 164 129 122 158 89 c 1
EndSplineSet
EndChar
StartChar: ugrave
Encoding: 249 249
Width: 600
Flags: W
HStem: -16 41<230.5 289.5> 0 41<480 514> 376 41<70 124 365 439>
VStem: 124 41<115 376 376 376> 439 41<41 66 66 66 115 376 376 376> 439 102<14 27.5> 439 41 439 102
Fore
439 0 m 1
 439 66 l 1
 384 12 323 -16 257 -16 c 0
 177 -16 124 36 124 115 c 2
 124 376 l 1
 70 376 l 2
 52 376 43 383 43 397 c 0
 43 410 52 417 70 417 c 2
 165 417 l 1
 165 115 l 2
 165 65 205 25 256 25 c 0
 323 25 384 55 439 115 c 1
 439 376 l 1
 365 376 l 2
 346 376 337 383 337 397 c 0
 337 410 346 417 365 417 c 2
 480 417 l 1
 480 41 l 1
 514 41 l 2
 532 41 541 34 541 21 c 0
 541 7 532 0 514 0 c 2
 439 0 l 1
222 630 m 2
 336 530 l 1
 343 522 l 2
 348 517 348 517 348 511 c 0
 348 499 339 490 327 490 c 0
 322 490 316 493 309 499 c 2
 195 599 l 2
 186 607 183 611 183 619 c 0
 183 630 192 639 203 639 c 0
 209 639 214 636 222 630 c 2
EndSplineSet
EndChar
StartChar: uacute
Encoding: 250 250
Width: 600
Flags: W
HStem: -16 41<230.5 289.5> 0 41<480 514> 376 41<70 124 365 439>
VStem: 124 41<115 376 376 376> 439 41<41 66 66 66 115 376 376 376> 439 102<14 27.5> 439 41 439 102
Fore
439 0 m 1
 439 66 l 1
 384 12 323 -16 257 -16 c 0
 177 -16 124 36 124 115 c 2
 124 376 l 1
 70 376 l 2
 52 376 43 383 43 397 c 0
 43 410 52 417 70 417 c 2
 165 417 l 1
 165 115 l 2
 165 65 205 25 256 25 c 0
 323 25 384 55 439 115 c 1
 439 376 l 1
 365 376 l 2
 346 376 337 383 337 397 c 0
 337 410 346 417 365 417 c 2
 480 417 l 1
 480 41 l 1
 514 41 l 2
 532 41 541 34 541 21 c 0
 541 7 532 0 514 0 c 2
 439 0 l 1
383 599 m 2
 269 499 l 2
 260 492 256 490 250 490 c 0
 239 490 230 499 230 511 c 0
 230 518 232 521 242 530 c 2
 356 630 l 2
 365 637 369 639 375 639 c 0
 386 639 395 630 395 618 c 0
 395 611 392 607 383 599 c 2
EndSplineSet
EndChar
StartChar: ucircumflex
Encoding: 251 251
Width: 600
Flags: W
HStem: -16 41<230.5 289.5> 0 41<480 514> 376 41<70 124 365 439>
VStem: 124 41<115 376 376 376> 439 41<41 66 66 66 115 376 376 376> 439 102<14 27.5> 439 41 439 102
Fore
439 0 m 1
 439 66 l 1
 384 12 323 -16 257 -16 c 0
 177 -16 124 36 124 115 c 2
 124 376 l 1
 70 376 l 2
 52 376 43 383 43 397 c 0
 43 410 52 417 70 417 c 2
 165 417 l 1
 165 115 l 2
 165 65 205 25 256 25 c 0
 323 25 384 55 439 115 c 1
 439 376 l 1
 365 376 l 2
 346 376 337 383 337 397 c 0
 337 410 346 417 365 417 c 2
 480 417 l 1
 480 41 l 1
 514 41 l 2
 532 41 541 34 541 21 c 0
 541 7 532 0 514 0 c 2
 439 0 l 1
292 639 m 1
 424 531 l 2
 435 522 437 518 437 510 c 0
 437 499 428 490 417 490 c 0
 412 490 406 493 399 498 c 2
 292 586 l 1
 185 498 l 2
 178 493 172 490 167 490 c 0
 156 490 147 499 147 510 c 0
 147 518 150 523 160 530 c 1
 292 639 l 1
EndSplineSet
EndChar
StartChar: udieresis
Encoding: 252 252
Width: 600
Flags: W
HStem: -16 41<230.5 289.5> 0 41<480 514> 376 41<70 124 365 439>
VStem: 43 100 124 41<115 376 376 376> 264 100 439 41<41 66 66 66 115 376 376 376> 439 102<14 27.5> 439 41 439 102
Fore
439 0 m 1
 439 66 l 1
 384 12 323 -16 257 -16 c 0
 177 -16 124 36 124 115 c 2
 124 376 l 1
 70 376 l 2
 52 376 43 383 43 397 c 0
 43 410 52 417 70 417 c 2
 165 417 l 1
 165 115 l 2
 165 65 205 25 256 25 c 0
 323 25 384 55 439 115 c 1
 439 376 l 1
 365 376 l 2
 346 376 337 383 337 397 c 0
 337 410 346 417 365 417 c 2
 480 417 l 1
 480 41 l 1
 514 41 l 2
 532 41 541 34 541 21 c 0
 541 7 532 0 514 0 c 2
 439 0 l 1
181 611 m 0
 209 611 231 588 231 560 c 0
 231 534 208 511 181 511 c 0
 154 511 131 534 131 561 c 0
 131 588 154 611 181 611 c 0
402 611 m 0
 430 611 452 588 452 560 c 0
 452 534 429 511 402 511 c 0
 375 511 352 534 352 561 c 0
 352 588 375 611 402 611 c 0
EndSplineSet
EndChar
StartChar: yacute
Encoding: 253 253
Width: 600
Flags: W
HStem: -186 186 -186 41<84 211 252 317> 376 41<78 94 141 141 141 193 412 466 508 508 508 522>
Fore
282 0 m 1
 94 376 l 1
 78 376 l 2
 60 376 51 383 51 397 c 0
 51 410 60 417 78 417 c 2
 193 417 l 2
 211 417 220 410 220 397 c 0
 220 383 211 376 193 376 c 2
 141 376 l 1
 305 45 l 1
 466 376 l 1
 412 376 l 2
 394 376 385 383 385 397 c 0
 385 410 394 417 412 417 c 2
 522 417 l 2
 540 417 549 410 549 397 c 0
 549 383 540 376 522 376 c 2
 508 376 l 1
 252 -145 l 1
 317 -145 l 2
 335 -145 344 -152 344 -165 c 0
 344 -179 335 -186 317 -186 c 2
 84 -186 l 2
 66 -186 57 -179 57 -165 c 0
 57 -152 66 -145 84 -145 c 2
 211 -145 l 1
 282 0 l 1
433 599 m 2
 319 499 l 2
 310 492 306 490 300 490 c 0
 289 490 280 499 280 511 c 0
 280 518 282 521 292 530 c 2
 406 630 l 2
 415 637 419 639 425 639 c 0
 436 639 445 630 445 618 c 0
 445 611 442 607 433 599 c 2
EndSplineSet
EndChar
StartChar: thorn
Encoding: 254 254
Width: 600
Flags: MW
HStem: -186 41<49 103 144 242> 10 41<284.5 371> 390 41<285 372.5> 549 41<49 103>
VStem: 103 41<-145 106 173.5 268 335 549 549 549> 500 41<172.5 267.5>
Fore
144 590 m 1
 144 335 l 1
 197 404 247 431 323 431 c 0
 447 431 541 340 541 221 c 0
 541 102 446 10 323 10 c 0
 246 10 190 40 144 106 c 1
 144 -145 l 1
 242 -145 l 2
 260 -145 269 -152 269 -165 c 0
 269 -179 260 -186 242 -186 c 2
 49 -186 l 2
 31 -186 22 -179 22 -165 c 0
 22 -152 31 -145 49 -145 c 2
 103 -145 l 1
 103 549 l 1
 49 549 l 2
 31 549 22 556 22 570 c 0
 22 583 31 590 49 590 c 2
 144 590 l 1
322 390 m 0
 223 390 144 315 144 221 c 0
 144 126 223 51 322 51 c 0
 420 51 500 126 500 219 c 0
 500 316 423 390 322 390 c 0
EndSplineSet
EndChar
StartChar: ydieresis
Encoding: 255 255
Width: 600
Flags: W
HStem: -186 186 -186 41<84 211 252 317> 376 41<78 94 141 141 141 193 412 466 508 508 508 522>
VStem: 51 100 272 100
Fore
282 0 m 1
 94 376 l 1
 78 376 l 2
 60 376 51 383 51 397 c 0
 51 410 60 417 78 417 c 2
 193 417 l 2
 211 417 220 410 220 397 c 0
 220 383 211 376 193 376 c 2
 141 376 l 1
 305 45 l 1
 466 376 l 1
 412 376 l 2
 394 376 385 383 385 397 c 0
 385 410 394 417 412 417 c 2
 522 417 l 2
 540 417 549 410 549 397 c 0
 549 383 540 376 522 376 c 2
 508 376 l 1
 252 -145 l 1
 317 -145 l 2
 335 -145 344 -152 344 -165 c 0
 344 -179 335 -186 317 -186 c 2
 84 -186 l 2
 66 -186 57 -179 57 -165 c 0
 57 -152 66 -145 84 -145 c 2
 211 -145 l 1
 282 0 l 1
189 611 m 0
 217 611 239 588 239 560 c 0
 239 534 216 511 189 511 c 0
 162 511 139 534 139 561 c 0
 139 588 162 611 189 611 c 0
410 611 m 0
 438 611 460 588 460 560 c 0
 460 534 437 511 410 511 c 0
 383 511 360 534 360 561 c 0
 360 588 383 611 410 611 c 0
EndSplineSet
EndChar
StartChar: Amacron
Encoding: 256 256
Width: 600
Flags: W
HStem: 0 41<36 67 108 187 408 484 527 564> 188 41<178 413> 522 41<126 246 286 286 286 301> 686 40<182 418>
Fore
428 188 m 1
 162 188 l 1
 108 41 l 1
 187 41 l 2
 205 41 214 34 214 21 c 0
 214 7 205 0 187 0 c 2
 36 0 l 2
 18 0 9 7 9 21 c 0
 9 34 18 41 36 41 c 2
 67 41 l 1
 246 522 l 1
 126 522 l 2
 108 522 99 529 99 543 c 0
 99 556 108 563 126 563 c 2
 330 563 l 1
 527 41 l 1
 564 41 l 2
 582 41 591 34 591 21 c 0
 591 7 582 0 564 0 c 2
 408 0 l 2
 390 0 381 7 381 21 c 0
 381 34 390 41 408 41 c 2
 484 41 l 1
 428 188 l 1
413 229 m 1
 301 522 l 1
 286 522 l 1
 178 229 l 1
 413 229 l 1
418 686 m 2
 182 686 l 2
 164 686 155 693 155 706 c 0
 155 719 164 726 182 726 c 2
 418 726 l 2
 436 726 445 719 445 706 c 0
 445 693 436 686 418 686 c 2
EndSplineSet
EndChar
StartChar: amacron
Encoding: 257 257
Width: 600
Flags: W
HStem: -16 41<192.5 262.5> 0 41<460 514> 217 41<238 306> 390 41<280.5 332.5> 536 40<182 418>
VStem: 72 41<85 142.5> 419 41<41 67 67 67 112 202 202 202 237 308> 419 122<14 27.5> 419 41
Fore
419 0 m 1
 419 67 l 1
 358 10 298 -16 228 -16 c 0
 135 -16 72 36 72 112 c 0
 72 199 158 258 283 258 c 0
 329 258 360 253 419 237 c 1
 419 308 l 2
 419 357 369 390 296 390 c 0
 260 390 232 384 154 360 c 0
 150 359 146 358 144 358 c 0
 134 358 125 367 125 378 c 0
 125 388 131 395 142 399 c 0
 197 418 262 431 299 431 c 0
 392 431 460 379 460 308 c 2
 460 41 l 1
 514 41 l 2
 532 41 541 34 541 21 c 0
 541 7 532 0 514 0 c 2
 419 0 l 1
419 112 m 1
 419 202 l 1
 383 211 335 217 291 217 c 0
 185 217 113 174 113 111 c 0
 113 59 158 25 227 25 c 0
 298 25 352 49 419 112 c 1
418 536 m 2
 182 536 l 2
 164 536 155 543 155 556 c 0
 155 569 164 576 182 576 c 2
 418 576 l 2
 436 576 445 569 445 556 c 0
 445 543 436 536 418 536 c 2
EndSplineSet
EndChar
StartChar: Abreve
Encoding: 258 258
Width: 600
Flags: W
HStem: 0 41<36 67 108 187 408 484 527 564> 188 41<178 413> 522 41<126 246 286 286 286 301> 640 41<272 328>
Fore
428 188 m 1
 162 188 l 1
 108 41 l 1
 187 41 l 2
 205 41 214 34 214 21 c 0
 214 7 205 0 187 0 c 2
 36 0 l 2
 18 0 9 7 9 21 c 0
 9 34 18 41 36 41 c 2
 67 41 l 1
 246 522 l 1
 126 522 l 2
 108 522 99 529 99 543 c 0
 99 556 108 563 126 563 c 2
 330 563 l 1
 527 41 l 1
 564 41 l 2
 582 41 591 34 591 21 c 0
 591 7 582 0 564 0 c 2
 408 0 l 2
 390 0 381 7 381 21 c 0
 381 34 390 41 408 41 c 2
 484 41 l 1
 428 188 l 1
413 229 m 1
 301 522 l 1
 286 522 l 1
 178 229 l 1
 413 229 l 1
176 770 m 0
 188 770 194 763 196 748 c 0
 199 710 244 681 300 681 c 0
 356 681 400 710 404 748 c 0
 406 763 412 770 425 770 c 0
 436 770 445 761 445 747 c 0
 445 687 382 640 300 640 c 0
 218 640 155 687 155 747 c 0
 155 761 163 770 176 770 c 0
EndSplineSet
EndChar
StartChar: abreve
Encoding: 259 259
Width: 600
Flags: W
HStem: -16 41<192.5 262.5> 0 41<460 514> 217 41<238 306> 390 41<280.5 332.5> 490 41<272 328>
VStem: 72 41<85 142.5> 419 41<41 67 67 67 112 202 202 202 237 308> 419 122<14 27.5> 419 41
Fore
419 0 m 1
 419 67 l 1
 358 10 298 -16 228 -16 c 0
 135 -16 72 36 72 112 c 0
 72 199 158 258 283 258 c 0
 329 258 360 253 419 237 c 1
 419 308 l 2
 419 357 369 390 296 390 c 0
 260 390 232 384 154 360 c 0
 150 359 146 358 144 358 c 0
 134 358 125 367 125 378 c 0
 125 388 131 395 142 399 c 0
 197 418 262 431 299 431 c 0
 392 431 460 379 460 308 c 2
 460 41 l 1
 514 41 l 2
 532 41 541 34 541 21 c 0
 541 7 532 0 514 0 c 2
 419 0 l 1
419 112 m 1
 419 202 l 1
 383 211 335 217 291 217 c 0
 185 217 113 174 113 111 c 0
 113 59 158 25 227 25 c 0
 298 25 352 49 419 112 c 1
176 620 m 0
 188 620 194 613 196 598 c 0
 199 560 244 531 300 531 c 0
 356 531 400 560 404 598 c 0
 406 613 412 620 425 620 c 0
 436 620 445 611 445 597 c 0
 445 537 382 490 300 490 c 0
 218 490 155 537 155 597 c 0
 155 611 163 620 176 620 c 0
EndSplineSet
EndChar
StartChar: Aogonek
Encoding: 260 260
Width: 600
Flags: MW
HStem: -155 32<514.5 539> 0 41<36 67 108 187 408 484> 188 41<178 413> 522 41<126 246 286 286 286 301>
VStem: 447 39<-100.5 -73.5>
Fore
330 563 m 1
 527 41 l 1
 564 41 l 2
 582 41 591 34 591 21 c 0
 591 9 588 6 567 -3 c 0
 519 -24 486 -58 486 -89 c 0
 486 -112 500 -123 529 -123 c 0
 549 -123 554 -121 578 -107 c 0
 581 -105 584 -104 586 -104 c 0
 593 -104 600 -111 600 -119 c 0
 600 -136 561 -155 523 -155 c 0
 475 -155 447 -132 447 -94 c 0
 447 -52 468 -27 524 0 c 1
 408 0 l 2
 390 0 381 7 381 21 c 0
 381 34 390 41 408 41 c 2
 484 41 l 1
 428 188 l 1
 162 188 l 1
 108 41 l 1
 187 41 l 2
 205 41 214 34 214 21 c 0
 214 7 205 0 187 0 c 2
 36 0 l 2
 18 0 9 7 9 21 c 0
 9 34 18 41 36 41 c 2
 67 41 l 1
 246 522 l 1
 126 522 l 2
 108 522 99 529 99 543 c 0
 99 556 108 563 126 563 c 2
 330 563 l 1
413 229 m 1
 301 522 l 1
 286 522 l 1
 178 229 l 1
 413 229 l 1
EndSplineSet
EndChar
StartChar: aogonek
Encoding: 261 261
Width: 600
Flags: W
HStem: -155 32<471 495> -16 41<192.5 262.5> 0 41<460 480> 217 41<238 306> 390 41<280.5 332.5>
VStem: 72 41<85 142.5> 403 39<-100.5 -73.5> 419 122<16.5 27.5> 419 41<41 67 67 67 112 202 202 202 237 308> 419 122 419 41
Fore
460 41 m 1
 514 41 l 2
 532 41 541 34 541 21 c 0
 541 12 537 6 529 2 c 0
 467 -31 442 -58 442 -89 c 0
 442 -112 457 -123 485 -123 c 0
 505 -123 510 -121 534 -107 c 0
 537 -105 540 -104 542 -104 c 0
 549 -104 556 -111 556 -119 c 0
 556 -136 517 -155 479 -155 c 0
 431 -155 403 -132 403 -94 c 0
 403 -52 424 -27 480 0 c 1
 419 0 l 1
 419 67 l 1
 358 10 298 -16 228 -16 c 0
 135 -16 72 36 72 112 c 0
 72 199 158 258 283 258 c 0
 329 258 360 253 419 237 c 1
 419 308 l 2
 419 357 369 390 296 390 c 0
 260 390 232 384 154 360 c 0
 150 359 146 358 144 358 c 0
 134 358 125 367 125 378 c 0
 125 388 131 395 142 399 c 0
 197 418 262 431 299 431 c 0
 392 431 460 379 460 308 c 2
 460 41 l 1
419 112 m 1
 419 202 l 1
 383 211 335 217 291 217 c 0
 185 217 113 174 113 111 c 0
 113 59 158 25 227 25 c 0
 298 25 352 49 419 112 c 1
EndSplineSet
EndChar
StartChar: Cacute
Encoding: 262 262
Width: 600
Flags: W
HStem: -16 41<263 354> 397 20 535 41<271.5 338> 543 20<492 505.5>
VStem: 63 41<242 248 248 319> 478 41<507 536>
Fore
478 507 m 1
 478 536 l 2
 478 554 485 563 499 563 c 0
 512 563 519 554 519 536 c 2
 519 424 l 2
 519 406 512 397 498 397 c 0
 486 397 479 405 478 421 c 0
 474 482 394 535 305 535 c 0
 194 535 104 438 104 319 c 2
 104 248 l 2
 104 128 204 25 322 25 c 0
 391 25 442 51 496 115 c 0
 503 123 507 125 514 125 c 0
 526 125 534 117 534 106 c 0
 534 96 522 79 496 55 c 0
 447 9 386 -16 322 -16 c 0
 186 -16 63 107 63 242 c 2
 63 325 l 2
 63 386 91 456 134 502 c 0
 179 550 238 576 305 576 c 0
 371 576 431 552 478 507 c 1
433 749 m 2
 319 649 l 2
 310 642 306 640 300 640 c 0
 289 640 280 649 280 661 c 0
 280 668 282 671 292 680 c 2
 406 780 l 2
 415 787 419 789 425 789 c 0
 436 789 445 780 445 768 c 0
 445 761 442 757 433 749 c 2
EndSplineSet
EndChar
StartChar: cacute
Encoding: 263 263
Width: 600
Flags: W
HStem: -16 41<256.5 342> 390 41<256 344.5> 397 20<484 497.5>
VStem: 84 41<152.5 260> 470 41<376 389>
Fore
470 376 m 1
 470 389 l 2
 470 408 477 417 491 417 c 0
 504 417 511 408 511 389 c 2
 511 298 l 2
 511 280 504 271 491 271 c 0
 478 271 472 278 470 295 c 0
 466 348 395 390 311 390 c 0
 201 390 125 315 125 205 c 0
 125 100 202 25 311 25 c 0
 384 25 446 49 498 97 c 0
 506 105 509 107 516 107 c 0
 526 107 535 98 535 88 c 0
 535 76 520 58 492 39 c 0
 441 4 375 -16 309 -16 c 0
 178 -16 84 76 84 204 c 0
 84 336 180 431 314 431 c 0
 375 431 429 412 470 376 c 1
433 599 m 2
 319 499 l 2
 310 492 306 490 300 490 c 0
 289 490 280 499 280 511 c 0
 280 518 282 521 292 530 c 2
 406 630 l 2
 415 637 419 639 425 639 c 0
 436 639 445 630 445 618 c 0
 445 611 442 607 433 599 c 2
EndSplineSet
EndChar
StartChar: Ccaron
Encoding: 268 268
Width: 600
Flags: W
HStem: -16 41<263 354> 397 20 535 41<271.5 338> 543 20<492 505.5>
VStem: 63 41<242 248 248 319> 478 41<507 536>
Fore
478 507 m 1
 478 536 l 2
 478 554 485 563 499 563 c 0
 512 563 519 554 519 536 c 2
 519 424 l 2
 519 406 512 397 498 397 c 0
 486 397 479 405 478 421 c 0
 474 482 394 535 305 535 c 0
 194 535 104 438 104 319 c 2
 104 248 l 2
 104 128 204 25 322 25 c 0
 391 25 442 51 496 115 c 0
 503 123 507 125 514 125 c 0
 526 125 534 117 534 106 c 0
 534 96 522 79 496 55 c 0
 447 9 386 -16 322 -16 c 0
 186 -16 63 107 63 242 c 2
 63 325 l 2
 63 386 91 456 134 502 c 0
 179 550 238 576 305 576 c 0
 371 576 431 552 478 507 c 1
300 640 m 1
 168 749 l 1
 158 756 155 760 155 769 c 0
 155 780 164 789 175 789 c 0
 180 789 186 786 193 781 c 2
 300 693 l 1
 407 781 l 2
 414 786 420 789 425 789 c 0
 435 789 445 779 445 769 c 0
 445 761 443 757 432 748 c 2
 300 640 l 1
EndSplineSet
EndChar
StartChar: ccaron
Encoding: 269 269
Width: 600
Flags: W
HStem: -16 41<256.5 342> 390 41<256 344.5> 397 20<484 497.5>
VStem: 84 41<152.5 260> 470 41<376 389>
Fore
470 376 m 1
 470 389 l 2
 470 408 477 417 491 417 c 0
 504 417 511 408 511 389 c 2
 511 298 l 2
 511 280 504 271 491 271 c 0
 478 271 472 278 470 295 c 0
 466 348 395 390 311 390 c 0
 201 390 125 315 125 205 c 0
 125 100 202 25 311 25 c 0
 384 25 446 49 498 97 c 0
 506 105 509 107 516 107 c 0
 526 107 535 98 535 88 c 0
 535 76 520 58 492 39 c 0
 441 4 375 -16 309 -16 c 0
 178 -16 84 76 84 204 c 0
 84 336 180 431 314 431 c 0
 375 431 429 412 470 376 c 1
330 490 m 1
 198 599 l 1
 188 606 185 610 185 619 c 0
 185 630 194 639 205 639 c 0
 210 639 216 636 223 631 c 2
 330 543 l 1
 437 631 l 2
 444 636 450 639 455 639 c 0
 465 639 475 629 475 619 c 0
 475 611 473 607 462 598 c 2
 330 490 l 1
EndSplineSet
EndChar
StartChar: Dcaron
Encoding: 270 270
Width: 600
Flags: MW
HStem: 0 41<70 104 145 290> 522 41<70 104 145 145 145 288>
VStem: 104 41<41 522> 479 41<245 254 254 310>
Fore
104 41 m 1
 104 522 l 1
 70 522 l 2
 52 522 43 529 43 543 c 0
 43 556 52 563 70 563 c 2
 290 563 l 2
 419 563 520 451 520 310 c 2
 520 254 l 2
 520 112 419 0 290 0 c 2
 70 0 l 2
 52 0 43 7 43 21 c 0
 43 34 52 41 70 41 c 2
 104 41 l 1
145 41 m 1
 295 41 l 2
 391 41 479 139 479 245 c 2
 479 318 l 2
 479 371 454 431 414 472 c 0
 379 507 342 522 288 522 c 2
 145 522 l 1
 145 41 l 1
300 640 m 1
 168 749 l 1
 158 756 155 760 155 769 c 0
 155 780 164 789 175 789 c 0
 180 789 186 786 193 781 c 2
 300 693 l 1
 407 781 l 2
 414 786 420 789 425 789 c 0
 435 789 445 779 445 769 c 0
 445 761 443 757 432 748 c 2
 300 640 l 1
EndSplineSet
EndChar
StartChar: dcaron
Encoding: 271 271
Width: 600
Flags: W
HStem: -16 41<233 316.5> 0 41<502 556> 390 41<232.5 316.5> 419 20<531.5 541.5> 563 41<407 461>
VStem: 63 41<157 258.5> 461 41<41 89 89 89 156 258 327 563 563 563> 461 122<14 27.5> 461 41
Fore
502 604 m 1
 502 41 l 1
 556 41 l 2
 574 41 583 34 583 21 c 0
 583 7 574 0 556 0 c 2
 461 0 l 1
 461 89 l 1
 414 19 354 -16 279 -16 c 0
 160 -16 63 85 63 208 c 0
 63 331 160 431 279 431 c 0
 354 431 412 398 461 327 c 1
 461 563 l 1
 407 563 l 2
 389 563 380 570 380 584 c 0
 380 597 389 604 407 604 c 2
 502 604 l 1
282 390 m 0
 183 390 104 309 104 208 c 0
 104 106 183 25 283 25 c 0
 381 25 461 106 461 206 c 0
 461 310 383 390 282 390 c 0
642 579 m 1
 558 453 l 2
 550 442 546 439 537 439 c 0
 526 439 517 448 517 460 c 0
 517 464 519 469 524 476 c 2
 608 602 l 2
 615 612 621 616 629 616 c 0
 641 616 650 607 650 595 c 0
 650 592 648 588 645 583 c 2
 642 579 l 1
EndSplineSet
EndChar
StartChar: dcroat
Encoding: 273 273
Width: 600
Flags: W
HStem: -16 41<233 317> 0 41<502 556> 390 41<232.5 317> 479 41<323 461 502 556> 563 41<407 461>
VStem: 63 41<157 258.5> 461 122<14 27.5> 461 41<41 81 81 81 155.5 257.5 335 479 520 563 563 563> 461 122 461 41
Fore
502 520 m 5
 556 520 l 6
 574 520 583 513 583 500 c 4
 583 486 574 479 556 479 c 6
 502 479 l 5
 502 41 l 1
 556 41 l 2
 574 41 583 34 583 21 c 0
 583 7 574 0 556 0 c 2
 461 0 l 1
 461 81 l 1
 414 16 354 -16 280 -16 c 0
 160 -16 63 84 63 208 c 0
 63 331 160 431 280 431 c 0
 354 431 412 400 461 335 c 1
 461 479 l 5
 323 479 l 6
 305 479 296 486 296 500 c 4
 296 513 305 520 323 520 c 6
 461 520 l 5
 461 563 l 1
 407 563 l 2
 389 563 380 570 380 584 c 0
 380 597 389 604 407 604 c 2
 502 604 l 1
 502 520 l 5
282 390 m 0
 183 390 104 309 104 208 c 0
 104 106 183 25 283 25 c 0
 381 25 461 106 461 205 c 0
 461 310 383 390 282 390 c 0
EndSplineSet
EndChar
StartChar: Emacron
Encoding: 274 274
Width: 600
Flags: W
HStem: 0 41<70 124 165 479> 272 41<165 310> 397 20 522 41<70 124 165 165 165 458> 686 40<182 418>
VStem: 124 41<41 272 313 522> 310 41<227 272 272 272 313 358> 458 41<424 522 522 522> 479 41<41 160>
Fore
165 272 m 1
 165 41 l 1
 479 41 l 1
 479 160 l 2
 479 178 486 187 500 187 c 0
 513 187 520 178 520 160 c 2
 520 0 l 1
 70 0 l 2
 52 0 43 7 43 21 c 0
 43 34 52 41 70 41 c 2
 124 41 l 1
 124 522 l 1
 70 522 l 2
 52 522 43 529 43 543 c 0
 43 556 52 563 70 563 c 2
 499 563 l 1
 499 424 l 2
 499 406 492 397 478 397 c 0
 465 397 458 406 458 424 c 2
 458 522 l 1
 165 522 l 1
 165 313 l 1
 310 313 l 1
 310 358 l 2
 310 376 317 385 331 385 c 0
 344 385 351 376 351 358 c 2
 351 227 l 2
 351 209 344 200 331 200 c 0
 317 200 310 209 310 227 c 2
 310 272 l 1
 165 272 l 1
418 686 m 2
 182 686 l 2
 164 686 155 693 155 706 c 0
 155 719 164 726 182 726 c 2
 418 726 l 2
 436 726 445 719 445 706 c 0
 445 693 436 686 418 686 c 2
EndSplineSet
EndChar
StartChar: emacron
Encoding: 275 275
Width: 600
Flags: W
HStem: -16 41<252 337> 199 41<104 478> 390 41<242.5 339> 536 40<182 418>
Fore
520 199 m 1
 104 199 l 1
 118 94 198 25 306 25 c 0
 368 25 441 47 481 79 c 0
 488 84 492 86 497 86 c 0
 507 86 516 77 516 66 c 0
 516 31 396 -16 305 -16 c 0
 170 -16 63 87 63 217 c 0
 63 338 163 431 291 431 c 0
 387 431 467 380 503 297 c 0
 517 264 520 245 520 199 c 1
104 240 m 1
 478 240 l 1
 462 331 388 390 291 390 c 0
 194 390 122 332 104 240 c 1
418 536 m 2
 182 536 l 2
 164 536 155 543 155 556 c 0
 155 569 164 576 182 576 c 2
 418 576 l 2
 436 576 445 569 445 556 c 0
 445 543 436 536 418 536 c 2
EndSplineSet
EndChar
StartChar: Edotaccent
Encoding: 278 278
Width: 600
Flags: W
HStem: 0 41<70 124 165 479> 272 41<165 310> 397 20 522 41<70 124 165 165 165 458>
VStem: 124 41<41 272 313 522> 310 41<227 272 272 272 313 358> 458 41<424 522 522 522> 479 41<41 160>
Fore
165 272 m 1
 165 41 l 1
 479 41 l 1
 479 160 l 2
 479 178 486 187 500 187 c 0
 513 187 520 178 520 160 c 2
 520 0 l 1
 70 0 l 2
 52 0 43 7 43 21 c 0
 43 34 52 41 70 41 c 2
 124 41 l 1
 124 522 l 1
 70 522 l 2
 52 522 43 529 43 543 c 0
 43 556 52 563 70 563 c 2
 499 563 l 1
 499 424 l 2
 499 406 492 397 478 397 c 0
 465 397 458 406 458 424 c 2
 458 522 l 1
 165 522 l 1
 165 313 l 1
 310 313 l 1
 310 358 l 2
 310 376 317 385 331 385 c 0
 344 385 351 376 351 358 c 2
 351 227 l 2
 351 209 344 200 331 200 c 0
 317 200 310 209 310 227 c 2
 310 272 l 1
 165 272 l 1
300 761 m 0
 328 761 350 738 350 710 c 0
 350 684 327 661 300 661 c 0
 273 661 250 684 250 711 c 0
 250 738 273 761 300 761 c 0
EndSplineSet
EndChar
StartChar: edotaccent
Encoding: 279 279
Width: 600
Flags: MW
HStem: -16 41<252 337> 199 41<104 478> 390 41<242.5 339>
Fore
520 199 m 1
 104 199 l 1
 118 94 198 25 306 25 c 0
 368 25 441 47 481 79 c 0
 488 84 492 86 497 86 c 0
 507 86 516 77 516 66 c 0
 516 31 396 -16 305 -16 c 0
 170 -16 63 87 63 217 c 0
 63 338 163 431 291 431 c 0
 387 431 467 380 503 297 c 0
 517 264 520 245 520 199 c 1
104 240 m 1
 478 240 l 1
 462 331 388 390 291 390 c 0
 194 390 122 332 104 240 c 1
300 611 m 0
 328 611 350 588 350 560 c 0
 350 534 327 511 300 511 c 0
 273 511 250 534 250 561 c 0
 250 588 273 611 300 611 c 0
EndSplineSet
EndChar
StartChar: Eogonek
Encoding: 280 280
Width: 600
Flags: W
HStem: -155 32<463.5 487.5> 0 41<70 124 165 473> 272 41<165 310> 397 20 522 41<70 124 165 165 165 458>
VStem: 124 41<41 272 313 522> 310 41<227 272 272 272 313 358> 395 39<-100.5 -75.5> 458 41<424 522 522 522> 479 41<41 160>
Fore
165 272 m 1
 165 41 l 1
 479 41 l 1
 479 160 l 2
 479 178 486 187 500 187 c 0
 513 187 520 178 520 160 c 2
 520 0 l 1
 493 -15 l 2
 455 -36 434 -62 434 -89 c 0
 434 -112 449 -123 478 -123 c 0
 497 -123 502 -121 526 -107 c 0
 530 -105 533 -104 535 -104 c 0
 542 -104 549 -111 549 -119 c 0
 549 -136 509 -155 472 -155 c 0
 424 -155 395 -132 395 -94 c 0
 395 -53 416 -27 473 0 c 1
 70 0 l 2
 52 0 43 7 43 21 c 0
 43 34 52 41 70 41 c 2
 124 41 l 1
 124 522 l 1
 70 522 l 2
 52 522 43 529 43 543 c 0
 43 556 52 563 70 563 c 2
 499 563 l 1
 499 424 l 2
 499 406 492 397 478 397 c 0
 465 397 458 406 458 424 c 2
 458 522 l 1
 165 522 l 1
 165 313 l 1
 310 313 l 1
 310 358 l 2
 310 376 317 385 331 385 c 0
 344 385 351 376 351 358 c 2
 351 227 l 2
 351 209 344 200 331 200 c 0
 317 200 310 209 310 227 c 2
 310 272 l 1
 165 272 l 1
EndSplineSet
EndChar
StartChar: eogonek
Encoding: 281 281
Width: 600
Flags: MW
HStem: -155 32<374.5 399> -16 41<252 314.5> 199 41<104 478> 390 41<242.5 339>
VStem: 307 39<-100.5 -77>
Fore
520 199 m 1
 104 199 l 1
 118 94 198 25 306 25 c 0
 368 25 441 47 481 79 c 0
 488 84 492 86 497 86 c 0
 507 86 516 77 516 66 c 0
 516 53 503 42 468 22 c 0
 370 -32 346 -54 346 -89 c 0
 346 -112 360 -123 389 -123 c 0
 409 -123 414 -121 438 -107 c 0
 441 -105 444 -104 446 -104 c 0
 453 -104 460 -111 460 -119 c 0
 460 -136 421 -155 383 -155 c 0
 335 -155 307 -132 307 -94 c 0
 307 -60 325 -33 361 -11 c 1
 337 -15 323 -16 306 -16 c 0
 170 -16 63 86 63 217 c 0
 63 338 163 431 291 431 c 0
 387 431 467 380 503 297 c 0
 517 264 520 245 520 199 c 1
104 240 m 1
 478 240 l 1
 462 331 388 390 291 390 c 0
 194 390 122 332 104 240 c 1
EndSplineSet
EndChar
StartChar: Ecaron
Encoding: 282 282
Width: 600
Flags: W
HStem: 0 41<70 124 165 479> 272 41<165 310> 397 20 522 41<70 124 165 165 165 458>
VStem: 124 41<41 272 313 522> 310 41<227 272 272 272 313 358> 458 41<424 522 522 522> 479 41<41 160>
Fore
165 272 m 1
 165 41 l 1
 479 41 l 1
 479 160 l 2
 479 178 486 187 500 187 c 0
 513 187 520 178 520 160 c 2
 520 0 l 1
 70 0 l 2
 52 0 43 7 43 21 c 0
 43 34 52 41 70 41 c 2
 124 41 l 1
 124 522 l 1
 70 522 l 2
 52 522 43 529 43 543 c 0
 43 556 52 563 70 563 c 2
 499 563 l 1
 499 424 l 2
 499 406 492 397 478 397 c 0
 465 397 458 406 458 424 c 2
 458 522 l 1
 165 522 l 1
 165 313 l 1
 310 313 l 1
 310 358 l 2
 310 376 317 385 331 385 c 0
 344 385 351 376 351 358 c 2
 351 227 l 2
 351 209 344 200 331 200 c 0
 317 200 310 209 310 227 c 2
 310 272 l 1
 165 272 l 1
300 640 m 1
 168 749 l 1
 158 756 155 760 155 769 c 0
 155 780 164 789 175 789 c 0
 180 789 186 786 193 781 c 2
 300 693 l 1
 407 781 l 2
 414 786 420 789 425 789 c 0
 435 789 445 779 445 769 c 0
 445 761 443 757 432 748 c 2
 300 640 l 1
EndSplineSet
EndChar
StartChar: ecaron
Encoding: 283 283
Width: 600
Flags: MW
HStem: -16 41<252 337> 199 41<104 478> 390 41<242.5 339>
Fore
520 199 m 1
 104 199 l 1
 118 94 198 25 306 25 c 0
 368 25 441 47 481 79 c 0
 488 84 492 86 497 86 c 0
 507 86 516 77 516 66 c 0
 516 31 396 -16 305 -16 c 0
 170 -16 63 87 63 217 c 0
 63 338 163 431 291 431 c 0
 387 431 467 380 503 297 c 0
 517 264 520 245 520 199 c 1
104 240 m 1
 478 240 l 1
 462 331 388 390 291 390 c 0
 194 390 122 332 104 240 c 1
300 490 m 1
 168 599 l 1
 158 606 155 610 155 619 c 0
 155 630 164 639 175 639 c 0
 180 639 186 636 193 631 c 2
 300 543 l 1
 407 631 l 2
 414 636 420 639 425 639 c 0
 435 639 445 629 445 619 c 0
 445 611 443 607 432 598 c 2
 300 490 l 1
EndSplineSet
EndChar
StartChar: Gbreve
Encoding: 286 286
Width: 600
Flags: W
HStem: -16 41<264 362> 209 41<340 479 520 534 520 520> 398 20<493.5 506.5> 535 41<287 346> 543 20<493 507> 640 41<302 358>
VStem: 63 41<244 317> 479 41<59 209 522 536>
Fore
520 209 m 1
 520 36 l 1
 461 2 395 -16 333 -16 c 0
 169 -16 63 86 63 244 c 2
 63 318 l 2
 63 389 94 463 144 511 c 0
 189 553 247 576 313 576 c 0
 379 576 434 558 479 522 c 1
 479 536 l 2
 479 554 486 563 500 563 c 0
 514 563 520 555 520 536 c 2
 520 445 l 2
 520 427 513 418 500 418 c 0
 487 418 481 426 480 443 c 0
 476 494 404 535 315 535 c 0
 259 535 214 518 176 481 c 0
 132 440 104 376 104 317 c 2
 104 244 l 2
 104 108 192 25 336 25 c 0
 388 25 423 33 479 59 c 1
 479 209 l 1
 340 209 l 2
 322 209 313 216 313 230 c 0
 313 243 322 250 340 250 c 2
 534 250 l 2
 553 250 562 243 562 230 c 0
 562 216 553 209 534 209 c 2
 520 209 l 1
206 770 m 0
 218 770 224 763 226 748 c 0
 229 710 274 681 330 681 c 0
 386 681 430 710 434 748 c 0
 436 763 442 770 455 770 c 0
 466 770 475 761 475 747 c 0
 475 687 412 640 330 640 c 0
 248 640 185 687 185 747 c 0
 185 761 193 770 206 770 c 0
EndSplineSet
EndChar
StartChar: gbreve
Encoding: 287 287
Width: 600
Flags: W
HStem: -186 41<202 316> 10 41<225.5 305> 376 41<481 535 481 481> 390 41<225 305.5> 490 41<272 328>
VStem: 63 41<173.5 268> 440 41<-22 107 107 107 172.5 267.5 334 376> 440 122<390 403.5> 440 41
Fore
440 334 m 1
 440 417 l 1
 535 417 l 2
 553 417 562 410 562 397 c 0
 562 383 553 376 535 376 c 2
 481 376 l 1
 481 -28 l 2
 481 -69 468 -100 438 -132 c 0
 403 -169 366 -186 316 -186 c 2
 202 -186 l 2
 184 -186 175 -179 175 -165 c 0
 175 -152 184 -145 202 -145 c 2
 318 -145 l 2
 386 -145 440 -90 440 -22 c 2
 440 107 l 1
 395 41 341 10 269 10 c 0
 156 10 63 105 63 221 c 0
 63 337 156 431 269 431 c 0
 342 431 395 401 440 334 c 1
272 390 m 0
 178 390 104 315 104 221 c 0
 104 126 179 51 272 51 c 0
 365 51 440 126 440 219 c 0
 440 316 367 390 272 390 c 0
176 620 m 0
 188 620 194 613 196 598 c 0
 199 560 244 531 300 531 c 0
 356 531 400 560 404 598 c 0
 406 613 412 620 425 620 c 0
 436 620 445 611 445 597 c 0
 445 537 382 490 300 490 c 0
 218 490 155 537 155 597 c 0
 155 611 163 620 176 620 c 0
EndSplineSet
EndChar
StartChar: Gcommaaccent
Encoding: 290 290
Width: 600
Flags: W
HStem: -16 41<264 362> 209 41<340 479 520 534 520 520> 398 20<493.5 506.5> 535 41<287 346> 543 20<493 507>
VStem: 63 41<244 317> 479 41<59 209 522 536>
Fore
520 209 m 1
 520 36 l 1
 461 2 395 -16 333 -16 c 0
 169 -16 63 86 63 244 c 2
 63 318 l 2
 63 389 94 463 144 511 c 0
 189 553 247 576 313 576 c 0
 379 576 434 558 479 522 c 1
 479 536 l 2
 479 554 486 563 500 563 c 0
 514 563 520 555 520 536 c 2
 520 445 l 2
 520 427 513 418 500 418 c 0
 487 418 481 426 480 443 c 0
 476 494 404 535 315 535 c 0
 259 535 214 518 176 481 c 0
 132 440 104 376 104 317 c 2
 104 244 l 2
 104 108 192 25 336 25 c 0
 388 25 423 33 479 59 c 1
 479 209 l 1
 340 209 l 2
 322 209 313 216 313 230 c 0
 313 243 322 250 340 250 c 2
 534 250 l 2
 553 250 562 243 562 230 c 0
 562 216 553 209 534 209 c 2
 520 209 l 1
358 -97 m 1
 274 -223 l 2
 266 -234 262 -237 253 -237 c 0
 242 -237 233 -228 233 -216 c 0
 233 -212 235 -207 240 -200 c 2
 324 -74 l 2
 331 -64 337 -60 345 -60 c 0
 357 -60 366 -69 366 -81 c 0
 366 -84 364 -88 361 -93 c 2
 358 -97 l 1
EndSplineSet
EndChar
StartChar: gcommaaccent
Encoding: 291 291
Width: 600
Flags: W
HStem: -186 41<202 316> 10 41<225.5 305> 376 41<481 535 481 481> 390 41<225 305.5>
VStem: 63 41<173.5 268> 440 41<-22 107 107 107 172.5 267.5 334 376> 440 122<390 403.5> 440 41
Fore
440 334 m 1
 440 417 l 1
 535 417 l 2
 553 417 562 410 562 397 c 0
 562 383 553 376 535 376 c 2
 481 376 l 1
 481 -28 l 2
 481 -69 468 -100 438 -132 c 0
 403 -169 366 -186 316 -186 c 2
 202 -186 l 2
 184 -186 175 -179 175 -165 c 0
 175 -152 184 -145 202 -145 c 2
 318 -145 l 2
 386 -145 440 -90 440 -22 c 2
 440 107 l 1
 395 41 341 10 269 10 c 0
 156 10 63 105 63 221 c 0
 63 337 156 431 269 431 c 0
 342 431 395 401 440 334 c 1
272 390 m 0
 178 390 104 315 104 221 c 0
 104 126 179 51 272 51 c 0
 365 51 440 126 440 219 c 0
 440 316 367 390 272 390 c 0
358 629 m 1
 274 503 l 2
 266 492 262 489 253 489 c 0
 242 489 233 498 233 510 c 0
 233 514 235 519 240 526 c 2
 324 652 l 2
 331 662 337 666 345 666 c 0
 357 666 366 657 366 645 c 0
 366 642 364 638 361 633 c 2
 358 629 l 1
EndSplineSet
EndChar
StartChar: Hbar
Encoding: 294 294
Width: 600
Flags: W
HStem: 0 41<73 125 168 229 373 436 479 533> 272 41<168 436> 413 40<101 125 168 436 479 503> 522 41<90.4704 125 168 229 373 436 479 505>
VStem: 126 41<41 271 314 412 454 522> 437 41<41 271 314 412 454 522>
Fore
478 453 m 1
 486.521 453 l 2
 515.507 453 530 446 530 433 c 0
 530 420 515.507 413 486.521 413 c 2
 478 413 l 1
 478 41 l 1
 524 41 l 2
 542 41 551 34 551 21 c 0
 551 7 541 0 524 0 c 2
 383 0 l 2
 365 0 356 7 356 21 c 0
 356 34 365 41 383 41 c 2
 437 41 l 1
 437 272 l 1
 167 272 l 1
 167 41 l 1
 221 41 l 2
 239 41 248 34 248 21 c 0
 248 7 239 0 221 0 c 2
 81 0 l 2
 63 0 53 7 53 21 c 0
 53 34 62 41 81 41 c 2
 126 41 l 1
 126 413 l 1
 117.479 413 l 2
 88.4932 413 74 420 74 433 c 0
 74 446 88.4932 453 117.479 453 c 2
 126 453 l 1
 126 522 l 1
 101 522 l 2
 83 522 74 529 74 543 c 0
 74 556 83 563 101 563 c 2
 221 563 l 2
 239 563 248 556 248 543 c 0
 248 529 239 522 221 522 c 2
 167 522 l 1
 167 453 l 1
 437 453 l 1
 437 522 l 1
 383 522 l 2
 365 522 356 529 356 543 c 0
 356 556 365 563 383 563 c 2
 503 563 l 2
 521 563 530 556 530 543 c 0
 530 529 521 522 503 522 c 2
 478 522 l 1
 478 453 l 1
437 413 m 1
 167 413 l 1
 167 313 l 1
 437 313 l 1
 437 413 l 1
EndSplineSet
MinimumDistance: x0,-1 x0,0 x0,0 x0,0 x0,0 x0,0 x0,0 x0,0 x0,0 x0,0 x0,0 x0,0 x0,0 x0,0 x0,0 x0,0 x0,0 x0,0 x0,0 x0,0 x0,0 
EndChar
StartChar: hbar
Encoding: 295 295
Width: 600
Flags: W
HStem: 0 41<69 123 166 219 381.47 436 478 525> 390 41<299 335> 469 40<59.43 123 165 316> 563 41<59.4704 123>
VStem: 124 41<41 296 348 469 509 563> 437 41<41 298>
Fore
124 509 m 1
 124 563 l 1
 70 563 l 2
 52 563 43 570 43 584 c 0
 43 597 52 604 70 604 c 2
 165 604 l 1
 165 509 l 1
 306 509 l 2
 324 509 333 502 333 489 c 0
 333 476 324 469 306 469 c 2
 165 469 l 1
 165 347 l 1
 216 408 258 431 319 431 c 0
 412 431 478 372 478 291 c 2
 478 41 l 1
 523 41 l 2
 542 41 551 34 551 21 c 0
 551 7 542 0 523 0 c 2
 392 0 l 2
 374 0 365 7 365 21 c 0
 365 34 374 41 392 41 c 2
 437 41 l 1
 437 288 l 2
 437 318 424 344 399 364 c 0
 376 383 354 390 314 390 c 0
 258 390 230 373 176 309 c 2
 165 296 l 1
 165 41 l 1
 210 41 l 2
 229 41 238 34 238 21 c 0
 238 7 228 0 210 0 c 2
 78 0 l 2
 61 0 51 7 51 21 c 0
 51 34 60 41 78 41 c 2
 124 41 l 1
 124 469 l 1
 70 469 l 2
 52 469 43 476 43 489 c 0
 43 502 52 509 70 509 c 2
 124 509 l 1
EndSplineSet
MinimumDistance: x0,-1 x0,0 y0,0 y0,0 x0,0 x0,0 x0,0 x0,0 x0,0 x0,0 x0,0 x0,0 x0,0 x0,0 x0,0 x0,0 x0,0 x0,0 
EndChar
StartChar: Imacron
Encoding: 298 298
Width: 600
Flags: W
HStem: 0 41<140 279 320 459> 522 41<140 279 320 459 320 320> 686 40<182 418>
VStem: 279 41<41 522>
Fore
320 522 m 1
 320 41 l 1
 459 41 l 2
 478 41 487 34 487 21 c 0
 487 7 477 0 459 0 c 2
 140 0 l 2
 122 0 113 7 113 21 c 0
 113 34 122 41 140 41 c 2
 279 41 l 1
 279 522 l 1
 140 522 l 2
 122 522 113 529 113 543 c 0
 113 556 122 563 140 563 c 2
 459 563 l 2
 478 563 487 556 487 543 c 0
 487 529 478 522 459 522 c 2
 320 522 l 1
418 686 m 2
 182 686 l 2
 164 686 155 693 155 706 c 0
 155 719 164 726 182 726 c 2
 418 726 l 2
 436 726 445 719 445 706 c 0
 445 693 436 686 418 686 c 2
EndSplineSet
EndChar
StartChar: imacron
Encoding: 299 299
Width: 600
Flags: W
HStem: 0 41<119 279 320 480> 376 41<161 279> 536 40<182 418>
VStem: 279 41<41 376 376 376>
Fore
320 417 m 1
 320 41 l 1
 480 41 l 2
 499 41 508 34 508 21 c 0
 508 7 498 0 480 0 c 2
 119 0 l 2
 101 0 92 7 92 21 c 0
 92 34 101 41 119 41 c 2
 279 41 l 1
 279 376 l 1
 161 376 l 2
 143 376 134 383 134 397 c 0
 134 410 143 417 161 417 c 2
 320 417 l 1
418 536 m 2
 182 536 l 2
 164 536 155 543 155 556 c 0
 155 569 164 576 182 576 c 2
 418 576 l 2
 436 576 445 569 445 556 c 0
 445 543 436 536 418 536 c 2
EndSplineSet
EndChar
StartChar: Iogonek
Encoding: 302 302
Width: 600
Flags: MW
HStem: -155 32<414.5 439> 0 41<140 279 320 424> 522 41<140 279 320 459 320 320>
VStem: 279 41<41 522> 347 39<-100.5 -80.5>
Fore
320 522 m 1
 320 41 l 1
 459 41 l 2
 478 41 487 34 487 21 c 0
 487 11 482 5 468 -1 c 0
 451 -10 421 -30 409 -41 c 0
 394 -55 386 -72 386 -89 c 0
 386 -112 400 -123 429 -123 c 0
 449 -123 454 -121 478 -107 c 0
 481 -105 484 -104 486 -104 c 0
 493 -104 500 -111 500 -119 c 0
 500 -136 461 -155 423 -155 c 0
 375 -155 347 -132 347 -94 c 0
 347 -52 368 -27 424 0 c 1
 140 0 l 2
 122 0 113 7 113 21 c 0
 113 34 122 41 140 41 c 2
 279 41 l 1
 279 522 l 1
 140 522 l 2
 122 522 113 529 113 543 c 0
 113 556 122 563 140 563 c 2
 459 563 l 2
 478 563 487 556 487 543 c 0
 487 529 478 522 459 522 c 2
 320 522 l 1
EndSplineSet
EndChar
StartChar: iogonek
Encoding: 303 303
Width: 600
Flags: W
HStem: -155 32<434.5 459> 0 41<119 279 320 444> 376 41<161 279> 520 104<259 318>
VStem: 259 59<520 624> 279 41<41 376 376 376> 367 39<-100.5 -73>
Fore
320 417 m 1
 320 41 l 1
 480 41 l 2
 499 41 508 34 508 21 c 0
 508 12 504 6 495 2 c 0
 426 -35 406 -56 406 -89 c 0
 406 -112 420 -123 449 -123 c 0
 469 -123 474 -121 498 -107 c 0
 501 -105 504 -104 506 -104 c 0
 513 -104 520 -111 520 -119 c 0
 520 -136 481 -155 443 -155 c 0
 395 -155 367 -132 367 -94 c 0
 367 -52 388 -27 444 0 c 1
 119 0 l 2
 101 0 92 7 92 21 c 0
 92 34 101 41 119 41 c 2
 279 41 l 1
 279 376 l 1
 161 376 l 2
 143 376 134 383 134 397 c 0
 134 410 143 417 161 417 c 2
 320 417 l 1
318 624 m 1
 318 520 l 1
 259 520 l 1
 259 624 l 1
 318 624 l 1
EndSplineSet
EndChar
StartChar: Idotaccent
Encoding: 304 304
Width: 600
Flags: MW
HStem: 0 41<140 279 320 459> 522 41<140 279 320 459 320 320>
VStem: 279 41<41 522>
Fore
320 522 m 1
 320 41 l 1
 459 41 l 2
 478 41 487 34 487 21 c 0
 487 7 477 0 459 0 c 2
 140 0 l 2
 122 0 113 7 113 21 c 0
 113 34 122 41 140 41 c 2
 279 41 l 1
 279 522 l 1
 140 522 l 2
 122 522 113 529 113 543 c 0
 113 556 122 563 140 563 c 2
 459 563 l 2
 478 563 487 556 487 543 c 0
 487 529 478 522 459 522 c 2
 320 522 l 1
300 761 m 0
 328 761 350 738 350 710 c 0
 350 684 327 661 300 661 c 0
 273 661 250 684 250 711 c 0
 250 738 273 761 300 761 c 0
EndSplineSet
EndChar
StartChar: dotlessi
Encoding: 305 305
Width: 600
Flags: MW
HStem: 0 41<119 279 320 480> 376 41<161 279>
VStem: 279 41<41 376 376 376>
Fore
320 417 m 1
 320 41 l 1
 480 41 l 2
 499 41 508 34 508 21 c 0
 508 7 498 0 480 0 c 2
 119 0 l 2
 101 0 92 7 92 21 c 0
 92 34 101 41 119 41 c 2
 279 41 l 1
 279 376 l 1
 161 376 l 2
 143 376 134 383 134 397 c 0
 134 410 143 417 161 417 c 2
 320 417 l 1
EndSplineSet
EndChar
StartChar: IJ
Encoding: 306 306
Width: 600
Flags: W
HStem: -16 41<332 365> 0 41<45.4704 99 142 189> 522 41<45.4704 99 142 189 349 452 494 546>
VStem: 100 41<41 522> 210 41<93 225> 453 41<144 522>
Fore
494 522 m 1
 494 165 l 2
 494 66 454 -16 351 -16 c 0
 287 -16 251 12 210 74 c 1
 210 223 l 2
 210 241 217 250 231 250 c 0
 244 250 251 241 251 223 c 2
 251 93 l 1
 283 38 302 25 352 25 c 0
 433 25 453 87 453 165 c 2
 453 522 l 1
 358 522 l 2
 340 522 331 529 331 543 c 0
 331 556 340 563 358 563 c 2
 544 563 l 2
 562 563 571 556 571 543 c 0
 571 529 562 522 544 522 c 2
 494 522 l 1
141 522 m 1
 141 41 l 1
 185 41 l 2
 204 41 213 34 213 21 c 0
 213 7 203 0 185 0 c 2
 56 0 l 2
 38 0 29 7 29 21 c 0
 29 34 38 41 56 41 c 2
 100 41 l 1
 100 522 l 1
 56 522 l 2
 38 522 29 529 29 543 c 0
 29 556 38 563 56 563 c 2
 185 563 l 2
 204 563 213 556 213 543 c 0
 213 529 204 522 185 522 c 2
 141 522 l 1
EndSplineSet
MinimumDistance: x0,-1 x0,0 x0,0 x0,0 x0,0 x0,0 x0,0 x0,0 x0,0 x0,0 x0,0 x0,0 x0,0 
Ligature: I J
EndChar
StartChar: ij
Encoding: 307 307
Width: 600
Flags: W
HStem: -186 41<188 332> 0 41<140.47 216 258 332> 376 41<151 216 348 434> 520 104<211 268 425 482>
VStem: 210 59<521 623> 217 41<41 376> 435 41<-42 376>
Fore
435 376 m 1
 354 376 l 2
 336 376 327 383 327 397 c 0
 327 410 336 417 354 417 c 2
 476 417 l 1
 476 -28 l 2
 476 -121 412 -186 321 -186 c 2
 192 -186 l 2
 174 -186 165 -179 165 -165 c 0
 165 -152 174 -145 192 -145 c 2
 320 -145 l 2
 386 -145 435 -96 435 -28 c 2
 435 376 l 1
483 624 m 1
 483 520 l 1
 424 520 l 1
 424 624 l 1
 483 624 l 1
258 417 m 1
 258 41 l 1
 322 41 l 2
 341 41 350 34 350 21 c 0
 350 7 340 0 322 0 c 2
 151 0 l 2
 133 0 124 7 124 21 c 0
 124 34 133 41 151 41 c 2
 217 41 l 1
 217 376 l 1
 161 376 l 2
 143 376 134 383 134 397 c 0
 134 410 143 417 161 417 c 2
 258 417 l 1
269 624 m 1
 269 520 l 1
 210 520 l 1
 210 624 l 1
 269 624 l 1
EndSplineSet
MinimumDistance: x0,-1 x0,0 y0,0 y0,0 x0,0 x0,0 x0,0 x0,0 x0,0 x0,0 x0,0 x0,0 x0,0 x0,0 
Ligature: i j
EndChar
StartChar: jcircumflex
Encoding: 309 309
Width: 600
HStem: -186 41<169 307> 376 41<169 416>
VStem: 417 41<-42 376>
DStem: 302.5 672 302.5 725 409.5 584 434.5 617 302.5 725 302.5 672 170.5 616 195.5 584 302.5 672 302.5 725 409.5 584 434.5 617 302.5 725 302.5 672 170.5 616 195.5 584 302.5 672 302.5 725 409.5 584 434.5 617 302.5 725 302.5 672 170.5 616 195.5 584 302.5 672 302.5 725 409.5 584 434.5 617 302.5 725 302.5 672 170.5 616 195.5 584 302.5 672 302.5 725 409.5 584 434.5 617 302.5 725 302.5 672 170.5 616 195.5 584 302.5 672 302.5 725 409.5 584 434.5 617 302.5 725 302.5 672 170.5 616 195.5 584 302.5 672 302.5 725 409.5 584 434.5 617 302.5 725 302.5 672 170.5 616 195.5 584
Fore
417 376 m 1
 176 376 l 2
 158 376 149 383 149 397 c 0
 149 410 158 417 176 417 c 2
 458 417 l 1
 458 -28 l 2
 458 -121 394 -186 303 -186 c 2
 174 -186 l 2
 156 -186 147 -179 147 -165 c 0
 147 -152 156 -145 174 -145 c 2
 302 -145 l 2
 368 -145 417 -96 417 -28 c 2
 417 376 l 1
302.5 725 m 1
 434.5 617 l 2
 445.5 608 447.5 604 447.5 596 c 0
 447.5 585 438.5 576 427.5 576 c 0
 422.5 576 416.5 579 409.5 584 c 2
 302.5 672 l 1
 195.5 584 l 2
 188.5 579 182.5 576 177.5 576 c 0
 166.5 576 157.5 585 157.5 596 c 0
 157.5 604 160.5 609 170.5 616 c 1
 302.5 725 l 1
EndSplineSet
MinimumDistance: x0,-1 x0,0 x0,0 x0,0 x0,0 
EndChar
StartChar: Kcommaaccent
Encoding: 310 310
Width: 600
Flags: MW
HStem: 0 41<70 124 165 240 489 545> 522 41<70 124 165 165 165 240 400 445 502 502 502 518>
VStem: 124 41<41 221 273 522>
Fore
165 221 m 1
 165 41 l 1
 240 41 l 2
 258 41 267 34 267 21 c 0
 267 7 258 0 240 0 c 2
 70 0 l 2
 52 0 43 7 43 21 c 0
 43 34 52 41 70 41 c 2
 124 41 l 1
 124 522 l 1
 70 522 l 2
 52 522 43 529 43 543 c 0
 43 556 52 563 70 563 c 2
 240 563 l 2
 258 563 267 556 267 543 c 0
 267 529 258 522 240 522 c 2
 165 522 l 1
 165 273 l 1
 445 522 l 1
 400 522 l 2
 381 522 372 529 372 543 c 0
 372 556 381 563 400 563 c 2
 518 563 l 2
 537 563 546 556 546 543 c 0
 546 529 537 522 518 522 c 2
 502 522 l 1
 280 324 l 1
 377 284 414 233 489 41 c 1
 545 41 l 2
 563 41 572 34 572 21 c 0
 572 7 563 0 545 0 c 2
 458 0 l 1
 385 203 341 263 246 294 c 1
 165 221 l 1
358 -97 m 1
 274 -223 l 2
 266 -234 262 -237 253 -237 c 0
 242 -237 233 -228 233 -216 c 0
 233 -212 235 -207 240 -200 c 2
 324 -74 l 2
 331 -64 337 -60 345 -60 c 0
 357 -60 366 -69 366 -81 c 0
 366 -84 364 -88 361 -93 c 2
 358 -97 l 1
EndSplineSet
EndChar
StartChar: kcommaaccent
Encoding: 311 311
Width: 600
Flags: W
HStem: 0 41<90 144 383 411 469 514> 376 41<336 358 419 419 419 466> 563 41<90 144>
VStem: 63 122<14 27.5 577 590.5> 144 41<41 180 229 563 563 563>
Fore
185 180 m 1
 185 0 l 1
 90 0 l 2
 72 0 63 7 63 21 c 0
 63 34 72 41 90 41 c 2
 144 41 l 1
 144 563 l 1
 90 563 l 2
 72 563 63 570 63 584 c 0
 63 597 72 604 90 604 c 2
 185 604 l 1
 185 229 l 1
 358 376 l 1
 336 376 l 2
 318 376 309 383 309 397 c 0
 309 410 318 417 336 417 c 2
 466 417 l 2
 484 417 493 410 493 397 c 0
 493 383 484 376 466 376 c 2
 419 376 l 1
 262 245 l 1
 469 41 l 1
 514 41 l 2
 532 41 541 34 541 21 c 0
 541 7 532 0 514 0 c 2
 383 0 l 2
 365 0 356 7 356 21 c 0
 356 34 365 41 383 41 c 2
 411 41 l 1
 231 219 l 1
 185 180 l 1
318 -97 m 1
 234 -223 l 2
 226 -234 222 -237 213 -237 c 0
 202 -237 193 -228 193 -216 c 0
 193 -212 195 -207 200 -200 c 2
 284 -74 l 2
 291 -64 297 -60 305 -60 c 0
 317 -60 326 -69 326 -81 c 0
 326 -84 324 -88 321 -93 c 2
 318 -97 l 1
EndSplineSet
EndChar
StartChar: Lacute
Encoding: 313 313
Width: 600
Flags: MW
HStem: 0 41<90 186 227 500> 522 41<90 186 227 323 227 227>
VStem: 186 41<41 522> 500 41<41 201>
Fore
227 522 m 1
 227 41 l 1
 500 41 l 1
 500 201 l 2
 500 219 507 228 521 228 c 0
 534 228 541 219 541 201 c 2
 541 0 l 1
 90 0 l 2
 72 0 63 7 63 21 c 0
 63 34 72 41 90 41 c 2
 186 41 l 1
 186 522 l 1
 90 522 l 2
 72 522 63 529 63 543 c 0
 63 556 72 563 90 563 c 2
 323 563 l 2
 341 563 350 556 350 543 c 0
 350 529 341 522 323 522 c 2
 227 522 l 1
353 749 m 2
 239 649 l 2
 230 642 226 640 220 640 c 0
 209 640 200 649 200 661 c 0
 200 668 202 671 212 680 c 2
 326 780 l 2
 335 787 339 789 345 789 c 0
 356 789 365 780 365 768 c 0
 365 761 362 757 353 749 c 2
EndSplineSet
EndChar
StartChar: lacute
Encoding: 314 314
Width: 600
Flags: MW
HStem: 0 41<119 279 320 480> 563 41<162 279>
VStem: 279 41<41 563 563 563>
Fore
320 604 m 1
 320 41 l 1
 480 41 l 2
 499 41 508 34 508 21 c 0
 508 7 498 0 480 0 c 2
 119 0 l 2
 101 0 92 7 92 21 c 0
 92 34 101 41 119 41 c 2
 279 41 l 1
 279 563 l 1
 162 563 l 2
 144 563 135 570 135 584 c 0
 135 597 144 604 162 604 c 2
 320 604 l 1
433 749 m 2
 319 649 l 2
 310 642 306 640 300 640 c 0
 289 640 280 649 280 661 c 0
 280 668 282 671 292 680 c 2
 406 780 l 2
 415 787 419 789 425 789 c 0
 436 789 445 780 445 768 c 0
 445 761 442 757 433 749 c 2
EndSplineSet
EndChar
StartChar: Lcommaaccent
Encoding: 315 315
Width: 600
Flags: MW
HStem: 0 41<90 186 227 500> 522 41<90 186 227 323 227 227>
VStem: 186 41<41 522> 500 41<41 201>
Fore
227 522 m 1
 227 41 l 1
 500 41 l 1
 500 201 l 2
 500 219 507 228 521 228 c 0
 534 228 541 219 541 201 c 2
 541 0 l 1
 90 0 l 2
 72 0 63 7 63 21 c 0
 63 34 72 41 90 41 c 2
 186 41 l 1
 186 522 l 1
 90 522 l 2
 72 522 63 529 63 543 c 0
 63 556 72 563 90 563 c 2
 323 563 l 2
 341 563 350 556 350 543 c 0
 350 529 341 522 323 522 c 2
 227 522 l 1
328 -97 m 1
 244 -223 l 2
 236 -234 232 -237 223 -237 c 0
 212 -237 203 -228 203 -216 c 0
 203 -212 205 -207 210 -200 c 2
 294 -74 l 2
 301 -64 307 -60 315 -60 c 0
 327 -60 336 -69 336 -81 c 0
 336 -84 334 -88 331 -93 c 2
 328 -97 l 1
EndSplineSet
EndChar
StartChar: lcommaaccent
Encoding: 316 316
Width: 600
Flags: MW
HStem: 0 41<119 279 320 480> 563 41<162 279>
VStem: 279 41<41 563 563 563>
Fore
320 604 m 1
 320 41 l 1
 480 41 l 2
 499 41 508 34 508 21 c 0
 508 7 498 0 480 0 c 2
 119 0 l 2
 101 0 92 7 92 21 c 0
 92 34 101 41 119 41 c 2
 279 41 l 1
 279 563 l 1
 162 563 l 2
 144 563 135 570 135 584 c 0
 135 597 144 604 162 604 c 2
 320 604 l 1
318 -97 m 1
 234 -223 l 2
 226 -234 222 -237 213 -237 c 0
 202 -237 193 -228 193 -216 c 0
 193 -212 195 -207 200 -200 c 2
 284 -74 l 2
 291 -64 297 -60 305 -60 c 0
 317 -60 326 -69 326 -81 c 0
 326 -84 324 -88 321 -93 c 2
 318 -97 l 1
EndSplineSet
EndChar
StartChar: Lcaron
Encoding: 317 317
Width: 600
Flags: W
HStem: 0 41<90 186 227 500> 522 41<90 186 227 323 227 227> 546 20<484 494>
VStem: 186 41<41 522> 500 41<41 201>
Fore
227 522 m 1
 227 41 l 1
 500 41 l 1
 500 201 l 2
 500 219 507 228 521 228 c 0
 534 228 541 219 541 201 c 2
 541 0 l 1
 90 0 l 2
 72 0 63 7 63 21 c 0
 63 34 72 41 90 41 c 2
 186 41 l 1
 186 522 l 1
 90 522 l 2
 72 522 63 529 63 543 c 0
 63 556 72 563 90 563 c 2
 323 563 l 2
 341 563 350 556 350 543 c 0
 350 529 341 522 323 522 c 2
 227 522 l 1
501 529 m 1
 417 403 l 2
 409 392 405 389 396 389 c 0
 385 389 376 398 376 410 c 0
 376 414 378 419 383 426 c 2
 467 552 l 2
 474 562 480 566 488 566 c 0
 500 566 509 557 509 545 c 0
 509 542 507 538 504 533 c 2
 501 529 l 1
EndSplineSet
EndChar
StartChar: lcaron
Encoding: 318 318
Width: 600
Flags: W
HStem: 0 41<119 279 320 480> 419 20<389.5 399.5> 563 41<162 279>
VStem: 279 41<41 563 563 563>
Fore
320 604 m 1
 320 41 l 1
 480 41 l 2
 499 41 508 34 508 21 c 0
 508 7 498 0 480 0 c 2
 119 0 l 2
 101 0 92 7 92 21 c 0
 92 34 101 41 119 41 c 2
 279 41 l 1
 279 563 l 1
 162 563 l 2
 144 563 135 570 135 584 c 0
 135 597 144 604 162 604 c 2
 320 604 l 1
500 579 m 1
 416 453 l 2
 408 442 404 439 395 439 c 0
 384 439 375 448 375 460 c 0
 375 464 377 469 382 476 c 2
 466 602 l 2
 473 612 479 616 487 616 c 0
 499 616 508 607 508 595 c 0
 508 592 506 588 503 583 c 2
 500 579 l 1
EndSplineSet
EndChar
StartChar: Lslash
Encoding: 321 321
Width: 600
Flags: MW
HStem: 0 41<89 185 226 500> 522 41<89 185 226 322 226 226>
VStem: 185 41<41 246 246 246 310 522> 500 41<41 202>
Fore
226 522 m 1
 226 310 l 5
 360 390 l 6
 365 392 373 395 377 395 c 4
 388 395 397 385 397 375 c 4
 397 366 393 362 380 355 c 6
 226 263 l 5
 226 41 l 1
 500 41 l 1
 500 202 l 2
 500 220 507 229 521 229 c 0
 534 229 541 220 541 202 c 2
 541 0 l 1
 89 0 l 2
 71 0 62 7 62 21 c 0
 62 34 71 41 89 41 c 2
 185 41 l 1
 185 246 l 5
 79 184 l 6
 73 180 66 178 62 178 c 4
 53 178 43 188 43 199 c 4
 43 207 47 212 59 219 c 6
 185 293 l 5
 185 522 l 1
 89 522 l 2
 71 522 62 529 62 543 c 0
 62 556 71 563 89 563 c 2
 322 563 l 2
 340 563 349 556 349 543 c 0
 349 529 340 522 322 522 c 2
 226 522 l 1
EndSplineSet
EndChar
StartChar: lslash
Encoding: 322 322
Width: 600
Flags: MW
HStem: 0 41<119 278 319 481> 563 41<161 278>
VStem: 278 41<41 280 280 280 343 563 563 563>
Fore
319 604 m 1
 319 343 l 1
 407 394 l 2
 414 398 419 400 424 400 c 0
 434 400 443 391 443 380 c 0
 443 370 439 366 427 359 c 2
 319 297 l 1
 319 41 l 1
 481 41 l 2
 499 41 508 34 508 21 c 0
 508 7 499 0 481 0 c 2
 119 0 l 2
 101 0 92 7 92 21 c 0
 92 34 101 41 119 41 c 2
 278 41 l 1
 278 280 l 1
 191 230 l 2
 182 225 180 224 174 224 c 0
 164 224 155 234 155 245 c 0
 155 254 159 259 171 266 c 2
 278 327 l 1
 278 563 l 1
 161 563 l 2
 143 563 134 570 134 584 c 0
 134 597 143 604 161 604 c 2
 319 604 l 1
EndSplineSet
EndChar
StartChar: Nacute
Encoding: 323 323
Width: 600
Flags: MW
HStem: 0 41<69 103 144 219> 522 41<49 103 386 460 501 501 501 535>
VStem: 103 41<41 504> 460 41<59 522>
Fore
501 0 m 1
 449 0 l 1
 144 504 l 1
 144 41 l 1
 219 41 l 2
 237 41 246 34 246 21 c 0
 246 7 236 0 219 0 c 2
 69 0 l 2
 51 0 42 7 42 21 c 0
 42 34 51 41 69 41 c 2
 103 41 l 1
 103 522 l 1
 49 522 l 2
 31 522 22 529 22 543 c 0
 22 556 31 563 49 563 c 2
 155 563 l 1
 460 59 l 1
 460 522 l 1
 386 522 l 2
 367 522 358 529 358 543 c 0
 358 556 367 563 386 563 c 2
 535 563 l 2
 553 563 562 556 562 543 c 0
 562 529 553 522 535 522 c 2
 501 522 l 1
 501 0 l 1
433 749 m 2
 319 649 l 2
 310 642 306 640 300 640 c 0
 289 640 280 649 280 661 c 0
 280 668 282 671 292 680 c 2
 406 780 l 2
 415 787 419 789 425 789 c 0
 436 789 445 780 445 768 c 0
 445 761 442 757 433 749 c 2
EndSplineSet
EndChar
StartChar: nacute
Encoding: 324 324
Width: 600
Flags: W
HStem: 0 41<81 126 167 212 405 439 480 514> 376 41<92 126> 390 41<300 338.5>
VStem: 65 102<390 403.5> 126 41<41 294 348 376 376 376> 439 41<41 288 288 295>
Fore
167 417 m 1
 167 348 l 1
 225 412 261 431 323 431 c 0
 412 431 480 372 480 295 c 2
 480 41 l 1
 514 41 l 2
 532 41 541 34 541 21 c 0
 541 7 532 0 514 0 c 2
 405 0 l 2
 387 0 378 7 378 21 c 0
 378 34 387 41 405 41 c 2
 439 41 l 1
 439 288 l 2
 439 318 426 343 401 364 c 0
 377 384 358 390 319 390 c 0
 281 390 252 380 224 357 c 0
 209 346 199 335 167 294 c 1
 167 41 l 1
 212 41 l 2
 230 41 239 34 239 21 c 0
 239 7 230 0 212 0 c 2
 81 0 l 2
 62 0 53 7 53 21 c 0
 53 34 62 41 81 41 c 2
 126 41 l 1
 126 376 l 1
 92 376 l 2
 74 376 65 383 65 397 c 0
 65 410 74 417 92 417 c 2
 167 417 l 1
433 599 m 2
 319 499 l 2
 310 492 306 490 300 490 c 0
 289 490 280 499 280 511 c 0
 280 518 282 521 292 530 c 2
 406 630 l 2
 415 637 419 639 425 639 c 0
 436 639 445 630 445 618 c 0
 445 611 442 607 433 599 c 2
EndSplineSet
EndChar
StartChar: Ncommaaccent
Encoding: 325 325
Width: 600
Flags: MW
HStem: 0 41<69 103 144 219> 522 41<49 103 386 460 501 501 501 535>
VStem: 103 41<41 504> 460 41<59 522>
Fore
501 0 m 1
 449 0 l 1
 144 504 l 1
 144 41 l 1
 219 41 l 2
 237 41 246 34 246 21 c 0
 246 7 236 0 219 0 c 2
 69 0 l 2
 51 0 42 7 42 21 c 0
 42 34 51 41 69 41 c 2
 103 41 l 1
 103 522 l 1
 49 522 l 2
 31 522 22 529 22 543 c 0
 22 556 31 563 49 563 c 2
 155 563 l 1
 460 59 l 1
 460 522 l 1
 386 522 l 2
 367 522 358 529 358 543 c 0
 358 556 367 563 386 563 c 2
 535 563 l 2
 553 563 562 556 562 543 c 0
 562 529 553 522 535 522 c 2
 501 522 l 1
 501 0 l 1
338 -97 m 1
 254 -223 l 2
 246 -234 242 -237 233 -237 c 0
 222 -237 213 -228 213 -216 c 0
 213 -212 215 -207 220 -200 c 2
 304 -74 l 2
 311 -64 317 -60 325 -60 c 0
 337 -60 346 -69 346 -81 c 0
 346 -84 344 -88 341 -93 c 2
 338 -97 l 1
EndSplineSet
EndChar
StartChar: ncommaaccent
Encoding: 326 326
Width: 600
Flags: W
HStem: 0 41<81 126 167 212 405 439 480 514> 376 41<92 126> 390 41<300 338.5>
VStem: 65 102<390 403.5> 126 41<41 294 348 376 376 376> 439 41<41 288 288 295>
Fore
167 417 m 1
 167 348 l 1
 225 412 261 431 323 431 c 0
 412 431 480 372 480 295 c 2
 480 41 l 1
 514 41 l 2
 532 41 541 34 541 21 c 0
 541 7 532 0 514 0 c 2
 405 0 l 2
 387 0 378 7 378 21 c 0
 378 34 387 41 405 41 c 2
 439 41 l 1
 439 288 l 2
 439 318 426 343 401 364 c 0
 377 384 358 390 319 390 c 0
 281 390 252 380 224 357 c 0
 209 346 199 335 167 294 c 1
 167 41 l 1
 212 41 l 2
 230 41 239 34 239 21 c 0
 239 7 230 0 212 0 c 2
 81 0 l 2
 62 0 53 7 53 21 c 0
 53 34 62 41 81 41 c 2
 126 41 l 1
 126 376 l 1
 92 376 l 2
 74 376 65 383 65 397 c 0
 65 410 74 417 92 417 c 2
 167 417 l 1
318 -97 m 1
 234 -223 l 2
 226 -234 222 -237 213 -237 c 0
 202 -237 193 -228 193 -216 c 0
 193 -212 195 -207 200 -200 c 2
 284 -74 l 2
 291 -64 297 -60 305 -60 c 0
 317 -60 326 -69 326 -81 c 0
 326 -84 324 -88 321 -93 c 2
 318 -97 l 1
EndSplineSet
EndChar
StartChar: Ncaron
Encoding: 327 327
Width: 600
Flags: MW
HStem: 0 41<69 103 144 219> 522 41<49 103 386 460 501 501 501 535>
VStem: 103 41<41 504> 460 41<59 522>
Fore
501 0 m 1
 449 0 l 1
 144 504 l 1
 144 41 l 1
 219 41 l 2
 237 41 246 34 246 21 c 0
 246 7 236 0 219 0 c 2
 69 0 l 2
 51 0 42 7 42 21 c 0
 42 34 51 41 69 41 c 2
 103 41 l 1
 103 522 l 1
 49 522 l 2
 31 522 22 529 22 543 c 0
 22 556 31 563 49 563 c 2
 155 563 l 1
 460 59 l 1
 460 522 l 1
 386 522 l 2
 367 522 358 529 358 543 c 0
 358 556 367 563 386 563 c 2
 535 563 l 2
 553 563 562 556 562 543 c 0
 562 529 553 522 535 522 c 2
 501 522 l 1
 501 0 l 1
300 640 m 1
 168 749 l 1
 158 756 155 760 155 769 c 0
 155 780 164 789 175 789 c 0
 180 789 186 786 193 781 c 2
 300 693 l 1
 407 781 l 2
 414 786 420 789 425 789 c 0
 435 789 445 779 445 769 c 0
 445 761 443 757 432 748 c 2
 300 640 l 1
EndSplineSet
EndChar
StartChar: ncaron
Encoding: 328 328
Width: 600
Flags: W
HStem: 0 41<81 126 167 212 405 439 480 514> 376 41<92 126> 390 41<300 338.5>
VStem: 65 102<390 403.5> 126 41<41 294 348 376 376 376> 439 41<41 288 288 295>
Fore
167 417 m 1
 167 348 l 1
 225 412 261 431 323 431 c 0
 412 431 480 372 480 295 c 2
 480 41 l 1
 514 41 l 2
 532 41 541 34 541 21 c 0
 541 7 532 0 514 0 c 2
 405 0 l 2
 387 0 378 7 378 21 c 0
 378 34 387 41 405 41 c 2
 439 41 l 1
 439 288 l 2
 439 318 426 343 401 364 c 0
 377 384 358 390 319 390 c 0
 281 390 252 380 224 357 c 0
 209 346 199 335 167 294 c 1
 167 41 l 1
 212 41 l 2
 230 41 239 34 239 21 c 0
 239 7 230 0 212 0 c 2
 81 0 l 2
 62 0 53 7 53 21 c 0
 53 34 62 41 81 41 c 2
 126 41 l 1
 126 376 l 1
 92 376 l 2
 74 376 65 383 65 397 c 0
 65 410 74 417 92 417 c 2
 167 417 l 1
300 490 m 1
 168 599 l 1
 158 606 155 610 155 619 c 0
 155 630 164 639 175 639 c 0
 180 639 186 636 193 631 c 2
 300 543 l 1
 407 631 l 2
 414 636 420 639 425 639 c 0
 435 639 445 629 445 619 c 0
 445 611 443 607 432 598 c 2
 300 490 l 1
EndSplineSet
EndChar
StartChar: napostrophe
Encoding: 329 329
Width: 600
Flags: W
HStem: 0 41<69.9599 125 168 214 400 438 480 517> 376 41<82 125> 390 41<309 341>
VStem: 126 41<41 294 349 376> 439 41<41 297>
Fore
167 417 m 1
 167 348 l 1
 225 412 261 431 323 431 c 0
 412 431 480 372 480 295 c 2
 480 41 l 1
 514 41 l 2
 532 41 541 34 541 21 c 0
 541 7 532 0 514 0 c 2
 405 0 l 2
 387 0 378 7 378 21 c 0
 378 34 387 41 405 41 c 2
 439 41 l 1
 439 288 l 2
 439 318 426 343 401 364 c 0
 377 384 358 390 319 390 c 0
 281 390 252 380 224 357 c 0
 209 346 199 335 167 294 c 1
 167 41 l 1
 212 41 l 2
 230 41 239 34 239 21 c 0
 239 7 230 0 212 0 c 2
 81 0 l 2
 62 0 53 7 53 21 c 0
 53 34 62 41 81 41 c 2
 126 41 l 1
 126 376 l 1
 92 376 l 2
 74 376 65 383 65 397 c 0
 65 410 74 417 92 417 c 2
 167 417 l 1
EndSplineSet
MinimumDistance: x0,-1 x0,0 x0,0 x0,0 x0,0 x0,0 x0,0 x0,0 x0,0 x0,0 x0,0 
EndChar
StartChar: Eng
Encoding: 330 330
Width: 600
Flags: HW
HStem: -199 41<342 360> 0 41<58.4704 102 145 221> 522 41<41 102 374.96 459 501 537>
VStem: 103 41<41 503> 460 41<-55 0 60 522>
DStem: 144 504 155 563 449 0 460 59
Fore
460 0 m 1
 449 0 l 1
 144 504 l 1
 144 41 l 1
 219 41 l 2
 237 41 246 34 246 21 c 0
 246 7 236 0 219 0 c 2
 69 0 l 2
 51 0 42 7 42 21 c 0
 42 34 51 41 69 41 c 2
 103 41 l 1
 103 522 l 1
 49 522 l 2
 31 522 22 529 22 543 c 0
 22 556 31 563 49 563 c 2
 155 563 l 1
 460 59 l 1
 460 522 l 1
 386 522 l 2
 367 522 358 529 358 543 c 0
 358 556 367 563 386 563 c 2
 535 563 l 2
 553 563 562 556 562 543 c 0
 562 529 553 522 535 522 c 2
 501 522 l 1
 501 -48 l 1
 501 -132 436 -199 354 -199 c 0
 329 -199 297 -192 279 -183 c 0
 271 -179 267 -173 267 -165 c 0
 267 -154 275 -145 285 -145 c 0
 290 -145 292 -146 317 -153 c 0
 325 -156 343 -158 355 -158 c 0
 416 -158 460 -110 460 -42 c 2
 460 0 l 1
EndSplineSet
MinimumDistance: x21,-1 x24,21 x24,23 x17,20 x17,18 x11,14 x11,12 x10,7 x10,9 x3,6 x3,4 
EndChar
StartChar: eng
Encoding: 331 331
Width: 600
Flags: W
HStem: -199 41<318 341> 0 41<69.9599 125 168 214> 376 41<82 125> 390 41<309 341>
VStem: 126 41<41 294 349 376> 439 41<-55 297>
Fore
439 -42 m 1
 439 288 l 1
 439 318 426 343 401 364 c 0
 377 384 358 390 319 390 c 0
 281 390 252 380 224 357 c 0
 209 346 199 335 167 294 c 1
 167 41 l 1
 212 41 l 2
 230 41 239 34 239 21 c 0
 239 7 230 0 212 0 c 2
 81 0 l 2
 62 0 53 7 53 21 c 0
 53 34 62 41 81 41 c 2
 126 41 l 1
 126 376 l 1
 92 376 l 2
 74 376 65 383 65 397 c 0
 65 410 74 417 92 417 c 2
 167 417 l 1
 167 348 l 1
 225 412 261 431 323 431 c 0
 412 431 480 372 480 295 c 1
 480 -48 l 1
 480 -132 415 -199 333 -199 c 0
 308 -199 276 -192 258 -183 c 0
 250 -179 246 -173 246 -165 c 0
 246 -154 254 -145 264 -145 c 0
 269 -145 271 -146 296 -153 c 0
 304 -156 322 -158 334 -158 c 0
 395 -158 439 -110 439 -42 c 1
EndSplineSet
MinimumDistance: x21,-1 x14,17 x14,15 x13,10 x13,12 x6,9 x6,7 
EndChar
StartChar: Omacron
Encoding: 332 332
Width: 600
Flags: W
HStem: -16 41<243 356.5> 535 41<242.5 358> 686 40<182 418>
VStem: 51 41<210 350> 508 41<208.5 349>
Fore
300 576 m 0
 441 576 549 446 549 276 c 0
 549 115 437 -16 300 -16 c 0
 161 -16 51 115 51 280 c 0
 51 445 161 576 300 576 c 0
300 535 m 0
 185 535 92 420 92 280 c 0
 92 140 186 25 300 25 c 0
 413 25 508 140 508 277 c 0
 508 421 416 535 300 535 c 0
418 686 m 2
 182 686 l 2
 164 686 155 693 155 706 c 0
 155 719 164 726 182 726 c 2
 418 726 l 2
 436 726 445 719 445 706 c 0
 445 693 436 686 418 686 c 2
EndSplineSet
EndChar
StartChar: omacron
Encoding: 333 333
Width: 600
Flags: W
HStem: -16 41<248 351.5> 390 41<248 352.5> 536 40<182 418>
VStem: 72 41<157 258.5> 487 41<155.5 257.5>
Fore
300 431 m 0
 428 431 528 332 528 205 c 0
 528 83 426 -16 300 -16 c 0
 173 -16 72 83 72 208 c 0
 72 331 173 431 300 431 c 0
300 390 m 0
 196 390 113 309 113 208 c 0
 113 106 196 25 300 25 c 0
 403 25 487 106 487 205 c 0
 487 310 405 390 300 390 c 0
418 536 m 2
 182 536 l 2
 164 536 155 543 155 556 c 0
 155 569 164 576 182 576 c 2
 418 576 l 2
 436 576 445 569 445 556 c 0
 445 543 436 536 418 536 c 2
EndSplineSet
EndChar
StartChar: Ohungarumlaut
Encoding: 336 336
Width: 600
Flags: MW
HStem: -16 41<243 356.5> 535 41<242.5 358>
VStem: 51 41<210 350> 508 41<208.5 349>
Fore
300 576 m 0
 441 576 549 446 549 276 c 0
 549 115 437 -16 300 -16 c 0
 161 -16 51 115 51 280 c 0
 51 445 161 576 300 576 c 0
300 535 m 0
 185 535 92 420 92 280 c 0
 92 140 186 25 300 25 c 0
 413 25 508 140 508 277 c 0
 508 421 416 535 300 535 c 0
331 743 m 2
 234 649 l 2
 227 643 221 640 215 640 c 0
 204 640 195 649 195 661 c 0
 195 668 196 670 207 680 c 2
 305 774 l 2
 311 780 317 783 323 783 c 0
 334 783 343 774 343 762 c 0
 343 756 341 753 331 743 c 2
473 743 m 2
 375 649 l 2
 368 643 362 640 356 640 c 0
 345 640 336 649 336 661 c 0
 336 667 339 672 345 677 c 2
 348 680 l 1
 446 774 l 2
 453 780 459 783 465 783 c 0
 476 783 485 774 485 762 c 0
 485 756 484 753 473 743 c 2
EndSplineSet
EndChar
StartChar: ohungarumlaut
Encoding: 337 337
Width: 600
Flags: MW
HStem: -16 41<248 351.5> 390 41<248 352.5>
VStem: 72 41<157 258.5> 487 41<155.5 257.5>
Fore
300 431 m 0
 428 431 528 332 528 205 c 0
 528 83 426 -16 300 -16 c 0
 173 -16 72 83 72 208 c 0
 72 331 173 431 300 431 c 0
300 390 m 0
 196 390 113 309 113 208 c 0
 113 106 196 25 300 25 c 0
 403 25 487 106 487 205 c 0
 487 310 405 390 300 390 c 0
291 593 m 2
 194 499 l 2
 187 493 181 490 175 490 c 0
 164 490 155 499 155 511 c 0
 155 518 156 520 167 530 c 2
 265 624 l 2
 271 630 277 633 283 633 c 0
 294 633 303 624 303 612 c 0
 303 606 301 603 291 593 c 2
433 593 m 2
 335 499 l 2
 328 493 322 490 316 490 c 0
 305 490 296 499 296 511 c 0
 296 517 299 522 305 527 c 2
 308 530 l 1
 406 624 l 2
 413 630 419 633 425 633 c 0
 436 633 445 624 445 612 c 0
 445 606 444 603 433 593 c 2
EndSplineSet
EndChar
StartChar: OE
Encoding: 338 338
Width: 600
Flags: W
HStem: 0 41<265 297 338 549> 272 41<338 416> 522 41<255 265 265 297 338 529 338 338>
VStem: 10 41<247 315> 297 41<41 272 313 522> 416 41<244 272 272 272 313 340> 529 41<409 522 522 522> 549 41<41 133>
Fore
338 272 m 1
 338 41 l 1
 549 41 l 1
 549 133 l 2
 549 153 555 160 569 160 c 0
 582 160 590 149 590 133 c 2
 590 0 l 1
 263 0 l 2
 111 0 10 112 10 282 c 0
 10 449 109 563 255 563 c 2
 570 563 l 1
 570 409 l 2
 570 391 563 382 550 382 c 0
 536 382 529 391 529 409 c 2
 529 522 l 1
 338 522 l 1
 338 313 l 1
 416 313 l 1
 416 340 l 2
 416 358 423 367 437 367 c 0
 450 367 457 358 457 340 c 2
 457 244 l 2
 457 226 450 217 437 217 c 0
 423 217 416 226 416 244 c 2
 416 272 l 1
 338 272 l 1
297 522 m 1
 265 522 l 2
 192 522 142 500 104 452 c 0
 69 408 51 349 51 281 c 0
 51 213 69 155 104 111 c 0
 142 63 193 41 265 41 c 2
 297 41 l 1
 297 522 l 1
EndSplineSet
EndChar
StartChar: oe
Encoding: 339 339
Width: 600
Flags: MW
HStem: -16 41<136.5 194 414 460> 199 41<320 536> 390 41<136 192 415.5 447>
VStem: 12 41<159.5 256.5>
Fore
577 199 m 1
 319 199 l 1
 327 100 382 25 446 25 c 0
 475 25 497 38 545 82 c 0
 549 85 554 87 558 87 c 0
 568 87 578 77 578 67 c 0
 578 57 570 48 547 29 c 1
 506 -2 476 -16 444 -16 c 0
 384 -16 329 30 299 103 c 1
 270 27 222 -16 166 -16 c 0
 83 -16 12 89 12 212 c 0
 12 330 82 431 165 431 c 0
 219 431 271 387 299 317 c 1
 316 360 326 376 346 395 c 0
 371 419 400 431 431 431 c 0
 490 431 538 392 560 325 c 0
 572 288 577 252 577 199 c 1
320 240 m 1
 536 240 l 1
 530 288 524 313 513 335 c 0
 495 370 465 390 429 390 c 0
 370 390 333 340 320 240 c 1
166 390 m 0
 106 390 53 305 53 208 c 0
 53 111 106 25 167 25 c 0
 226 25 280 111 280 206 c 0
 280 305 228 390 166 390 c 0
EndSplineSet
EndChar
StartChar: Racute
Encoding: 340 340
Width: 600
Flags: MW
HStem: 0 41<70 124 165 240 531 562> 251 41<165 279 279 297> 522 41<70 124 165 165 165 318>
VStem: 124 41<41 251 292 522> 457 41<376 438>
Fore
165 251 m 1
 165 41 l 1
 240 41 l 2
 258 41 267 34 267 21 c 0
 267 7 258 0 240 0 c 2
 70 0 l 2
 52 0 43 7 43 21 c 0
 43 34 52 41 70 41 c 2
 124 41 l 1
 124 522 l 1
 70 522 l 2
 52 522 43 529 43 543 c 0
 43 556 52 563 70 563 c 2
 318 563 l 2
 415 563 498 491 498 407 c 0
 498 342 452 294 359 262 c 1
 422 219 450 182 531 41 c 1
 562 41 l 2
 580 41 589 34 589 21 c 0
 589 7 580 0 562 0 c 2
 505 0 l 1
 417 162 373 216 297 251 c 1
 165 251 l 1
165 292 m 1
 279 292 l 2
 377 292 457 344 457 408 c 0
 457 468 390 522 318 522 c 2
 165 522 l 1
 165 292 l 1
433 749 m 2
 319 649 l 2
 310 642 306 640 300 640 c 0
 289 640 280 649 280 661 c 0
 280 668 282 671 292 680 c 2
 406 780 l 2
 415 787 419 789 425 789 c 0
 436 789 445 780 445 768 c 0
 445 761 442 757 433 749 c 2
EndSplineSet
EndChar
StartChar: racute
Encoding: 341 341
Width: 600
Flags: W
HStem: 0 41<111 207 248 427> 376 41<132 207> 386 41<415.5 449>
VStem: 207 41<41 262 315 376 376 376>
Fore
248 417 m 1
 248 315 l 1
 341 399 390 427 441 427 c 0
 470 427 492 418 518 396 c 0
 535 382 541 374 541 365 c 0
 541 353 532 344 520 344 c 0
 513 344 511 345 504 352 c 0
 480 375 460 386 438 386 c 0
 393 386 358 363 248 262 c 1
 248 41 l 1
 427 41 l 2
 444 41 454 33 454 20 c 0
 454 8 444 0 427 0 c 2
 111 0 l 2
 94 0 84 8 84 21 c 0
 84 33 94 41 111 41 c 2
 207 41 l 1
 207 376 l 1
 132 376 l 2
 115 376 105 384 105 397 c 0
 105 409 115 417 132 417 c 2
 248 417 l 1
433 599 m 2
 319 499 l 2
 310 492 306 490 300 490 c 0
 289 490 280 499 280 511 c 0
 280 518 282 521 292 530 c 2
 406 630 l 2
 415 637 419 639 425 639 c 0
 436 639 445 630 445 618 c 0
 445 611 442 607 433 599 c 2
EndSplineSet
EndChar
StartChar: Rcommaaccent
Encoding: 342 342
Width: 600
Flags: MW
HStem: 0 41<70 124 165 240 531 562> 251 41<165 279 279 297> 522 41<70 124 165 165 165 318>
VStem: 124 41<41 251 292 522> 457 41<376 438>
Fore
165 251 m 1
 165 41 l 1
 240 41 l 2
 258 41 267 34 267 21 c 0
 267 7 258 0 240 0 c 2
 70 0 l 2
 52 0 43 7 43 21 c 0
 43 34 52 41 70 41 c 2
 124 41 l 1
 124 522 l 1
 70 522 l 2
 52 522 43 529 43 543 c 0
 43 556 52 563 70 563 c 2
 318 563 l 2
 415 563 498 491 498 407 c 0
 498 342 452 294 359 262 c 1
 422 219 450 182 531 41 c 1
 562 41 l 2
 580 41 589 34 589 21 c 0
 589 7 580 0 562 0 c 2
 505 0 l 1
 417 162 373 216 297 251 c 1
 165 251 l 1
165 292 m 1
 279 292 l 2
 377 292 457 344 457 408 c 0
 457 468 390 522 318 522 c 2
 165 522 l 1
 165 292 l 1
358 -97 m 1
 274 -223 l 2
 266 -234 262 -237 253 -237 c 0
 242 -237 233 -228 233 -216 c 0
 233 -212 235 -207 240 -200 c 2
 324 -74 l 2
 331 -64 337 -60 345 -60 c 0
 357 -60 366 -69 366 -81 c 0
 366 -84 364 -88 361 -93 c 2
 358 -97 l 1
EndSplineSet
EndChar
StartChar: rcommaaccent
Encoding: 343 343
Width: 600
Flags: W
HStem: 0 41<111 207 248 427> 376 41<132 207> 386 41<415.5 449>
VStem: 207 41<41 262 315 376 376 376>
Fore
248 417 m 1
 248 315 l 1
 341 399 390 427 441 427 c 0
 470 427 492 418 518 396 c 0
 535 382 541 374 541 365 c 0
 541 353 532 344 520 344 c 0
 513 344 511 345 504 352 c 0
 480 375 460 386 438 386 c 0
 393 386 358 363 248 262 c 1
 248 41 l 1
 427 41 l 2
 444 41 454 33 454 20 c 0
 454 8 444 0 427 0 c 2
 111 0 l 2
 94 0 84 8 84 21 c 0
 84 33 94 41 111 41 c 2
 207 41 l 1
 207 376 l 1
 132 376 l 2
 115 376 105 384 105 397 c 0
 105 409 115 417 132 417 c 2
 248 417 l 1
278 -97 m 1
 194 -223 l 2
 186 -234 182 -237 173 -237 c 0
 162 -237 153 -228 153 -216 c 0
 153 -212 155 -207 160 -200 c 2
 244 -74 l 2
 251 -64 257 -60 265 -60 c 0
 277 -60 286 -69 286 -81 c 0
 286 -84 284 -88 281 -93 c 2
 278 -97 l 1
EndSplineSet
EndChar
StartChar: Rcaron
Encoding: 344 344
Width: 600
Flags: MW
HStem: 0 41<70 124 165 240 531 562> 251 41<165 279 279 297> 522 41<70 124 165 165 165 318>
VStem: 124 41<41 251 292 522> 457 41<376 438>
Fore
165 251 m 1
 165 41 l 1
 240 41 l 2
 258 41 267 34 267 21 c 0
 267 7 258 0 240 0 c 2
 70 0 l 2
 52 0 43 7 43 21 c 0
 43 34 52 41 70 41 c 2
 124 41 l 1
 124 522 l 1
 70 522 l 2
 52 522 43 529 43 543 c 0
 43 556 52 563 70 563 c 2
 318 563 l 6
 415 563 498 491 498 407 c 0
 498 342 452 294 359 262 c 1
 422 219 450 182 531 41 c 1
 562 41 l 2
 580 41 589 34 589 21 c 0
 589 7 580 0 562 0 c 2
 505 0 l 1
 417 162 373 216 297 251 c 1
 165 251 l 1
165 292 m 1
 279 292 l 2
 377 292 457 344 457 408 c 0
 457 468 390 522 318 522 c 2
 165 522 l 1
 165 292 l 1
300 640 m 1
 168 749 l 1
 158 756 155 760 155 769 c 0
 155 780 164 789 175 789 c 0
 180 789 186 786 193 781 c 2
 300 693 l 1
 407 781 l 2
 414 786 420 789 425 789 c 0
 435 789 445 779 445 769 c 0
 445 761 443 757 432 748 c 2
 300 640 l 1
EndSplineSet
EndChar
StartChar: rcaron
Encoding: 345 345
Width: 600
Flags: W
HStem: 0 41<111 207 248 427> 376 41<132 207> 386 41<415.5 449>
VStem: 207 41<41 262 315 376 376 376>
Fore
248 417 m 1
 248 315 l 1
 341 399 390 427 441 427 c 0
 470 427 492 418 518 396 c 0
 535 382 541 374 541 365 c 0
 541 353 532 344 520 344 c 0
 513 344 511 345 504 352 c 0
 480 375 460 386 438 386 c 0
 393 386 358 363 248 262 c 1
 248 41 l 1
 427 41 l 2
 444 41 454 33 454 20 c 0
 454 8 444 0 427 0 c 2
 111 0 l 2
 94 0 84 8 84 21 c 0
 84 33 94 41 111 41 c 2
 207 41 l 1
 207 376 l 1
 132 376 l 2
 115 376 105 384 105 397 c 0
 105 409 115 417 132 417 c 2
 248 417 l 1
300 490 m 1
 168 599 l 1
 158 606 155 610 155 619 c 0
 155 630 164 639 175 639 c 0
 180 639 186 636 193 631 c 2
 300 543 l 1
 407 631 l 2
 414 636 420 639 425 639 c 0
 435 639 445 629 445 619 c 0
 445 611 443 607 432 598 c 2
 300 490 l 1
EndSplineSet
EndChar
StartChar: Sacute
Encoding: 346 346
Width: 600
Flags: W
HStem: -16 41<267.5 347.5> 0 20 535 41<261 328.5> 543 20<459 472.5>
VStem: 92 41<27 56> 115 44<404.5 453> 445 41<517 536> 464 44<116 170.5>
Fore
445 517 m 1
 445 536 l 2
 445 554 452 563 466 563 c 0
 479 563 486 554 486 536 c 2
 486 433 l 2
 486 415 479 406 466 406 c 0
 453 406 446 414 445 430 c 0
 441 490 380 535 302 535 c 0
 220 535 159 486 159 420 c 0
 159 389 173 361 198 344 c 0
 224 327 249 319 311 309 c 0
 388 296 416 288 446 269 c 0
 485 245 508 202 508 151 c 0
 508 54 422 -16 302 -16 c 0
 233 -16 174 9 133 56 c 1
 133 27 l 2
 133 9 126 0 112 0 c 0
 99 0 92 9 92 27 c 2
 92 139 l 2
 92 157 99 166 113 166 c 0
 126 166 132 158 133 142 c 0
 136 76 210 25 301 25 c 0
 394 25 464 79 464 153 c 0
 464 188 447 220 419 237 c 0
 395 253 374 259 303 271 c 0
 233 283 197 295 167 317 c 0
 134 340 115 379 115 421 c 0
 115 509 194 576 299 576 c 0
 358 576 403 558 445 517 c 1
433 749 m 2
 319 649 l 2
 310 642 306 640 300 640 c 0
 289 640 280 649 280 661 c 0
 280 668 282 671 292 680 c 2
 406 780 l 2
 415 787 419 789 425 789 c 0
 436 789 445 780 445 768 c 0
 445 761 442 757 433 749 c 2
EndSplineSet
EndChar
StartChar: sacute
Encoding: 347 347
Width: 600
Flags: W
HStem: -16 41<268.5 342> 0 20 390 41<262 323.5> 397 20<446.5 459.5>
VStem: 103 41<27 38 85 108 108 110 110 115> 124 45<307 336.5> 432 41<385 389> 452 45<90.5 128.5>
Fore
432 385 m 1
 432 389 l 2
 432 406 440 417 453 417 c 0
 466 417 473 408 473 389 c 2
 473 320 l 2
 473 302 466 293 453 293 c 0
 441 293 434 300 432 316 c 0
 427 361 375 390 299 390 c 0
 225 390 169 358 169 315 c 0
 169 299 180 282 201 270 c 0
 223 256 229 254 317 245 c 0
 378 238 415 227 447 206 c 0
 478 185 497 151 497 116 c 0
 497 40 414 -16 301 -16 c 0
 236 -16 186 1 144 38 c 1
 144 27 l 2
 144 9 137 0 124 0 c 0
 110 0 103 9 103 27 c 2
 103 110 l 2
 103 128 110 137 124 137 c 0
 136 137 144 128 144 115 c 2
 144 108 l 2
 144 62 213 25 298 25 c 0
 386 25 452 64 452 117 c 0
 452 140 435 165 408 180 c 0
 382 194 355 201 300 207 c 0
 226 215 198 222 170 239 c 0
 142 257 124 287 124 318 c 0
 124 383 197 431 295 431 c 0
 352 431 397 416 432 385 c 1
433 599 m 2
 319 499 l 2
 310 492 306 490 300 490 c 0
 289 490 280 499 280 511 c 0
 280 518 282 521 292 530 c 2
 406 630 l 2
 415 637 419 639 425 639 c 0
 436 639 445 630 445 618 c 0
 445 611 442 607 433 599 c 2
EndSplineSet
EndChar
StartChar: Scedilla
Encoding: 350 350
Width: 600
Flags: W
HStem: -173 38<289.5 310> 0 20 535 41<261 328.5> 543 20<459 472.5>
VStem: 92 41<27 56> 115 44<404.5 453> 274 38<-47 -16> 341 36<-114.5 -97.5> 445 41<517 536> 464 44<116 170.5>
Fore
312 -16 m 1
 312 -47 l 1
 353 -48 377 -70 377 -108 c 0
 377 -147 345 -173 298 -173 c 0
 278 -173 247 -165 228 -155 c 0
 214 -148 210 -143 210 -133 c 0
 210 -122 219 -114 230 -114 c 0
 234 -114 237 -115 245 -119 c 0
 268 -131 282 -135 297 -135 c 0
 323 -135 341 -123 341 -106 c 0
 341 -89 326 -81 294 -81 c 2
 274 -81 l 1
 274 -15 l 1
 215 -8 164 18 133 56 c 1
 133 27 l 2
 133 9 126 0 112 0 c 0
 99 0 92 9 92 27 c 2
 92 139 l 2
 92 157 99 166 113 166 c 0
 126 166 132 158 133 142 c 0
 136 76 210 25 301 25 c 0
 395 25 464 79 464 153 c 0
 464 188 447 220 419 237 c 0
 395 253 374 259 303 271 c 0
 233 283 197 295 167 317 c 0
 134 340 115 379 115 421 c 0
 115 509 194 576 299 576 c 0
 358 576 404 557 445 517 c 1
 445 536 l 2
 445 554 452 563 466 563 c 0
 479 563 486 554 486 536 c 2
 486 433 l 2
 486 415 479 406 466 406 c 0
 453 406 446 414 445 430 c 0
 441 490 380 535 302 535 c 0
 220 535 159 486 159 420 c 0
 159 389 173 361 198 344 c 0
 224 327 249 319 312 309 c 0
 388 296 416 288 446 269 c 0
 485 245 508 202 508 151 c 0
 508 57 429 -10 312 -16 c 1
EndSplineSet
EndChar
StartChar: scedilla
Encoding: 351 351
Width: 600
Flags: W
HStem: -173 38<288.5 309> 0 20 390 41<261.5 323> 397 20<446.5 459.5>
VStem: 103 41<27 38 85 108 108 110 110 115> 124 45<307 336.5> 274 38<-47 -16> 340 37<-114.5 -97.5> 432 41<385 389> 452 45<90.5 128.5>
Fore
312 -16 m 1
 312 -47 l 1
 353 -48 377 -70 377 -108 c 0
 377 -147 345 -173 298 -173 c 0
 278 -173 247 -165 228 -155 c 0
 214 -148 210 -143 210 -133 c 0
 210 -122 219 -114 229 -114 c 0
 233 -114 236 -115 245 -119 c 0
 267 -131 281 -135 296 -135 c 0
 322 -135 340 -123 340 -106 c 0
 340 -89 325 -81 294 -81 c 2
 274 -81 l 1
 274 -15 l 1
 216 -9 176 7 144 38 c 1
 144 27 l 2
 144 9 137 0 124 0 c 0
 110 0 103 9 103 27 c 2
 103 110 l 2
 103 128 110 137 124 137 c 0
 136 137 144 128 144 115 c 2
 144 108 l 2
 144 62 213 25 298 25 c 0
 386 25 452 64 452 117 c 0
 452 140 435 165 408 180 c 0
 382 194 355 201 300 207 c 0
 226 215 198 222 170 239 c 0
 142 257 124 287 124 318 c 0
 124 383 197 431 294 431 c 0
 352 431 397 416 432 385 c 1
 432 389 l 2
 432 406 440 417 453 417 c 0
 466 417 473 408 473 389 c 2
 473 320 l 2
 473 302 466 293 453 293 c 0
 440 293 434 300 432 316 c 0
 428 360 374 390 299 390 c 0
 224 390 169 358 169 315 c 0
 169 299 180 282 200 270 c 0
 223 256 229 254 317 245 c 0
 378 238 415 227 447 206 c 0
 478 185 497 151 497 116 c 0
 497 42 423 -11 312 -16 c 1
EndSplineSet
EndChar
